<svg xmlns="http://www.w3.org/2000/svg" viewBox="0 0 265.37 300"><defs><style>.cls-1{fill:#3398fe;}.cls-2{fill:#00923f;}.cls-3{fill:#fefefe;}</style></defs><title>Ресурс 8</title><g id="Слой_2" data-name="Слой 2"><g id="Слой_1-2" data-name="Слой 1"><path class="cls-1" d="M265.35,85.32a20.69,20.69,0,0,0-8.87-17c-.48-.33-1-.65-1.47-.94l-13.9-8-1.55-.89-11.45-6.61h0l-10.48-6L162,13.72,150.26,7h0L143,2.77a20.68,20.68,0,0,0-20.68,0l-7.21,4.17L103.39,13.7,47.74,45.85,30.19,56l-13,7.51h0l-6.85,4c-.5.29-1,.6-1.43.92A20.66,20.66,0,0,0,0,85.36V99.58H265.35Z"/><path class="cls-2" d="M126.19,200,0,199.94v14.74a20.69,20.69,0,0,0,8.87,17c.48.33,1,.65,1.47.94l13.7,7.9h0l13,7.51h0l10.66,6.16,55.67,32.12L115.11,293h0l7.26,4.19a20.67,20.67,0,0,0,20.68,0l7.21-4.17L162,286.3l55.65-32.15,16-9.25,13-7.51,8.39-4.84c.49-.29,1-.6,1.43-.92a20.67,20.67,0,0,0,8.9-17V200H138a56.15,56.15,0,0,0,11.49-2.77c18-6.88,29-19.74,32.86-38.7a42.39,42.39,0,0,0,.75-8.64l-.62-.07-1.05,0H84.61l-1,0c-1-.06-.58.78-.76,1.24A50.23,50.23,0,0,0,124,199.18c1.3.25,2.61.4,4,.62A4.59,4.59,0,0,1,126.19,200Z"/><path class="cls-3" d="M0,99.58V199.94l126.17,0a4.59,4.59,0,0,0,1.84-.16c-1.42-.22-2.73-.37-4-.62A50.23,50.23,0,0,1,82.8,151a42.78,42.78,0,0,1,.9-10.6c4.52-20.25,16.8-33.32,36.67-39.13a43.64,43.64,0,0,1,10.14-1.71H0Z"/><path class="cls-3" d="M265.37,189.79V99.58H134.77c.35,0,.7,0,1,.06,25.23,1.84,42.92,20.29,46.55,41.57a51.08,51.08,0,0,1,.74,8.64,42.39,42.39,0,0,1-.75,8.64c-3.82,19-14.84,31.82-32.86,38.7A56.15,56.15,0,0,1,138,200H265.37Z"/><path class="cls-3" d="M130.51,99.58h4.26Q132.63,99.48,130.51,99.58Z"/><path class="cls-1" d="M82.8,151a42.78,42.78,0,0,1,.9-10.6c4.52-20.25,16.8-33.32,36.67-39.13a43.47,43.47,0,0,1,15.45-1.65c25.23,1.84,42.92,20.29,46.55,41.57a51.08,51.08,0,0,1,.74,8.64l-.62-.07a183.56,183.56,0,0,0-18.82-18.7c-3.65-3.09-7.41-6-11.86-8a9.71,9.71,0,0,0-6.08-.66c-5,1.14-8.23,4.57-10.87,8.71-.29.46-.05.71.23,1,.65.64,1.28,1.27,1.91,1.92.27.27.67.57.28,1s-.72,0-1-.23c-1.28-1.15-2.56-2.3-3.83-3.47a34.69,34.69,0,0,0-6.74-5.27,12.34,12.34,0,0,0-11.38-.84,32,32,0,0,0-3.5,1.66c-10.4,6-19,14.29-27.27,22.86C82.53,149.72,83,150.56,82.8,151Z"/><path class="cls-3" d="M83.56,149.78c8.3-8.57,16.87-16.81,27.27-22.86a32,32,0,0,1,3.5-1.66,12.34,12.34,0,0,1,11.38.84,34.69,34.69,0,0,1,6.74,5.27c1.27,1.17,2.55,2.32,3.83,3.47.28.24.61.64,1,.23s0-.71-.28-1c-.63-.65-1.26-1.28-1.91-1.92-.28-.28-.52-.53-.23-1,2.64-4.14,5.83-7.57,10.87-8.71a9.71,9.71,0,0,1,6.08.66c4.45,1.92,8.21,4.86,11.86,8a183.56,183.56,0,0,1,18.82,18.7l-1.05,0H84.61Z"/></g></g></svg>