<svg xmlns="http://www.w3.org/2000/svg" viewBox="0 0 265.37 300"><defs><style>.cls-1{fill:#ff4b55;}.cls-2{fill:#fdfefe;}.cls-3{fill:#fbfdfd;}.cls-4{fill:#47a4ad;}</style></defs><title>Ресурс 13</title><g id="Слой_2" data-name="Слой 2"><g id="Слой_1-2" data-name="Слой 1"><path class="cls-1" d="M265.37,189.79V85.32a20.69,20.69,0,0,0-8.87-17c-.48-.33-1-.65-1.47-.94l-13.9-8-1.55-.89-11.45-6.61h0l-10.48-6L162,13.72,150.26,7h0L143,2.77a20.68,20.68,0,0,0-20.68,0l-7.21,4.17L103.39,13.7,47.74,45.85,30.19,56l-13,7.51h0l-6.85,4c-.5.29-1,.6-1.43.92A20.66,20.66,0,0,0,0,85.36V214.68a20.69,20.69,0,0,0,8.87,17c.48.33,1,.65,1.47.94l13.7,7.9h0l13,7.51h0l10.66,6.16,55.67,32.12L115.11,293h0l7.26,4.19a20.67,20.67,0,0,0,20.68,0l7.21-4.17L162,286.3l55.65-32.15,16-9.25,13-7.51,8.39-4.84c.49-.29,1-.6,1.43-.92a20.67,20.67,0,0,0,8.9-17Z"/><path class="cls-2" d="M45.11,76.3a24.32,24.32,0,0,1,4.66.25c.93.24,1.41-.36,2-.75.4-.27,0-.56-.22-.78a2.33,2.33,0,0,1-.8-1.69c0-.36.11-.72.51-.86a.72.72,0,0,1,.9.41c.38.74,1.09,1,1.72,1.48a8.63,8.63,0,0,1,3.26,5.14c.06.25-.11.55-.15.82-.29,2.05-.44,4,1.2,5.71a8.07,8.07,0,0,1,2.08,3.45c.11.4.5.59.73.88A15.64,15.64,0,0,0,65,94a1.57,1.57,0,0,1,.62.85,20.2,20.2,0,0,0,2,4.14c.14.26.46.61.18.86s-.67-.06-.93-.26a4.63,4.63,0,0,1-2.19-2.92,1.92,1.92,0,0,0-.35-.77.81.81,0,0,0-1.12-.31.73.73,0,0,0-.35,1,3.48,3.48,0,0,0,.29.69,35.09,35.09,0,0,0,3.53,5.1c.17.22.36.54.65.5s.29-.49.36-.78.09-.45.34-.48.32.14.38.32c.78,2.35,2.38,4.3,3.19,6.66a8.21,8.21,0,0,1-.33,6c-.12.27-.18.74-.56.66s-.28-.52-.35-.82a5.72,5.72,0,0,1,.23-1.79c0-.23.07-.56-.21-.65s-.38.25-.49.45a2.52,2.52,0,0,0-.13,2.08c.29,1,.63,1.9.92,2.85a14.44,14.44,0,0,1,.82,4,7.15,7.15,0,0,0,2.91,6.14,5.29,5.29,0,0,1,2.1,4.18c0,.21,0,.43,0,.64,0,.48-.15,1.22.38,1.29s.42-.69.55-1.11c.28-.85.64-1,1.3-.42a11.69,11.69,0,0,1,2.78,4.28c.3.65-.28,1.06-.6,1.5s-.4.91.22,1.28a4.22,4.22,0,0,0,1.52.74,2.54,2.54,0,0,1,2.18,2.45,12,12,0,0,0,2,5,58.38,58.38,0,0,1,4,8.49,5.59,5.59,0,0,0,1,1.66c2.83,3.15,5,6.78,7.5,10.16a82.28,82.28,0,0,1,8.31,12.83,8.38,8.38,0,0,0,5.18,4.37c1.76.56,3.05,1.46,3.39,3.43a10.05,10.05,0,0,0,.74,1.77,2.76,2.76,0,0,1,.34,1.58,5.15,5.15,0,0,1-1.64-1.27,28.38,28.38,0,0,0-6.48-4.89,25.64,25.64,0,0,1-3.55-2.39c-2.66-2.19-5.62-1.93-8.64-1a16.54,16.54,0,0,0-4.6,2.21,10.61,10.61,0,0,1-.9.58c-2.31,1.28-2.34,1.32-2.06,3.94.09.82.23,1.63.33,2.44a11.9,11.9,0,0,1-.44,5.39,46.59,46.59,0,0,0-1.22,5.41.41.41,0,0,0,0,.22c.93,4.86.93,9.89,2.55,14.63.39,1.11.85,2.2,1.33,3.27A7.93,7.93,0,0,0,95.18,224a26.74,26.74,0,0,1,4.22,3.29,9,9,0,0,1,3,4.18,12,12,0,0,0,2.13,3.82,6,6,0,0,0,5.69,2.53,3.23,3.23,0,0,1,3.55,1.8,32.55,32.55,0,0,1,2.66,6.76,1.57,1.57,0,0,1,0,.83,11.28,11.28,0,0,0-.26,3.52c0,.78,0,1.57-.11,2.35,0,.31-.11.7-.45.79s-.53-.29-.71-.54a4.18,4.18,0,0,1-.37-.65,20.07,20.07,0,0,0-2.07-3.73,5.68,5.68,0,0,1-1-3.32c-.09-1.58-.39-1.8-1.94-1.37a1.29,1.29,0,0,0-.21.05c-2.62,1.22-5,.73-7.41-.74a3.19,3.19,0,0,0-4.29,1.74,12.85,12.85,0,0,0-.54,3.27c-.15,2.92.11,5.86-.14,8.78a7.93,7.93,0,0,1-1.5,4.61s0,.14-.1.19c-.3.29.06,1-.5,1s-.63-.7-.85-1.14-.47-1-1.26-1.1c-.55-.05-.69-.76-.85-1.26-.55-1.74-1.07-3.48-1.61-5.22a11.29,11.29,0,0,0-1.61-3.24A3.87,3.87,0,0,1,88,247.5a4.18,4.18,0,0,0,.23-1.26c0-1.94.9-3.65,1.55-5.39a3.35,3.35,0,0,0-.85-4A14.64,14.64,0,0,1,84.54,229a27.46,27.46,0,0,1-.36-4c0-1.5-.14-3-.09-4.5A14.87,14.87,0,0,0,80,209.82a13.83,13.83,0,0,1-1.61-2.26,10.12,10.12,0,0,0-3.93-4.25c-1.64-.88-1.6-1.08-.31-2.37a4.49,4.49,0,0,0,1.31-4.21,77.92,77.92,0,0,1-1-10.12,31,31,0,0,0-1.95-9.18A29.73,29.73,0,0,1,71,171.65a15.41,15.41,0,0,0-1.39-4c-1.35-3-2.63-6.09-3.9-9.15a5.15,5.15,0,0,1-.28-2.64c.19-1.52.41-3,.64-4.56.09-.58.24-1.16,1.08-1,.31.07.69.08.81-.31s-.13-.62-.38-.82a11.59,11.59,0,0,1-2.63-3.36,4,4,0,0,1-.72-2,.93.93,0,0,0-.86-.95,2.09,2.09,0,0,1-1.66-1.35,1.51,1.51,0,0,0-1.14-.85,7,7,0,0,1-4.63-4.53c-.34-1.57-1-2.92-2.67-3.43-.5-.15-.52-.65-.59-1.06-.33-2-.62-4-1-5.92-.13-.77-.15-1.7-1.36-1.66-.28,0-.43-.36-.58-.6a3.07,3.07,0,0,1,.7-4.14,1.73,1.73,0,0,0,.28-1.91,26.22,26.22,0,0,1-1.26-5.74c-.18-4-1.72-7.55-3.62-11a3.61,3.61,0,0,1,.49-4.61c.9-1,1.53-2.22,2.91-2.75.63-.24.93-.13,1.06.51s.32,1.4.4,2.1c.11.89.51.9,1.14.49s1.2-.76,1.79-1.17a2,2,0,0,0,.59-.61,5.62,5.62,0,0,0-.4-4.2,1,1,0,0,1-.23-1.16c.21-.37.57,0,.85.07a1.05,1.05,0,0,0,1.45-.71,4.7,4.7,0,0,0,.31-1.89c0-.3.1-.71-.34-.8s-.56.28-.72.54-.42.83-.64,1.24c-.13.25-.26.59-.59.53s-.37-.43-.4-.7c-.07-.57-.11-1.14-.13-1.71a13.17,13.17,0,0,0-.17-2.66c-.15-.7-.28-1.32-1.2-1.35a2.23,2.23,0,0,1-1-.47A36.16,36.16,0,0,1,45.11,76.3Z"/><path class="cls-3" d="M162.14,219c.41,2.22-1,3.54-2.75,4.29-2.73,1.2-4.27,3.31-5.53,5.82a15.09,15.09,0,0,1-2.22,3.27,4.14,4.14,0,0,1-3,1.68,1.77,1.77,0,0,0-1.71,1.4,9.25,9.25,0,0,1-1.26,2.7,20.9,20.9,0,0,0-2.24,4.73c-.81,2.67-3,4.18-4.85,6-.25.24-.52.27-.68-.09a5,5,0,0,1-.61-2.46s0-.09,0-.11c1-.68,1.08-2.07,2-2.71.7-.47.84-.92.49-1.59a1.75,1.75,0,0,1,.32-2.08,18.25,18.25,0,0,0,2.81-5.22c.4-1.46.69-2.44,2.29-2.59a.45.45,0,0,0,.33-.25c.51-1.74,2.27-3,1.86-5.09a.34.34,0,0,1,0-.1c.11-1.78.75-2.13,2.2-1.05a2,2,0,0,0,2.63.07c1.32-1,2.71-1.84,3-3.81s3.37-4.74,5.49-5.08c1-.17,1.33.09,1.37,1.15C162.15,218.18,162.14,218.54,162.14,219Z"/><path class="cls-3" d="M211.81,88.86c-.06-.22.11-.31.24-.42a27.51,27.51,0,0,0,2.5-2.79,3,3,0,0,1,1.7-1.21,1.32,1.32,0,0,0,1-1.16,8.64,8.64,0,0,0-.22-4.65c-.56-1.68.34-3.07.91-4.49.24-.58.78,0,1,.2a10.25,10.25,0,0,1,2.2,3.13c.41.83,1,1.64-.11,2.42-.28.2-.19.6-.13.92a8.7,8.7,0,0,0,.25,1.15,6.67,6.67,0,0,1-1.1,6.45,8,8,0,0,0-1.81,3.71c-.1.68-.74.68-1.27.73-.73.06-1.5-.17-2.18.32-.34.24-.53,0-.64-.32a9.07,9.07,0,0,1-.41-1.21,2.68,2.68,0,0,0-1.43-2.13A.94.94,0,0,1,211.81,88.86Z"/><path class="cls-3" d="M180.33,194.57c.72,0,1,.24.59,1.06a20.34,20.34,0,0,1-2.49,4.46,5.47,5.47,0,0,0-1.12,3.07,4,4,0,0,1-1.27,2.3c-.7.82-1.45,1.59-2.15,2.4a5,5,0,0,0-.91,1.66,6,6,0,0,1-3,3.34c-.29.15-.63.29-.91.07s-.13-.55-.06-.81a16.66,16.66,0,0,0,.44-3,2,2,0,0,1,1.48-2,3.39,3.39,0,0,0,.39-.18c1.57-.72,1.63-.73,1.49-2.45-.21-2.37,1.25-3.78,2.85-5.08a2.34,2.34,0,0,0,1.15-2C176.67,195.34,178,194.89,180.33,194.57Z"/><path class="cls-3" d="M133.72,251.89c-.1.69-.23,1.37-.91,1.53-2.27.53-3.84,2.24-5.8,3.29-.06,0-.15.07-.17.12-.68,1.6-2.36,2.73-2.27,4.7a3.2,3.2,0,0,1-.84,2.26c-.37.43-.73.88-1.14,1.28a4.1,4.1,0,0,0-1.3,3.37,15.52,15.52,0,0,1,0,2.36c0,.52-.31.74-.75.27a2.89,2.89,0,0,0-1.39-.74.88.88,0,0,1-.63-1.33,11.28,11.28,0,0,1,2.27-3.71,6.74,6.74,0,0,0,1.79-3.25c.78-3,2.31-5.67,3.2-8.61a6.89,6.89,0,0,1,.76-1.41.8.8,0,0,1,1.09-.41c1.4.7,2.71.25,4-.19a6.55,6.55,0,0,1,1.24-.28A.66.66,0,0,1,133.72,251.89Z"/><path class="cls-3" d="M211.71,107.72a15.31,15.31,0,0,1,.39-3.1,2,2,0,0,0-.28-1.53c-.2-.45-.06-.64.4-.73,1.44-.29,2.22.36,2,1.81a8.41,8.41,0,0,0,.7,3.85,2.35,2.35,0,0,1-.79,2.67,1.47,1.47,0,0,1-1.59.33,1.19,1.19,0,0,1-.72-1.2C211.8,109,211.74,108.26,211.71,107.72Z"/><path class="cls-3" d="M220.2,73a3.9,3.9,0,0,1,2.66-3.18,1,1,0,0,1,1.18.7,5,5,0,0,1-1.11,5.68.55.55,0,0,1-.82.06A3.77,3.77,0,0,1,220.2,73Z"/><path class="cls-3" d="M194.29,176.12a1.44,1.44,0,0,1-.91-.24c-.39-.31-.52-.62.06-.84,1.23-.46,1.6-1.43,2-2.62.6-1.71,1.27-3.39,1.76-5.13a1.56,1.56,0,0,1,.43-.72c.51-.46,1.19-1,1.78-.62s0,1-.27,1.51c-1.11,2.38-1.46,5-2.76,7.35A2.16,2.16,0,0,1,194.29,176.12Z"/><path class="cls-3" d="M139.55,264.49a1.89,1.89,0,0,1-1.57-.95.59.59,0,0,1,.16-.92,34.67,34.67,0,0,0,3-2.35,2.05,2.05,0,0,1,.76-.36,1,1,0,0,1,1,.25c.33.34.09.7-.11,1-.76,1-1.16,2.27-2.3,3A1.68,1.68,0,0,1,139.55,264.49Z"/><path class="cls-3" d="M208.76,123.66c0-.67.06-1.17.11-1.66a1.62,1.62,0,0,1,.86-1.28,1.14,1.14,0,0,1,1.2-.14c.45.27.35.74.29,1.16a7.79,7.79,0,0,1-.72,1.65c-.28.69-.52,1.4-.8,2.09-.07.19-.18.42-.44.39s-.33-.27-.35-.47C208.83,124.77,208.8,124.13,208.76,123.66Z"/><path class="cls-3" d="M210.91,77.07c-1.28,0-1.93-.42-1.9-1.19s1-1.35,1.92-1.34A1.53,1.53,0,0,1,212.58,76C212.51,77.15,211.53,76.92,210.91,77.07Z"/><path class="cls-3" d="M203.45,150.83c.08-.49.15-1,.23-1.46,0-.25.11-.5.42-.53s.51.24.6.5a3.2,3.2,0,0,1,0,2.28c-.13.35-.3.81-.77.73s-.4-.53-.43-.88,0-.42,0-.63Z"/><path class="cls-3" d="M218.31,120.09c-.25,0-.56-.08-.87-.16a.58.58,0,0,1-.45-.52.63.63,0,0,1,.36-.7,2.24,2.24,0,0,1,1.84-.19c.41.15.82.35.79.86s-.5.52-.87.62A7.17,7.17,0,0,1,218.31,120.09Z"/><path class="cls-3" d="M130.15,274.55l1-.13c0-.56-.4-1.23.34-1.59a1,1,0,0,1,1.26.27.67.67,0,0,1,.09.87,1.07,1.07,0,0,1-1.6.45c-.24.3.27.81-.28.92s-.59-.46-.77-.82Z"/><path class="cls-3" d="M212.31,113.83c.59.19,1.45.13,1.47,1,0,.68-.65.89-1.23.9s-1.14-.24-1.15-1C211.4,114.23,211.61,113.81,212.31,113.83Z"/><path class="cls-3" d="M215.15,135.9c0-.49.09-.91.69-.81s1.32.25,1.36,1-.54,1-1.16,1C215.23,137.11,215.18,136.49,215.15,135.9Z"/><path class="cls-3" d="M207.61,121.29c0,.89-.54,1.17-1.29,1.21-.34,0-.76.06-.83-.44s1.11-1.67,1.55-1.63S207.62,120.87,207.61,121.29Z"/><path class="cls-3" d="M206.14,114.09c-.55-.13-1.35-.07-1.34-.87,0-.6.66-.67,1.16-.65s1.33.2,1.35.92S206.61,114,206.14,114.09Z"/><path class="cls-3" d="M205.43,103.7a1.74,1.74,0,0,1-1.33-1.47c0-.4.27-.83.59-.74.75.22,1,1,1.18,1.64A.42.42,0,0,1,205.43,103.7Z"/><path class="cls-3" d="M200.26,159.74a2,2,0,0,1,1.09,1.32c.11.5-.37.63-.76.66a1,1,0,0,1-1.17-.95C199.36,160.23,199.81,160,200.26,159.74Z"/><path class="cls-3" d="M204,141.31c.59,0,1.44.86,1.4,1.41,0,.34-.2.72-.59.56a2.16,2.16,0,0,1-1.35-1.52C203.34,141.37,203.66,141.3,204,141.31Z"/><path class="cls-3" d="M180.07,183.45c-.56-.06-1.13-.09-1.2-.72s.47-.77.94-.76,1.1.18,1.14.86S180.39,183.34,180.07,183.45Z"/><path class="cls-3" d="M132.87,272.18c-.6,0-1.12,0-1.13-.64s.38-.88,1-.9a.9.9,0,0,1,1.07.92C133.79,272.27,133.16,272.08,132.87,272.18Z"/><path class="cls-3" d="M184.87,186c-.16.44-.39.8-.83.76a1,1,0,0,1-.95-.88c0-.5.5-.56.87-.57A.83.83,0,0,1,184.87,186Z"/><path class="cls-3" d="M130.17,274.52c-.33-.19-.63.22-1,0a1,1,0,0,1-.55-.95.56.56,0,0,1,.58-.63.78.78,0,0,1,.85.65,4.63,4.63,0,0,1,.1.92Z"/><path class="cls-3" d="M209.21,91.35c-.27-.09-.83-.08-.72-.51s.79-.66,1.3-.78.4.29.4.56C210.17,91.23,209.79,91.39,209.21,91.35Z"/><path class="cls-3" d="M201.44,137.9a1.81,1.81,0,0,1,1.5-.35c.28.09.54.28.5.6s-.38.38-.66.36A2.45,2.45,0,0,1,201.44,137.9Z"/><path class="cls-3" d="M202.82,154.42a1.41,1.41,0,0,1,.87,1.1.47.47,0,0,1-.5.56c-.56-.1-.58-.66-.7-1.09C202.42,154.75,202.42,154.48,202.82,154.42Z"/><path class="cls-3" d="M184,188.07c0,.4,0,.75-.47.74a.86.86,0,0,1-.79-.75c-.08-.42.34-.5.63-.56C183.84,187.4,184,187.72,184,188.07Z"/><path class="cls-3" d="M210.09,129.87c-.85.61-1.46.73-2.11,0A2.76,2.76,0,0,1,210.09,129.87Z"/><path class="cls-4" d="M265.36,173.87V85.32a20.69,20.69,0,0,0-8.87-17c-.48-.33-1-.65-1.47-.94l-13.9-8-1.55-.89-11.45-6.61h0l-10.48-6L162,13.72,150.26,7h0L143,2.77a20.68,20.68,0,0,0-20.68,0l-7.21,4.17L103.39,13.7,47.74,45.85,30.19,56l-13,7.51h0l-6.85,4c-.5.29-1,.6-1.43.92A20.66,20.66,0,0,0,0,85.36V214.68a20.69,20.69,0,0,0,8.87,17c.48.33,1,.65,1.47.94l13.7,7.9h0l13,7.51h0l10.66,6.16,55.67,32.12L115.11,293h0l7.26,4.19a20.67,20.67,0,0,0,20.68,0l7.21-4.17L162,286.3l55.65-32.15,16-9.25,13-7.51,8.39-4.84c.49-.29,1-.6,1.43-.92a20.67,20.67,0,0,0,8.9-17V173.87ZM210.93,74.54A1.53,1.53,0,0,1,212.58,76c-.07,1.16-1.05.93-1.67,1.08-1.28,0-1.93-.42-1.9-1.19S210,74.53,210.93,74.54Zm-2.44,16.3c.15-.54.79-.66,1.3-.78s.4.29.4.56c0,.61-.4.77-1,.73C208.94,91.26,208.38,91.27,208.49,90.84Zm-1.18,22.65c0,.68-.7.51-1.17.6-.56-.13-1.35-.07-1.34-.87,0-.6.66-.67,1.16-.65S207.29,112.77,207.31,113.49Zm-2.62-12c.75.22,1,1,1.18,1.64a.42.42,0,0,1-.44.57,1.74,1.74,0,0,1-1.33-1.47C204.11,101.83,204.37,101.4,204.69,101.49ZM179.81,182c.55,0,1.1.18,1.14.86s-.56.51-.88.62c-.56-.06-1.13-.09-1.2-.72S179.34,182,179.81,182Zm-62.52,9.73a5,5,0,0,1-1.64-1.27,28.71,28.71,0,0,0-6.48-4.9,24.72,24.72,0,0,1-3.55-2.38c-2.66-2.19-5.62-1.93-8.64-1a16.54,16.54,0,0,0-4.6,2.21,10.61,10.61,0,0,1-.9.58c-2.31,1.28-2.34,1.32-2.06,3.94.09.82.23,1.63.33,2.44a11.9,11.9,0,0,1-.44,5.39,46.59,46.59,0,0,0-1.22,5.41.41.41,0,0,0,0,.22c.93,4.86.93,9.89,2.55,14.63.39,1.11.85,2.2,1.33,3.27A7.93,7.93,0,0,0,95.18,224a26.74,26.74,0,0,1,4.22,3.29,9,9,0,0,1,3,4.18,12,12,0,0,0,2.13,3.82,6,6,0,0,0,5.69,2.53,3.23,3.23,0,0,1,3.55,1.8,32.55,32.55,0,0,1,2.66,6.76,1.57,1.57,0,0,1,0,.83,11.28,11.28,0,0,0-.26,3.52c0,.78,0,1.57-.11,2.35,0,.31-.11.7-.45.79s-.53-.29-.71-.54a4.18,4.18,0,0,1-.37-.65,20.07,20.07,0,0,0-2.07-3.73,5.68,5.68,0,0,1-1-3.32c-.09-1.58-.39-1.8-1.94-1.37a1.29,1.29,0,0,0-.21.05c-2.62,1.22-5,.73-7.41-.74a3.19,3.19,0,0,0-4.29,1.74,12.85,12.85,0,0,0-.54,3.27c-.15,2.92.11,5.86-.14,8.78a7.93,7.93,0,0,1-1.5,4.61s0,.14-.1.19c-.3.29.06,1-.5,1s-.63-.7-.85-1.14-.47-1-1.26-1.1c-.55-.05-.69-.76-.85-1.26-.55-1.74-1.07-3.48-1.61-5.22a11.29,11.29,0,0,0-1.61-3.24A3.87,3.87,0,0,1,88,247.5a4.18,4.18,0,0,0,.23-1.26c0-1.94.9-3.65,1.55-5.39a3.35,3.35,0,0,0-.85-4A14.64,14.64,0,0,1,84.54,229a27.46,27.46,0,0,1-.36-4c0-1.5-.14-3-.09-4.5A14.87,14.87,0,0,0,80,209.82a13.83,13.83,0,0,1-1.61-2.26,10.12,10.12,0,0,0-3.93-4.25c-1.64-.88-1.6-1.08-.31-2.37a4.49,4.49,0,0,0,1.31-4.21,77.92,77.92,0,0,1-1-10.12,31,31,0,0,0-1.95-9.18A29.73,29.73,0,0,1,71,171.65a15.41,15.41,0,0,0-1.39-4c-1.35-3-2.63-6.09-3.9-9.15a5.15,5.15,0,0,1-.28-2.64c.19-1.52.41-3,.64-4.56.09-.58.24-1.16,1.08-1,.31.07.69.08.81-.31s-.13-.62-.38-.82a11.59,11.59,0,0,1-2.63-3.36,4,4,0,0,1-.72-2,.93.93,0,0,0-.86-.95,2.09,2.09,0,0,1-1.66-1.35,1.51,1.51,0,0,0-1.14-.85,7,7,0,0,1-4.63-4.53c-.34-1.57-1-2.92-2.67-3.43-.5-.15-.52-.65-.59-1.06-.33-2-.62-4-1-5.92-.13-.77-.15-1.7-1.36-1.66-.28,0-.43-.36-.58-.6a3.07,3.07,0,0,1,.7-4.14,1.73,1.73,0,0,0,.28-1.91,26.22,26.22,0,0,1-1.26-5.74c-.18-4-1.72-7.55-3.62-11a3.61,3.61,0,0,1,.49-4.61c.9-1,1.53-2.22,2.91-2.75.63-.24.93-.13,1.06.51s.32,1.4.4,2.1c.11.89.51.9,1.14.49s1.2-.76,1.79-1.17a2,2,0,0,0,.59-.61,5.62,5.62,0,0,0-.4-4.2,1,1,0,0,1-.23-1.16c.21-.37.57,0,.85.07a1.05,1.05,0,0,0,1.45-.71,4.7,4.7,0,0,0,.31-1.89c0-.3.1-.71-.34-.8s-.56.28-.72.54-.42.83-.64,1.24c-.13.25-.26.59-.59.53s-.37-.43-.4-.7c-.07-.57-.11-1.14-.13-1.71a13.17,13.17,0,0,0-.17-2.66c-.15-.7-.28-1.32-1.2-1.35a2.23,2.23,0,0,1-1-.47,36.58,36.58,0,0,1-5.94-5.09,24.32,24.32,0,0,1,4.66.25c.93.24,1.41-.36,2-.75.4-.27,0-.56-.22-.78a2.33,2.33,0,0,1-.8-1.69c0-.36.11-.72.51-.86a.72.72,0,0,1,.9.41c.38.74,1.09,1,1.72,1.48a8.63,8.63,0,0,1,3.26,5.14c.06.25-.11.55-.15.82-.29,2.05-.44,4,1.2,5.71a8.07,8.07,0,0,1,2.08,3.45c.11.4.5.59.73.88A15.64,15.64,0,0,0,65,94a1.57,1.57,0,0,1,.62.85,20.2,20.2,0,0,0,2,4.14c.14.26.46.61.18.86s-.67-.06-.93-.26a4.63,4.63,0,0,1-2.19-2.92,1.92,1.92,0,0,0-.35-.77.81.81,0,0,0-1.12-.31.73.73,0,0,0-.35,1,3.48,3.48,0,0,0,.29.69,35.09,35.09,0,0,0,3.53,5.1c.17.22.36.54.65.5s.29-.49.36-.78.09-.45.34-.48.32.14.38.32c.78,2.35,2.38,4.3,3.19,6.66a8.21,8.21,0,0,1-.33,6c-.12.27-.18.74-.56.66s-.28-.52-.35-.82a5.72,5.72,0,0,1,.23-1.79c0-.23.07-.56-.21-.65s-.38.25-.49.45a2.52,2.52,0,0,0-.13,2.08c.29,1,.63,1.9.92,2.85a14.44,14.44,0,0,1,.82,4,7.15,7.15,0,0,0,2.91,6.14,5.29,5.29,0,0,1,2.1,4.18c0,.21,0,.43,0,.64,0,.48-.15,1.22.38,1.29s.42-.69.55-1.11c.28-.85.64-1,1.3-.42a11.69,11.69,0,0,1,2.78,4.28c.3.65-.28,1.06-.6,1.5s-.4.91.22,1.28a4.22,4.22,0,0,0,1.52.74,2.53,2.53,0,0,1,2.18,2.45,12,12,0,0,0,2,5,58.38,58.38,0,0,1,4,8.49,5.59,5.59,0,0,0,1,1.66c2.83,3.15,5,6.78,7.5,10.16a82.28,82.28,0,0,1,8.31,12.83,8.38,8.38,0,0,0,5.18,4.37c1.76.56,3.05,1.46,3.39,3.43a10.05,10.05,0,0,0,.74,1.77A2.76,2.76,0,0,1,117.29,191.7Zm9.55,65.13c-.68,1.6-2.36,2.73-2.27,4.7a3.2,3.2,0,0,1-.84,2.26c-.37.43-.73.88-1.14,1.28a4.1,4.1,0,0,0-1.3,3.37,15.52,15.52,0,0,1,0,2.36c0,.52-.31.74-.75.27a2.89,2.89,0,0,0-1.39-.74.88.88,0,0,1-.63-1.33,11.28,11.28,0,0,1,2.27-3.71,6.74,6.74,0,0,0,1.79-3.25c.78-3,2.31-5.67,3.2-8.61a6.89,6.89,0,0,1,.76-1.41.8.8,0,0,1,1.09-.41c1.4.7,2.71.25,4-.19a6.55,6.55,0,0,1,1.24-.28.66.66,0,0,1,.84.75c-.1.69-.23,1.37-.91,1.53-2.27.53-3.84,2.24-5.8,3.29C127,256.74,126.86,256.77,126.84,256.83Zm2.33,17.73a1,1,0,0,1-.55-.95.56.56,0,0,1,.58-.63.78.78,0,0,1,.85.65,3.74,3.74,0,0,1,.1.89C129.82,274.35,129.53,274.74,129.17,274.56Zm3.65-.59a1.07,1.07,0,0,1-1.6.45c-.24.3.27.81-.28.92s-.6-.44-.76-.8l.95-.12c0-.56-.4-1.23.34-1.59a1,1,0,0,1,1.26.27A.67.67,0,0,1,132.82,274Zm.05-1.79c-.6,0-1.12,0-1.13-.64s.38-.88,1-.9a.9.9,0,0,1,1.07.92C133.79,272.27,133.16,272.08,132.87,272.18Zm9.95-11.06c-.76,1-1.16,2.27-2.3,3a1.68,1.68,0,0,1-1,.4,1.89,1.89,0,0,1-1.57-.95.59.59,0,0,1,.16-.92,34.67,34.67,0,0,0,3-2.35,2.05,2.05,0,0,1,.76-.36,1,1,0,0,1,1,.25C143.26,260.5,143,260.86,142.82,261.12Zm16.57-37.87c-2.73,1.2-4.27,3.31-5.53,5.82a15.09,15.09,0,0,1-2.22,3.27,4.14,4.14,0,0,1-3,1.68,1.77,1.77,0,0,0-1.71,1.4,9.25,9.25,0,0,1-1.26,2.7,20.9,20.9,0,0,0-2.24,4.73c-.81,2.67-3,4.18-4.85,6-.25.24-.52.27-.68-.09a5,5,0,0,1-.61-2.46s0-.09,0-.11c1-.68,1.08-2.07,2-2.71.7-.47.84-.92.49-1.59a1.75,1.75,0,0,1,.32-2.08,18.25,18.25,0,0,0,2.81-5.22c.4-1.46.69-2.44,2.29-2.59a.45.45,0,0,0,.33-.25c.51-1.74,2.27-3,1.86-5.09a.34.34,0,0,1,0-.1c.11-1.78.75-2.13,2.2-1.05a2,2,0,0,0,2.63.07c1.32-1,2.71-1.84,3-3.81s3.37-4.74,5.49-5.08c1-.17,1.33.09,1.37,1.15,0,.35,0,.71,0,1.13C162.55,221.18,161.1,222.5,159.39,223.25Zm21.53-27.62a20.34,20.34,0,0,1-2.49,4.46,5.47,5.47,0,0,0-1.12,3.07,4,4,0,0,1-1.27,2.3c-.7.82-1.45,1.59-2.15,2.39a5.11,5.11,0,0,0-.91,1.67,6,6,0,0,1-3,3.34c-.29.15-.63.29-.91.07s-.13-.55-.06-.81a16.66,16.66,0,0,0,.44-3,2,2,0,0,1,1.48-2,3.39,3.39,0,0,0,.39-.18c1.57-.72,1.63-.73,1.49-2.45-.21-2.37,1.25-3.78,2.85-5.08a2.34,2.34,0,0,0,1.15-2c-.13-2.09,1.15-2.54,3.53-2.86C181.05,194.6,181.29,194.81,180.92,195.63Zm2.62-6.83a.84.84,0,0,1-.79-.74c-.08-.42.34-.5.63-.56.46-.1.61.22.63.57S184,188.82,183.54,188.8Zm.5-2a1,1,0,0,1-.95-.88c0-.5.5-.56.87-.57a.83.83,0,0,1,.91.69C184.71,186.48,184.48,186.84,184,186.8Zm15.13-19.34c-1.11,2.38-1.46,5-2.76,7.35a2.16,2.16,0,0,1-2.12,1.31,1.44,1.44,0,0,1-.91-.24c-.39-.31-.52-.62.06-.84,1.23-.46,1.6-1.43,2-2.62.6-1.71,1.27-3.39,1.76-5.13a1.56,1.56,0,0,1,.43-.72c.51-.46,1.19-1,1.78-.62S199.4,167,199.17,167.46Zm1.42-5.74a1,1,0,0,1-1.17-.95c-.06-.54.39-.78.84-1a2,2,0,0,1,1.09,1.32C201.46,161.56,201,161.69,200.59,161.72Zm2.35-24.17c.28.09.54.28.5.6s-.38.38-.66.36a2.45,2.45,0,0,1-1.34-.61A1.81,1.81,0,0,1,202.94,137.55Zm.25,18.53c-.56-.1-.58-.66-.7-1.09-.07-.24-.07-.51.33-.57a1.41,1.41,0,0,1,.87,1.1A.47.47,0,0,1,203.19,156.08Zm1.53-4.46c-.13.35-.3.81-.77.73s-.4-.53-.43-.88,0-.42,0-.63h-.07c.08-.49.15-1,.23-1.46,0-.25.11-.5.42-.53s.51.24.6.5A3.2,3.2,0,0,1,204.72,151.62Zm.07-8.34a2.16,2.16,0,0,1-1.35-1.52c-.1-.39.22-.46.54-.45.59,0,1.44.86,1.4,1.41C205.35,143.06,205.18,143.44,204.79,143.28Zm1.53-20.78c-.34,0-.76.06-.83-.44s1.11-1.67,1.55-1.63.58.44.57.86C207.64,122.18,207.07,122.46,206.32,122.5Zm1.66,7.34a2.76,2.76,0,0,1,2.11,0C209.24,130.48,208.63,130.6,208,129.84Zm3.24-8.1a7.79,7.79,0,0,1-.72,1.65c-.28.69-.52,1.4-.8,2.09-.07.19-.18.42-.44.39s-.33-.27-.35-.47c-.08-.63-.11-1.27-.15-1.74,0-.67.06-1.17.11-1.66a1.6,1.6,0,0,1,.86-1.28,1.14,1.14,0,0,1,1.2-.14C211.38,120.85,211.28,121.32,211.22,121.74Zm1.33-6c-.62,0-1.14-.24-1.15-1,0-.55.21-1,.91-1,.59.19,1.45.13,1.47,1C213.8,115.54,213.13,115.75,212.55,115.76Zm1.6-5.07a1.47,1.47,0,0,1-1.59.33,1.19,1.19,0,0,1-.72-1.2c0-.78-.1-1.56-.13-2.1a15.31,15.31,0,0,1,.39-3.1,2,2,0,0,0-.28-1.53c-.2-.45-.06-.64.4-.73,1.44-.29,2.22.36,2,1.81a8.41,8.41,0,0,0,.7,3.85A2.35,2.35,0,0,1,214.15,110.69ZM216,137.08c-.81,0-.86-.59-.89-1.18s.09-.91.69-.81,1.32.25,1.36,1S216.66,137.05,216,137.08ZM219.11,120a7.17,7.17,0,0,1-.8.09c-.25,0-.56-.08-.87-.16a.58.58,0,0,1-.45-.52.63.63,0,0,1,.36-.7,2.24,2.24,0,0,1,1.84-.19c.41.15.82.35.79.86S219.48,119.9,219.11,120Zm1.81-39.19a8.7,8.7,0,0,0,.25,1.15,6.67,6.67,0,0,1-1.1,6.45,8,8,0,0,0-1.81,3.71c-.1.68-.74.68-1.27.73-.73.06-1.5-.17-2.18.32-.34.24-.53,0-.64-.32a9.07,9.07,0,0,1-.41-1.21,2.68,2.68,0,0,0-1.43-2.13,1,1,0,0,1-.53-.65c-.05-.22.12-.31.25-.42a27.51,27.51,0,0,0,2.5-2.79,3,3,0,0,1,1.7-1.21,1.32,1.32,0,0,0,1-1.16,8.64,8.64,0,0,0-.22-4.65c-.56-1.68.34-3.07.91-4.49.24-.58.78,0,1,.2a10.25,10.25,0,0,1,2.2,3.13c.41.83,1,1.64-.11,2.42C220.77,80.09,220.86,80.49,220.92,80.81Zm2-4.59a.55.55,0,0,1-.82.06A3.77,3.77,0,0,1,220.2,73a3.9,3.9,0,0,1,2.66-3.18,1,1,0,0,1,1.18.7A5,5,0,0,1,222.93,76.22Z"/></g></g></svg>