<?xml version="1.0" encoding="UTF-8"?>
<!DOCTYPE svg PUBLIC "-//W3C//DTD SVG 1.1//EN" "http://www.w3.org/Graphics/SVG/1.1/DTD/svg11.dtd">
<svg xmlns="http://www.w3.org/2000/svg" version="1.1" width="533px" height="604px" style="shape-rendering:geometricPrecision; text-rendering:geometricPrecision; image-rendering:optimizeQuality; fill-rule:evenodd; clip-rule:evenodd" xmlns:xlink="http://www.w3.org/1999/xlink">
<g><path style="opacity:0.998" fill="#fefeff" d="M 255.5,-0.5 C 261.833,-0.5 268.167,-0.5 274.5,-0.5C 278.068,0.940937 281.734,2.44094 285.5,4C 362.664,48.4142 439.664,93.0808 516.5,138C 523.447,144.39 527.947,152.223 530,161.5C 530.5,241.499 530.667,321.499 530.5,401.5C 354.334,402.5 178.001,402.833 1.5,402.5C 1.5,410.833 1.5,419.167 1.5,427.5C 177.833,427.5 354.167,427.5 530.5,427.5C 531.003,436.155 529.003,444.155 524.5,451.5C 351.5,451.5 178.5,451.5 5.5,451.5C 2.9066,446.991 0.906598,442.325 -0.5,437.5C -0.5,345.5 -0.5,253.5 -0.5,161.5C 2.4652,149.693 9.13187,140.526 19.5,134C 93.9969,91.2526 168.33,48.2526 242.5,5C 246.741,2.6512 251.075,0.817868 255.5,-0.5 Z"/></g>
<g><path style="opacity:1" fill="#3a9aff" d="M 530.5,401.5 C 531.167,401.5 531.833,401.5 532.5,401.5C 532.5,410.167 532.5,418.833 532.5,427.5C 531.833,427.5 531.167,427.5 530.5,427.5C 354.167,427.5 177.833,427.5 1.5,427.5C 1.5,419.167 1.5,410.833 1.5,402.5C 178.001,402.833 354.334,402.5 530.5,401.5 Z"/></g>
<g><path style="opacity:0.993" fill="#3399ff" d="M 5.5,451.5 C 178.5,451.5 351.5,451.5 524.5,451.5C 525.873,451.343 527.207,451.51 528.5,452C 524.886,459.281 519.552,464.948 512.5,469C 437.337,512.081 362.337,555.414 287.5,599C 283.734,600.559 280.068,602.059 276.5,603.5C 270.167,603.5 263.833,603.5 257.5,603.5C 253.932,602.059 250.266,600.559 246.5,599C 170.997,555.081 95.3301,511.414 19.5,468C 13.1803,463.851 8.51365,458.351 5.5,451.5 Z"/></g>
</svg>
