<svg xmlns="http://www.w3.org/2000/svg" viewBox="0 0 265.37 300"><defs><style>.cls-1{fill:#ffd900;}.cls-2{fill:#fff;}.cls-3{fill:#0039a6;}</style></defs><title>Ресурс 14</title><g id="Слой_2" data-name="Слой 2"><g id="Слой_1-2" data-name="Слой 1"><path class="cls-1" d="M265.36,173.87V85.32a20.69,20.69,0,0,0-8.87-17c-.48-.33-1-.65-1.47-.94l-13.9-8-1.55-.89-11.45-6.61h0l-10.48-6L162,13.72,150.26,7h0L143,2.77a20.68,20.68,0,0,0-20.68,0l-7.21,4.17L103.39,13.7,47.74,45.85,30.19,56l-13,7.51h0l-6.85,4c-.5.29-1,.6-1.43.92A20.66,20.66,0,0,0,0,85.36V214.68a20.69,20.69,0,0,0,8.87,17c.48.33,1,.65,1.47.94l13.7,7.9h0l13,7.51h0l10.66,6.16,55.67,32.12L115.11,293h0l7.26,4.19a20.67,20.67,0,0,0,20.68,0l7.21-4.17L162,286.3l55.65-32.15,16-9.25,13-7.51,8.39-4.84c.49-.29,1-.6,1.43-.92a20.67,20.67,0,0,0,8.9-17V173.87Z"/><path class="cls-2" d="M265.36,173.87V85.32a20.69,20.69,0,0,0-8.87-17c-.48-.33-1-.65-1.47-.94l-13.9-8-1.55-.89-11.45-6.61h0l-10.48-6L162,13.72,150.26,7h0L143,2.77a20.68,20.68,0,0,0-20.68,0l-7.21,4.17L103.39,13.7,47.74,45.85,30.19,56l-13,7.51h0l-6.85,4c-.5.29-1,.6-1.43.92A20.66,20.66,0,0,0,0,85.36V214.68a20.63,20.63,0,0,0,3.82,11.95H261.53a20.7,20.7,0,0,0,3.84-12V173.87Z"/><path class="cls-3" d="M265.35,126.13V85.32a20.69,20.69,0,0,0-8.87-17c-.48-.33-1-.65-1.47-.94l-13.9-8-1.55-.89-11.45-6.61h0l-10.48-6L162,13.72,150.26,7h0L143,2.77a20.68,20.68,0,0,0-20.68,0l-7.21,4.17L103.39,13.7,47.74,45.85,30.19,56l-13,7.51h0l-6.85,4c-.5.29-1,.6-1.43.92A20.66,20.66,0,0,0,0,85.36v65.39H265.36Z"/><path class="cls-1" d="M94.66,81.5a40,40,0,1,0,78.6,0,40,40,0,0,1-78.6,0"/><circle class="cls-1" cx="133.96" cy="79" r="30"/><path class="cls-1" d="M133.66,9a10.23,10.23,0,0,0,2.2,4.43,5.65,5.65,0,0,1,.3,4.47c-.23,1.52-.5,3.25.51,4.57s2.08,3.14,1.8,5c0,1.95-1.34,3.75-1.1,5.68.51,1.28,2,2.91,2.8.88,1-1.65-.51-3.48,0-5.23.32-1.73,1.75-3.2,1.38-5.07,0-1.64-2.33-3.2-.55-4.74.63-.72,1.66-2.16,1.57-.33,1.06,1.26,2.3,2.68,2.13,4.46s-.84,3.77.8,5.07c1.68,1.77,3.14,4,3.16,6.51A8.49,8.49,0,0,1,146.9,41c-1.91,1.58-4,3.22-6.47,3.62-1.8.26-3.56.74-4.72,2.24-1.65,1.37-3.28,0-4.3-1.28-1.76-.7-3.73-.51-5.53-1.1A8.91,8.91,0,0,1,120.14,40,14.46,14.46,0,0,1,119,32.57a7.64,7.64,0,0,1,2.58-5.14c1.38-1.22.82-3.2.88-4.8.69-1.8,2.56-2.73,3.58-4.31,1.19-1.47.86,2.09.89,2.83.05,1.3-1.38,2.1-1.1,3.43-.15,1.71,1.86,2.54,2,4.17.74,1.63-1,3.38.1,4.89.55.74,2,2.49,2.17.57a5.15,5.15,0,0,0,0-4.78c-.26-1.73-1.73-3.34-.94-5.11.6-1.61,2.53-2.43,2.65-4.28.25-1.69-.9-3.15-1.13-4.78A5.66,5.66,0,0,1,132.54,10a7.35,7.35,0,0,1,1.12-1Z"/></g></g></svg>