<svg xmlns="http://www.w3.org/2000/svg" viewBox="0 0 265.37 300"><defs><style>.cls-1{fill:#fffefe;}.cls-2{fill:#d20000;}.cls-3{fill:#28166f;}</style></defs><title>Ресурс 7</title><g id="Слой_2" data-name="Слой 2"><g id="Слой_1-2" data-name="Слой 1"><path class="cls-1" d="M265.37,214.64V85.32A20.65,20.65,0,0,0,262,74.07H3.37A20.64,20.64,0,0,0,0,85.36V214.68a20.68,20.68,0,0,0,4,12.19H261.35A20.6,20.6,0,0,0,265.37,214.64ZM116.62,96.73c0-.26,0-.52.08-1.15.68.64,1.14,1.06,1.58,1.5q7.6,7.59,15.19,15.2l.34.33c1.13,1.12,1.13,1.12,2.22,0l8.1-8.1c2.63-2.63,5.25-5.26,7.89-7.88.31-.31.54-.78,1.21-.82,0,.53.07,1,.07,1.55,0,10,0,20,0,29.94a3.41,3.41,0,0,1-1.1,2.64c-5.36,5.3-10.67,10.64-16,16-.26.27-.52.53-.8.78a.63.63,0,0,1-1,0l-.46-.44q-8.28-8.27-16.55-16.54a2.48,2.48,0,0,1-.84-1.95Q116.63,112.26,116.62,96.73Zm-4.79,72.14c-10,0-20.07,0-30.1,0a1.7,1.7,0,0,1-1.3-.24c.12-.66.63-.94,1-1.3q7.69-7.73,15.41-15.43c.12-.11.23-.23.34-.34,1-1.07,1-1.08,0-2.11l-9.8-9.8c-2.06-2.06-4.13-4.12-6.18-6.2-.31-.32-.82-.53-.73-1.17a2.48,2.48,0,0,1,1.52-.17c9.87,0,19.75,0,29.62,0a3.79,3.79,0,0,1,2.94,1.23c5.3,5.36,10.64,10.67,16,16l.33.35c.78.83.8.84,0,1.64-1.11,1.14-2.25,2.26-3.37,3.38-4.36,4.36-8.72,8.69-13,13.07A3.39,3.39,0,0,1,111.83,168.87Zm41.45,35.85a1.69,1.69,0,0,1-.12.4c-.67-.15-.94-.65-1.3-1q-7.77-7.76-15.53-15.54c-.27-.26-.54-.51-.79-.78a.72.72,0,0,0-1.22,0c-.21.24-.44.45-.67.68q-7.77,7.75-15.53,15.54a13.88,13.88,0,0,0-.93,1.16c-.74-.28-.57-.72-.57-1.05q0-15.52,0-31a2.37,2.37,0,0,1,.77-1.81L134,154.62c.88-.87.94-.88,1.78,0q8.4,8.39,16.78,16.77a2,2,0,0,1,.71,1.51Q153.28,188.8,153.28,204.72Zm35.13-35.87c-10.13,0-20.27,0-30.4,0a3.26,3.26,0,0,1-2.52-1.07q-8.07-8.13-16.19-16.21c-.15-.15-.29-.32-.45-.45-.51-.44-.51-.85,0-1.33,1.1-1.07,2.18-2.17,3.26-3.26,4.43-4.42,8.87-8.84,13.26-13.29a3.57,3.57,0,0,1,2.79-1.19c10,0,19.95,0,29.93,0a3.2,3.2,0,0,1,1.42.15c-.14.7-.66,1-1.05,1.41q-7.63,7.66-15.3,15.31c-.3.3-.58.62-.9.9a.72.72,0,0,0,0,1.21c.31.28.6.6.9.9q7.65,7.65,15.3,15.31c.39.39.93.7,1,1.32C189.16,169,188.75,168.85,188.41,168.85Z"/><path class="cls-2" d="M8.91,68.37a20.57,20.57,0,0,0-5.54,5.7H262a20.71,20.71,0,0,0-5.52-5.72c-.48-.33-1-.65-1.47-.94l-13.9-8-1.55-.89-11.45-6.61h0l-10.48-6L162,13.72,150.26,7h0L143,2.77a20.68,20.68,0,0,0-20.68,0l-7.21,4.17L103.39,13.7,47.74,45.85,30.19,56l-13,7.51h0l-6.85,4C9.84,67.74,9.37,68.05,8.91,68.37Z"/><path class="cls-3" d="M122.37,297.23a20.67,20.67,0,0,0,20.68,0l7.21-4.17L162,286.3l55.65-32.15,16-9.25,13-7.51,8.39-4.84c.49-.29,1-.6,1.43-.92a20.82,20.82,0,0,0,4.88-4.76H4a20.91,20.91,0,0,0,4.88,4.78c.48.33,1,.65,1.47.94l13.7,7.9h0l13,7.51h0l10.66,6.16,55.67,32.12L115.11,293h0Z"/><path class="cls-2" d="M80.43,168.61c.12-.66.63-.94,1-1.3q7.69-7.73,15.41-15.43c.12-.11.23-.23.34-.34,1-1.07,1-1.08,0-2.11l-9.8-9.8c-2.06-2.06-4.13-4.12-6.18-6.2-.31-.32-.82-.53-.73-1.17a2.48,2.48,0,0,1,1.52-.17c9.87,0,19.75,0,29.62,0a3.79,3.79,0,0,1,2.94,1.23c5.3,5.36,10.64,10.67,16,16l.33.35c.78.83.8.84,0,1.64-1.11,1.14-2.25,2.26-3.37,3.38-4.36,4.36-8.72,8.69-13,13.07a3.39,3.39,0,0,1-2.65,1.14c-10,0-20.07,0-30.1,0A1.7,1.7,0,0,1,80.43,168.61Z"/><path class="cls-2" d="M189.5,132.24c-.14.7-.66,1-1.05,1.41q-7.63,7.66-15.3,15.31c-.3.3-.58.62-.9.9a.72.72,0,0,0,0,1.21c.31.28.6.6.9.9q7.65,7.65,15.3,15.31c.39.39.93.7,1,1.32-.31.4-.72.25-1.06.25-10.13,0-20.27,0-30.4,0a3.26,3.26,0,0,1-2.52-1.07q-8.07-8.13-16.19-16.21c-.15-.15-.29-.32-.45-.45-.51-.44-.51-.85,0-1.33,1.1-1.07,2.18-2.17,3.26-3.26,4.43-4.42,8.87-8.84,13.26-13.29a3.57,3.57,0,0,1,2.79-1.19c10,0,19.95,0,29.93,0A3.2,3.2,0,0,1,189.5,132.24Z"/><path class="cls-2" d="M116.7,95.58c.68.64,1.14,1.06,1.58,1.5q7.6,7.59,15.19,15.2l.34.33c1.13,1.12,1.13,1.12,2.22,0l8.1-8.1c2.63-2.63,5.25-5.26,7.89-7.88.31-.31.54-.78,1.21-.82,0,.53.07,1,.07,1.55,0,10,0,20,0,29.94a3.41,3.41,0,0,1-1.1,2.64c-5.36,5.3-10.67,10.64-16,16-.26.27-.52.53-.8.78a.63.63,0,0,1-1,0l-.46-.44q-8.28-8.27-16.55-16.54a2.48,2.48,0,0,1-.84-1.95q0-15.52,0-31C116.62,96.47,116.65,96.21,116.7,95.58Z"/><path class="cls-2" d="M153.16,205.12c-.67-.15-.94-.65-1.3-1q-7.77-7.76-15.53-15.54c-.27-.26-.54-.51-.79-.78a.72.72,0,0,0-1.22,0c-.21.24-.44.45-.67.68q-7.77,7.75-15.53,15.54a13.88,13.88,0,0,0-.93,1.16c-.74-.28-.57-.72-.57-1.05q0-15.52,0-31a2.37,2.37,0,0,1,.77-1.81L134,154.62c.88-.87.94-.88,1.78,0q8.4,8.39,16.78,16.77a2,2,0,0,1,.71,1.51q0,15.93,0,31.85A1.69,1.69,0,0,1,153.16,205.12Z"/></g></g></svg>