<svg xmlns="http://www.w3.org/2000/svg" viewBox="0 0 265.37 300"><defs><style>.cls-1{fill:#ffc72c;}.cls-2{fill:#009cdd;}.cls-3{fill:#fff;stroke:#009cdd;stroke-linecap:round;stroke-linejoin:round;stroke-width:1.92px;}</style></defs><title>Ресурс 30</title><g id="Слой_2" data-name="Слой 2"><g id="Слой_1-2" data-name="Слой 1"><path class="cls-1" d="M265.36,173.87V85.32a20.69,20.69,0,0,0-8.87-17c-.48-.33-1-.65-1.47-.94l-13.9-8-1.55-.89-11.45-6.61h0l-10.48-6L162,13.72,150.26,7h0L143,2.77a20.68,20.68,0,0,0-20.68,0l-7.21,4.17L103.39,13.7,47.74,45.85,30.19,56l-13,7.51h0l-6.85,4c-.5.29-1,.6-1.43.92A20.66,20.66,0,0,0,0,85.36V214.68a20.69,20.69,0,0,0,8.87,17c.48.33,1,.65,1.47.94l13.7,7.9h0l13,7.51h0l10.66,6.16,55.67,32.12L115.11,293h0l7.26,4.19a20.67,20.67,0,0,0,20.68,0l7.21-4.17L162,286.3l55.65-32.15,16-9.25,13-7.51,8.39-4.84c.49-.29,1-.6,1.43-.92a20.67,20.67,0,0,0,8.9-17V173.87Z"/><circle class="cls-2" cx="132.96" cy="151" r="88.74"/><path class="cls-3" d="M105.52,145.93c-4.78-16.54-11.38-24.48-26.11-31.55-11.28,28.59,9.56,46.09,28.4,47C85.24,160.28,83.24,143,52,158.27c27.06,28.49,39.2,15.2,63.11,7.55C98.25,171.18,87.35,179,84,193.94c19.8,2.1,38.16,1.53,49-24.87,10.81,26.49,29.17,27,49,24.87-3.25-14.83-14.25-22.76-31.08-28.12,23.91,7.65,36.15,20.94,63.12-7.55-31.27-15.3-33.28,1.91-55.85,3.06,18.74-.86,39.69-18.36,28.4-47-14.72,7.07-21.32,15-26.1,31.55"/><path class="cls-3" d="M114.6,159.61c-16.73-14.06-22.76-35.38-9.56-53.36,10.71,7.65,15.87,17.31,20.27,35.67m26.2,17.69c16.74-14.06,22.76-35.38,9.57-53.36-10.71,7.65-15.88,17.31-20.28,35.67"/><path class="cls-3" d="M141,160c8.71-18.36,8.23-43.32-7.93-56.23-16.16,13-16.74,37.87-7.94,56.23"/></g></g></svg>