<svg xmlns="http://www.w3.org/2000/svg" viewBox="0 0 265.37 300"><defs><style>.cls-1{fill:#fefefe;}.cls-2{fill:#0075bb;}.cls-3{fill:#b22428;}</style></defs><title>Ресурс 3</title><g id="Слой_2" data-name="Слой 2"><g id="Слой_1-2" data-name="Слой 1"><path class="cls-1" d="M265.37,189.79V89.3H0V211.94q132.68,0,265.35,0Zm-102-37.71c7.21,7.13,14.34,14.35,21.55,21.48,1.07,1.06,1.06,1.64,0,2.66-3.54,3.41-7,6.9-10.43,10.42-.71.73-1.06.8-1.8.06q-9.76-9.85-19.6-19.62c-.8-.79-.87-1.42,0-2.2,1-1,2-1.93,3-3s1.38-.74,2.16.06c4.66,4.73,9.36,9.42,14.05,14.12a2.17,2.17,0,0,0,3.57-1c.13-.47-.23-.69-.48-.94-5.91-5.92-11.84-11.82-17.72-17.76-.77-.78-1.16-.56-1.82.1q-7.81,7.89-15.72,15.69c-1,.95-.7,1.45.11,2.26q8.43,8.35,16.76,16.8c.81.82,1.35,1,2.09,0s1.89-1.32.45-2.7c-4.66-4.46-9.14-9.1-13.78-13.58-1.27-1.22-1.64-2.06-.06-3.24,1.31-1,2.18-3.21,3.62-3.09,1.23.1,2.33,2,3.46,3.11,5.59,5.58,11.16,11.2,16.79,16.74.94.93,1,1.48.06,2.43q-5,5.15-9.88,10.42c-.91,1-1.4,1-2.36,0-7.18-7.25-14.45-14.4-21.61-21.66-1.13-1.15-1.7-1.09-2.8,0-7,7.13-14.19,14.15-21.23,21.28-1.12,1.13-1.71,1.12-2.8,0-3.3-3.46-6.7-6.83-10.13-10.15-.87-.85-1-1.29-.09-2.23q9.61-9.47,19.1-19.05c1-1,1.71-1.3,2.71,0A16.81,16.81,0,0,0,123,172c1.1.87,1,1.47,0,2.4-4.67,4.55-9.27,9.16-13.89,13.76a2.17,2.17,0,0,0,.9,3.72c.58.2.81-.27,1.1-.55,5.87-5.87,11.71-11.76,17.6-17.61.74-.74.64-1.16-.05-1.84q-7.93-7.89-15.82-15.86c-.66-.66-1.17-.76-1.9,0q-8.57,8.63-17.19,17.19c-1.43,1.42.29,1.74.75,2.5.62,1,1.2.76,1.93,0,4.57-4.64,9.22-9.21,13.74-13.89,1.29-1.34,2.17-1.63,3.38,0,.92,1.27,3.06,2.11,3,3.49-.08,1.17-1.89,2.24-3,3.32-5.59,5.59-11.21,11.14-16.76,16.76-1,1-1.59,1.25-2.72.12-3.35-3.33-6.8-6.55-10.29-9.74-1-.92-1-1.4,0-2.36,7.29-7.23,14.49-14.54,21.78-21.76,1-1,1.1-1.45,0-2.49-7.17-7.09-14.23-14.28-21.41-21.36-1.18-1.17-1.24-1.79,0-3,3.52-3.34,6.93-6.8,10.31-10.27.7-.72,1-.83,1.8-.08q9.75,9.85,19.59,19.62c1,.94.71,1.57-.1,2.34a26.48,26.48,0,0,0-2.71,2.69c-.92,1.16-1.53.86-2.41,0-4.52-4.6-9.09-9.15-13.64-13.72-1.56-1.57-2.71-1.36-3.75.59-.32.61.11.82.39,1.1,5.91,5.92,11.83,11.82,17.71,17.77.77.77,1.16.56,1.82-.11q7.81-7.87,15.71-15.69c.8-.79.92-1.28,0-2.14q-8.58-8.48-17-17c-.86-.87-1.39-.65-1.94.15s-2,1.17-.6,2.54c4.76,4.63,9.38,9.4,14.16,14,1.19,1.15,1.19,1.83-.06,2.81s-2.26,3.34-3.74,3.25c-1.26-.08-2.4-2.08-3.57-3.24-5.51-5.49-11-11-16.54-16.46-1-1-1.21-1.6-.09-2.72,3.34-3.34,6.57-6.79,9.76-10.27.9-1,1.37-1,2.35,0,7.22,7.29,14.53,14.5,21.75,21.79,1,1,1.46,1.09,2.49,0,7-7.13,14.21-14.14,21.22-21.29,1.33-1.35,2-1.21,3.22.07,3.28,3.47,6.7,6.82,10.12,10.16.71.7.79,1.06,0,1.8q-9.78,9.69-19.48,19.46c-.85.85-1.47,1.06-2.29,0a26.18,26.18,0,0,0-1.88-1.92c-2.06-2.12-2-2.11.13-4.26,4.35-4.32,8.67-8.67,13.08-12.93,1.07-1,.91-1.61-.08-2.58s-1.45-1.17-2.52-.08c-5.58,5.71-11.23,11.34-16.91,17-.92.9-1.05,1.42-.05,2.4Q148.32,137.23,156,145c.87.89,1.41.89,2.3,0,5.56-5.63,11.14-11.23,16.8-16.76,1.14-1.12.53-1.6-.25-2.39s-1.24-1.43-2.37-.27c-4.57,4.72-9.25,9.34-13.9,14-.44.45-.92.85-1.43,1.31-.37-.31-.68-.53-.94-.79-1.13-1.12-2.23-2.29-3.4-3.37-.62-.59-.56-.95,0-1.53q10-9.9,19.9-19.87c.63-.63,1-.7,1.71,0,3.69,3.53,7.39,7,11.15,10.5,1,1,.26,1.37-.32,2-7.29,7.31-14.55,14.65-21.9,21.9C162.3,150.67,162.41,151.12,163.39,152.08Z"/><path class="cls-2" d="M265.35,85.32a20.69,20.69,0,0,0-8.87-17c-.48-.33-1-.65-1.47-.94l-13.9-8-1.55-.89-11.45-6.61h0l-10.48-6L162,13.72,150.26,7h0L143,2.77a20.68,20.68,0,0,0-20.68,0l-7.21,4.17L103.39,13.7,47.74,45.85,30.19,56l-13,7.51h0l-6.85,4c-.5.29-1,.6-1.43.92A20.66,20.66,0,0,0,0,85.36V89.3H265.35Z"/><path class="cls-3" d="M0,214.68a20.69,20.69,0,0,0,8.87,17c.48.33,1,.65,1.47.94l13.7,7.9h0l13,7.51h0l10.66,6.16,55.67,32.12L115.11,293h0l7.26,4.19a20.67,20.67,0,0,0,20.68,0l7.21-4.17L162,286.3l55.65-32.15,16-9.25,13-7.51,8.39-4.84c.49-.29,1-.6,1.43-.92a20.67,20.67,0,0,0,8.9-17V212Q132.7,212,0,211.94Z"/><path class="cls-3" d="M157.12,140.89c-.37-.31-.68-.53-.94-.79-1.13-1.12-2.23-2.29-3.4-3.37-.62-.59-.56-.95,0-1.53q10-9.9,19.9-19.87c.63-.63,1-.7,1.71,0,3.69,3.53,7.39,7,11.15,10.5,1,1,.26,1.37-.32,2-7.29,7.31-14.55,14.65-21.9,21.9-1,1-.94,1.49,0,2.45,7.21,7.13,14.34,14.35,21.55,21.48,1.07,1.06,1.06,1.64,0,2.66-3.54,3.41-7,6.9-10.43,10.42-.71.73-1.06.8-1.8.06q-9.76-9.85-19.6-19.62c-.8-.79-.87-1.42,0-2.2,1-1,2-1.93,3-3s1.38-.74,2.16.06c4.66,4.73,9.36,9.42,14.05,14.12a2.17,2.17,0,0,0,3.57-1c.13-.47-.23-.69-.48-.94-5.91-5.92-11.84-11.82-17.72-17.76-.77-.78-1.16-.56-1.82.1q-7.81,7.89-15.72,15.69c-1,.95-.7,1.45.11,2.26q8.43,8.35,16.76,16.8c.81.82,1.35,1,2.09,0s1.89-1.32.45-2.7c-4.66-4.46-9.14-9.1-13.78-13.58-1.27-1.22-1.64-2.06-.06-3.24,1.31-1,2.18-3.21,3.62-3.09,1.23.1,2.33,2,3.46,3.11,5.59,5.58,11.16,11.2,16.79,16.74.94.93,1,1.48.06,2.43q-5,5.15-9.88,10.42c-.91,1-1.4,1-2.36,0-7.18-7.25-14.45-14.4-21.61-21.66-1.13-1.15-1.7-1.09-2.8,0-7,7.13-14.19,14.15-21.23,21.28-1.12,1.13-1.71,1.12-2.8,0-3.3-3.46-6.7-6.83-10.13-10.15-.87-.85-1-1.29-.09-2.23q9.61-9.47,19.1-19.05c1-1,1.71-1.3,2.71,0A16.81,16.81,0,0,0,123,172c1.1.87,1,1.47,0,2.4-4.67,4.55-9.27,9.16-13.89,13.76a2.17,2.17,0,0,0,.9,3.72c.58.2.81-.27,1.1-.55,5.87-5.87,11.71-11.76,17.6-17.61.74-.74.64-1.16-.05-1.84q-7.93-7.89-15.82-15.86c-.66-.66-1.17-.76-1.9,0q-8.57,8.63-17.19,17.19c-1.43,1.42.29,1.74.75,2.5.62,1,1.2.76,1.93,0,4.57-4.64,9.22-9.21,13.74-13.89,1.29-1.34,2.17-1.63,3.38,0,.92,1.27,3.06,2.11,3,3.49-.08,1.17-1.89,2.24-3,3.32-5.59,5.59-11.21,11.14-16.76,16.76-1,1-1.59,1.25-2.72.12-3.35-3.33-6.8-6.55-10.29-9.74-1-.92-1-1.4,0-2.36,7.29-7.23,14.49-14.54,21.78-21.76,1-1,1.1-1.45,0-2.49-7.17-7.09-14.23-14.28-21.41-21.36-1.18-1.17-1.24-1.79,0-3,3.52-3.34,6.93-6.8,10.31-10.27.7-.72,1-.83,1.8-.08q9.75,9.85,19.59,19.62c1,.94.71,1.57-.1,2.34a26.48,26.48,0,0,0-2.71,2.69c-.92,1.16-1.53.86-2.41,0-4.52-4.6-9.09-9.15-13.64-13.72-1.56-1.57-2.71-1.36-3.75.59-.32.61.11.82.39,1.1,5.91,5.92,11.83,11.82,17.71,17.77.77.77,1.16.56,1.82-.11q7.81-7.87,15.71-15.69c.8-.79.92-1.28,0-2.14q-8.58-8.48-17-17c-.86-.87-1.39-.65-1.94.15s-2,1.17-.6,2.54c4.76,4.63,9.38,9.4,14.16,14,1.19,1.15,1.19,1.83-.06,2.81s-2.26,3.34-3.74,3.25c-1.26-.08-2.4-2.08-3.57-3.24-5.51-5.49-11-11-16.54-16.46-1-1-1.21-1.6-.09-2.72,3.34-3.34,6.57-6.79,9.76-10.27.9-1,1.37-1,2.35,0,7.22,7.29,14.53,14.5,21.75,21.79,1,1,1.46,1.09,2.49,0,7-7.13,14.21-14.14,21.22-21.29,1.33-1.35,2-1.21,3.22.07,3.28,3.47,6.7,6.82,10.12,10.16.71.7.79,1.06,0,1.8q-9.78,9.69-19.48,19.46c-.85.85-1.47,1.06-2.29,0a26.18,26.18,0,0,0-1.88-1.92c-2.06-2.12-2-2.11.13-4.26,4.35-4.32,8.67-8.67,13.08-12.93,1.07-1,.91-1.61-.08-2.58s-1.45-1.17-2.52-.08c-5.58,5.71-11.23,11.34-16.91,17-.92.9-1.05,1.42-.05,2.4Q148.32,137.23,156,145c.87.89,1.41.89,2.3,0,5.56-5.63,11.14-11.23,16.8-16.76,1.14-1.12.53-1.6-.25-2.39s-1.24-1.43-2.37-.27c-4.57,4.72-9.25,9.34-13.9,14C158.11,140,157.63,140.43,157.12,140.89Zm-22.44-7.76c-.61,0-.84.47-1.14.77-5.23,5.22-10.43,10.48-15.69,15.67-.84.82-.86,1.28,0,2.11q7.89,7.8,15.67,15.7c.87.89,1.32.74,2.11,0q7.71-7.83,15.53-15.56c.88-.87.92-1.37,0-2.26-5.22-5.14-10.38-10.35-15.56-15.53C135.29,133.67,135,133.38,134.68,133.13Z"/><path class="cls-1" d="M134.68,133.13c.28.25.61.54.92.85,5.18,5.18,10.34,10.39,15.56,15.53.9.89.86,1.39,0,2.26q-7.81,7.71-15.53,15.56c-.79.79-1.24.94-2.11,0q-7.77-7.9-15.67-15.7c-.84-.83-.82-1.29,0-2.11,5.26-5.19,10.46-10.45,15.69-15.67C133.84,133.6,134.07,133.16,134.68,133.13Zm-.32,5.14a6.09,6.09,0,0,0-.51.41c-3.74,3.74-7.47,7.49-11.23,11.21-.64.63-.47,1,.08,1.56q5.51,5.45,11,11c.62.63,1,.76,1.69.06q5.43-5.52,11-11c.63-.62.75-1,.06-1.7-3.68-3.62-7.32-7.29-11-10.94C135.12,138.61,134.92,138.25,134.36,138.27Z"/><path class="cls-3" d="M134.36,138.27c.56,0,.76.34,1,.6,3.65,3.65,7.29,7.32,11,10.94.69.68.57,1.08-.06,1.7q-5.51,5.43-11,11c-.69.7-1.07.57-1.69-.06q-5.44-5.51-11-11c-.55-.54-.72-.93-.08-1.56,3.76-3.72,7.49-7.47,11.23-11.21A6.09,6.09,0,0,1,134.36,138.27Z"/></g></g></svg>