<svg xmlns="http://www.w3.org/2000/svg" viewBox="0 0 265.37 300"><defs><style>.cls-1{fill:#fefefe;}.cls-2{fill:#d20106;}.cls-3{fill:#d20207;}</style></defs><title>Ресурс 11</title><g id="Слой_2" data-name="Слой 2"><g id="Слой_1-2" data-name="Слой 1"><path class="cls-1" d="M234.86,55.79l-6.75-3.9h0l-10.48-6L162,13.72,150.26,7h0L143,2.77a20.68,20.68,0,0,0-20.68,0l-7.21,4.17L103.39,13.7,47.74,45.85,30.27,55.94V244.08l6.8,3.92h0l10.66,6.16,55.67,32.12L115.11,293h0l7.26,4.19a20.67,20.67,0,0,0,20.68,0l7.21-4.17L162,286.3l55.65-32.15,16-9.25,1.22-.7ZM215.37,179.05q-26.24,0-52.46,0c-1.49,0-2,.3-2,1.91.07,17.54,0,35.08,0,52.63v1.88c-.74.08-1-.54-1.33-.9q-12.94-12.92-25.83-25.87c-1-1-1.47-1.05-2.48,0-8.57,8.67-17.2,17.26-25.82,25.88-.35.35-.72.69-1.37,1.31v-2.05c0-17.6,0-35.2,0-52.8,0-1.5-.31-2-1.91-2-17.43.06-34.86,0-52.29,0h-2c-.06-.87.58-1.16,1-1.56q12.78-12.83,25.61-25.6c1-1,1.06-1.46,0-2.47-8.58-8.5-17.09-17.05-25.63-25.59-.38-.39-.74-.81-1.19-1.28a3,3,0,0,1,2-.32q26.22,0,52.46,0c1.5,0,2-.31,2-1.91-.06-17.54,0-35.09,0-52.63V65.83c.75-.07,1,.55,1.33.91q12.88,12.84,25.71,25.75c1,1.05,1.6,1.18,2.73,0,8.55-8.67,17.19-17.26,25.8-25.88L161,65.46v2.05c0,17.6,0,35.2,0,52.8,0,1.51.33,2,1.91,2,17.43-.06,34.86,0,52.29,0h2.17a3.15,3.15,0,0,1-1.2,1.69q-12.74,12.77-25.5,25.48c-1,1-1.07,1.45,0,2.47,8.58,8.49,17.09,17,25.63,25.59.38.38.74.8,1.18,1.27A2.91,2.91,0,0,1,215.37,179.05Z"/><path d="M30.19,56l-13,7.51h0l-6.85,4c-.5.29-1,.6-1.43.92A20.66,20.66,0,0,0,0,85.36V214.68a20.69,20.69,0,0,0,8.87,17c.48.33,1,.65,1.47.94l13.7,7.9h0l6.21,3.59V55.94Z"/><path class="cls-2" d="M246.65,237.39l8.39-4.84c.49-.29,1-.6,1.43-.92a20.67,20.67,0,0,0,8.9-17V85.32a20.69,20.69,0,0,0-8.87-17c-.48-.33-1-.65-1.47-.94l-13.9-8-1.55-.89-4.7-2.71V244.2Z"/><path class="cls-3" d="M217.32,122.23a3.15,3.15,0,0,1-1.2,1.69q-12.74,12.77-25.5,25.48c-1,1-1.07,1.45,0,2.47,8.58,8.49,17.09,17,25.63,25.59.38.38.74.8,1.18,1.27a2.91,2.91,0,0,1-2,.32q-26.24,0-52.46,0c-1.49,0-2,.3-2,1.91.07,17.54,0,35.08,0,52.63v1.88c-.74.08-1-.54-1.33-.9q-12.94-12.92-25.83-25.87c-1-1-1.47-1.05-2.48,0-8.57,8.67-17.2,17.26-25.82,25.88-.35.35-.72.69-1.37,1.31v-2.05c0-17.6,0-35.2,0-52.8,0-1.5-.31-2-1.91-2-17.43.06-34.86,0-52.29,0h-2c-.06-.87.58-1.16,1-1.56q12.78-12.83,25.61-25.6c1-1,1.06-1.46,0-2.47-8.58-8.5-17.09-17.05-25.63-25.59-.38-.39-.74-.81-1.19-1.28a3,3,0,0,1,2-.32q26.22,0,52.46,0c1.5,0,2-.31,2-1.91-.06-17.54,0-35.09,0-52.63V65.83c.75-.07,1,.55,1.33.91q12.88,12.84,25.71,25.75c1,1.05,1.6,1.18,2.73,0,8.55-8.67,17.19-17.26,25.8-25.88L161,65.46v2.05c0,17.6,0,35.2,0,52.8,0,1.51.33,2,1.91,2,17.43-.06,34.86,0,52.29,0Z"/></g></g></svg>