<svg xmlns="http://www.w3.org/2000/svg" viewBox="0 0 265.37 299.81"><defs><style>.cls-1{fill:#1198fe;}.cls-2{fill:#009800;}.cls-3{fill:#fefefe;}.cls-4{fill:#fe2200;}</style></defs><title>Ресурс 2</title><g id="Слой_2" data-name="Слой 2"><g id="Слой_1-2" data-name="Слой 1"><path class="cls-1" d="M265.37,214.45V85.13a20.67,20.67,0,0,0-8.87-17c-.48-.34-1-.65-1.47-1l-13.9-8-1.55-.89L228.11,51.7h0l-10.48-6L162,13.53,150.26,6.77h0L143,2.58A20.51,20.51,0,0,0,135.43,0h-5.54a20.51,20.51,0,0,0-7.57,2.58l-7.21,4.17-11.72,6.76L47.74,45.66,30.19,55.79l-13,7.52h0l-6.85,4c-.5.29-1,.6-1.43.92A20.66,20.66,0,0,0,0,85.17V214.5A20.67,20.67,0,0,0,2.91,225H262.46A20.68,20.68,0,0,0,265.37,214.45Zm-132-41a60.92,60.92,0,1,1,60.74-60.92A61,61,0,0,1,133.36,173.44Z"/><path class="cls-2" d="M62.55,262.52l40.85,23.57,11.71,6.76h0l7.26,4.19a20.67,20.67,0,0,0,20.68,0l7.21-4.17L162,286.11l40.84-23.59Z"/><path class="cls-3" d="M2.91,225a20.86,20.86,0,0,0,6,6.44c.48.33,1,.65,1.47.94l13.7,7.9h0l6,3.47H235.28l11.37-6.57,8.39-4.84c.49-.29,1-.6,1.43-.92a20.72,20.72,0,0,0,6-6.42Z"/><path class="cls-4" d="M30.06,243.77l7,4h0L47.73,254l14.82,8.55H202.82L217.63,254l16-9.25,1.64-.94Z"/><path class="cls-3" d="M133.36,173.44a60.92,60.92,0,1,1,60.74-60.92A61,61,0,0,1,133.36,173.44Z"/></g></g></svg>