<svg xmlns="http://www.w3.org/2000/svg" viewBox="0 0 265.37 300"><defs><style>.cls-1{fill:#c00;}.cls-2{fill:#5b4431;}.cls-3{fill:#007cc3;}.cls-4{fill:#fbdd73;}.cls-5{fill:#1f1a17;}.cls-6{fill:#de411a;}.cls-7{fill:#fff;}.cls-8{fill:#007436;}.cls-9{fill:#0080ff;}</style></defs><title>Ресурс 12</title><g id="Слой_2" data-name="Слой 2"><g id="Слой_1-2" data-name="Слой 1"><path class="cls-1" d="M265.36,173.87V85.32a20.69,20.69,0,0,0-8.87-17c-.48-.33-1-.65-1.47-.94l-13.9-8-1.55-.89-11.45-6.61h0l-10.48-6L162,13.72,150.26,7h0L143,2.77a20.68,20.68,0,0,0-20.68,0l-7.21,4.17L103.39,13.7,47.74,45.85,30.19,56l-13,7.51h0l-6.85,4c-.5.29-1,.6-1.43.92A20.66,20.66,0,0,0,0,85.36V214.68a20.69,20.69,0,0,0,8.87,17c.48.33,1,.65,1.47.94l13.7,7.9h0l13,7.51h0l10.66,6.16,55.67,32.12L115.11,293h0l7.26,4.19a20.67,20.67,0,0,0,20.68,0l7.21-4.17L162,286.3l55.65-32.15,16-9.25,13-7.51,8.39-4.84c.49-.29,1-.6,1.43-.92a20.67,20.67,0,0,0,8.9-17V173.87Z"/><path class="cls-2" d="M150,213.86a19.39,19.39,0,0,0-7.67,1.66c-.61.22-1.2.43-1.69.58a35.52,35.52,0,0,1-3.73,1,21.7,21.7,0,0,1-4.19.37,29.35,29.35,0,0,1-4.16-.37,36.87,36.87,0,0,1-3.73-1c-.52-.15-1.07-.36-1.68-.58a19.52,19.52,0,0,0-7.68-1.66l-.06-.09-.55-.77-.76.52-.31.22-.76.55.55.77.15.25-2-2.43-.06-.68-.06-.95-1,.09h-.18l-.31-.34-.4.34a5.26,5.26,0,0,0-1.83-1.17l-.12-1.23-.1-.95-.91.09-.37,0-1,.09.09.92v.13l-.7.73a4.72,4.72,0,0,0-.89.19l-1.16-4.37-.24-.92-.92.25-.37.09-.89.24.25.93,1,3.84-.77-.61-2.44-6.8-.31-.86-.88.31-.34.12-.89.34.31.86,1.13,3.13-.28-.24-3-6.61-.4-.83-.83.4-.33.15-.86.4.4.83.12.31-2.33-4.06-.45-.83-.8.49-.34.18-.36.22a.54.54,0,0,0-.31-.09l-1.8-2.62-.52-.77-.77.56-.3.21-.77.53.52.77.67.95c-.7,0-1.43,0-2.26.09l1.41-3.87,0-.71-1.2-2.58L85,183l.31-.86-.86-.33-.37-.13-.85-.3-.34.86-1.62,4.48L80.46,185l2.36-6.58.34-.89-.89-.31-.34-.12-.88-.34-.31.89-1.62,4.46-.74-1.57,1.26-7.1.15-.92-.92-.16-.36-.06-.92-.15-.15.92L76.73,177l-.39-.89.61-7.2L77,168l-1-.1-.37,0-.91-.09-.1,1L74.44,172l-.15-.31v-8.25H72.05v1.21l-.39-4.59-.1-.95-.91.09-.4,0-.61.06L69.06,156l-.16-.92-.42,0c.33-.52.67-1.08,1-1.63,1-1.66,1.9-3.51,2.73-5.29l4.16-1.82.82-.4-.37-.86-.18-.33-.37-.87-.85.4-1.9.87,1-2.37,3.09-2.25.76-.52-.52-.77-.21-.31-.55-.77-.67.44-.58.42.61-1.53,2.44-2.06.74-.59-.61-.74-.25-.27-.58-.71.52-1.29,1.47-1.48.67-.64-.67-.68-.28-.28-.64-.64-.89.86,3-3.57.58-.71-.7-.61-.28-.25-.46-.4,1.93-2.76.52-.77-.76-.56-.31-.21-.73-.53.09-.18h0l1.47-4.06.33-.86-.88-.34-.34-.12-.89-.31-.3.86-1.72,4.71v0l-.42-3.79L79.67,111l2.26.4.92.15.15-.92.09-.37.16-.92-.92-.15-1.9-.34.43-1.17.12-.34h6.21v-2.24H82.27l.79-.56,7.16-.61.92-.1-.06-.92,0-.37-.09-1-.92.09-3.31.28.31-.19,7.13-1.29.91-.15-.15-.92L94.87,99l-.18-.93-.92.16-.31.06,4.5-1.2.89-.25L98.63,96l-.12-.37L98.36,95l.52-.19,3.54,1.66.83.4.4-.86.15-.34.4-.86-.83-.37-1.5-.7.55-.22-.33-.86-.12-.37,0-.12,5.68,1.54.89.21.25-.89.09-.37.24-.89-.88-.25-3.86-1,.92-.34,7.06,1.26.92.18.15-1,.07-.37.18-.89-.92-.19-3.27-.58.34-.09,7.24.61.92.1.09-1,0-.37.07-.92-.92-.09-.25,0h5.51V84.94l3.36-.31,1-.06-.09-.95,0-.37-.06-.89.15-.09,4-1.48.88-.31-.3-.89-.15-.34-.31-.89-.89.31-4.89,1.81.21-.21L128,77.5l4.71-1.72,4.71,1.72L140,80.27l.19.21-4.9-1.81-.85-.31-.34.89-.12.34-.31.89.86.31,4.07,1.48h0l.18.09-.06.89-.06.37-.06.95.91.06,3.4.31v1.91h5.5l-.24,0-1,.09.09.92,0,.37.1,1,.91-.1,7.25-.61.31.09-3.24.58-.92.19.15.89.06.37.19,1,.91-.18,7.07-1.26.89.34-3.83,1-.89.25.22.89.12.37.22.89.91-.21,5.69-1.54-.06.12-.12.37-.31.86.55.22-1.5.7-.82.37.4.86.15.34.4.86.82-.4,3.52-1.66L167,95l-.15.61-.09.37-.25.89.92.25,4.49,1.2-.33-.06-.92-.16-.15.93-.06.37-.16.92.92.15,7.13,1.29.27.19-3.27-.28-.92-.09-.09,1,0,.37-.09.92.95.1,7.15.61.77.56h-4.9v2.24h6.21l.12.34.43,1.17-1.89.34-.92.15.15.92.06.37.19.92.88-.15,2.3-.4,1.25,3.44-.43,3.79v0l-1.71-4.71-.31-.86-.88.31-.34.12-.89.34.31.86,1.47,4.06.06.18-.73.53-.31.21-.77.56.56.77,1.92,2.76-.46.4-.27.25-.74.61.62.71,3,3.57-.85-.86-.68.64-.24.28-.67.68.67.64,1.44,1.48.55,1.29-.58.71-.25.27-.61.74.7.59,2.45,2.06.64,1.53-.58-.42-.67-.44-.55.77-.22.31-.52.77.77.52,3.09,2.25,1,2.37-1.9-.87-.86-.4-.39.87-.16.33-.39.86.85.4,4.16,1.82c.83,1.78,1.78,3.63,2.72,5.29.31.55.65,1.11,1,1.63l-.43,0-.18.92-.58,3.35-.61-.06-.37,0-.92-.09-.09.95-.4,4.59v-1.21h-2.23v8.25l-.15.31-.31-3.29-.06-1-.95.09-.36,0-.92.1.06.92.64,7.2-.4.89-.7-3.94-.15-.92-.92.15-.37.06-.91.16.15.92,1.25,7.1-.73,1.57-1.62-4.46-.34-.89-.86.34-.33.12-.89.31.31.89,2.38,6.58-.79,1.72-1.62-4.48-.31-.86-.89.3-.33.13-.89.33.34.86,2.38,6.59-1.19,2.58,0,.71,1.37,3.87c-.79-.06-1.52-.09-2.23-.09l.64-.95.56-.77-.77-.53-.31-.21-.76-.56-.55.77L177.72,197a.67.67,0,0,0-.3.09l-.34-.22-.33-.18-.8-.49-.49.83-2.32,4.06.15-.31.4-.83-.86-.4-.34-.15-.85-.4-.4.83-3.06,6.61-.27.24,1.13-3.13.34-.86-.89-.34-.34-.12-.88-.31-.31.86-2.48,6.8-.73.61,1-3.84.24-.93-.92-.24-.36-.09-.89-.25-.24.92-1.17,4.37a5.17,5.17,0,0,0-.88-.19l-.74-.73,0-.13.06-.92-.91-.09-.37,0-.95-.09-.06.95-.12,1.23a5.69,5.69,0,0,0-1.87,1.17l-.39-.34-.28.34h-.18l-.95-.09-.09.95,0,.68-2.05,2.43.18-.25.55-.77-.76-.55-.31-.22-.8-.52-.52.77-.06.09ZM145.39,58h-.47l-.41.49-.25.28-.58.71-.18-.09-3-1.39h-2.13l-.18.37-.37.83.83.4,4.49,2.12h0l-3.79.09-5.63-2.64-.36-.8-.68.31-.64-.31-.37.8L126,61.78l-3.8-.09h0l4.5-2.12.86-.4-.4-.83L127,58h-2.13l-3,1.39-.19.09-.58-.71-.21-.28-.42-.49H120l-.43.37L117,60.52l-.43-.43-.27-.27-.64-.65-.68.65-3.27,3.32.18-.25.62-.71-.74-.61-.27-.25-.71-.58-.61.71L105.48,67l-.33.16L107,64.46l.55-.77-.76-.55-.31-.22-.76-.52-.55.77-2.45,3.54-.4.21-.36-.4-.13.09.34-.58.46-.8-.8-.46-.33-.22-.8-.46-.46.83-2,3.57a7.28,7.28,0,0,0-2.32,1.17l.15-.4.55-.43-.27-.34.4-1.08.33-.89-.88-.31-.37-.12L95,65.75l-.33.89-.46,1.3L91,70.61l-.74-.55-.3-.22-.77-.52-.55.77-1.93,2.8-.55-.31-.3-.19-.8-.49-.49.83-2,3.51-.91,1a9,9,0,0,1-1.44,1.2c-.49.34-1,.65-1.59,1-2.6,1.47-3.61,3-3.79,4.88l-.46.4-.4.31c.37-.86.7-1.75,1-2.64,1.44-3.94,2.84-8.12,4.31-12.86l.92-4.36-2.57,3.59c-2.66,4.13-5,7.91-7,11.6-.68,1.2-1.32,2.37-2,3.56l-.58-.06-.37,0-1-.09-.09.95-.3,3.73c-.43.86-.83,1.69-1.23,2.55s-.73,1.6-1.07,2.4L64,93.4l-.34.61,0,.44c-.33.79-.7,1.63-1,2.45-.27.37-.58.71-.85,1-2.11,2.49-2.63,4.46-2.18,6.43v.15l-.15.83c-.33,1-.7,2-1,3l-.76-2.62,1.22-7.07.18-.92-.91-.19-.37-.06-.92-.15-.18.92-1.23,7.1-2.26,3-.18.24.92-5.16.15-.93-.92-.15-.37-.06-.91-.19-.16,1-.76,4.24,0,.19-.89.06-.37.06-.94.06.09.95L49,112.1l-.58.09-.37.09-.91.16.15.92.83,4.61-.1-.31-.24-.92-.89.25-.36.09-.92.25.24.92,1.75,6.46a1.44,1.44,0,0,0-.13.4l-.91-2.59-.34-.89-.86.31-.36.15-.86.31.31.86,2.44,6.8-.15.95-1.68-3.63-.4-.83-.86.4-.33.15-.83.4.4.83,3,6.55-.31,1.7-2.72-3.88-.52-.77-.77.53-.3.21-.77.56.52.76,4,5.72-.49,2.8.15.71,1,1.48-.46.12-.36.09-.89.25.25.89.94,3.57-3.33-8-.8-1.88-.91-1.84L40.28,140l0,2.09,2,15.41-.15.09-.79.46.46.8.85,1.51.25,1.87-.22.16-.76.52.55.77.76,1.11.31,2.43-.22.18-.7.59.58.73,1.71,2,3.37,8.18a1.58,1.58,0,0,1,0,.37,9.93,9.93,0,0,0,2,5.78L46.73,183l-.8-.49-.46.83-.18.34-.49.8.83.46,6,3.51.49,1.81L48,187.87l-.79-.46-.49.8-.18.34-.46.8.79.46L53,193.32l.7,2.73.12.37.34.22,4.31,2.49a12.42,12.42,0,0,1,1.17,2.12c.18.4.33.8.49,1.2-2.73-1.54-5.63-3.08-8.78-4.73l-3-1.57,2,3c5.75,5.32,10.7,9.56,15.66,13.32l-.06.15-.4.86.82.4,4.26,2-.31-.09-.89-.34-.3.89-.16.34-.3.89.89.31,6.79,2.49,1.89,1.91.28.27,1.07,1.08L82,226h0l.55.55.43.46,0,0,1,1q-2.94-.18-6.12-.31l-1.89,0-2.14.09,1.89,1,1.81.76c6.54,2.1,12.14,3.69,17.52,4.93V235l-8.74,4.15L84.5,240l1.81.86,2.57,1.2.39.18.83.37,2.45,1.17.45.19.56.27,1.83.86.52.25.83.37,1.71.8.55.27.55.25.12.06,1.59.74.58.28.13,0,.39.21,1.5.68.61.31.4.18.25.09,1.77.87.7.3.46-.61,8.66-12.27h.79a.81.81,0,0,0-.24.37l-.15.34,0,.33.07.25.15.21.27.13.34,0,.46-.06.34-.1c1.68-.43,3.15-.86,4.49-1.26a30.49,30.49,0,0,1,9.27-1.72h.43a30.56,30.56,0,0,1,9.3,1.72c1.34.4,2.81.83,4.49,1.26l.34.1.43.06.36,0,.28-.13.15-.21.06-.25,0-.33-.15-.34a1.72,1.72,0,0,0-.25-.37h.8l8.66,12.27.42.61.71-.3,1.8-.87.22-.09.42-.18.62-.31,1.49-.68.4-.21.12,0,.58-.28,1.6-.74.12-.06.55-.25.55-.27,1.71-.8.8-.37.52-.25,1.86-.86.55-.27.43-.19,2.48-1.17.79-.37.4-.18,2.6-1.2,1.8-.86-1.8-.86L170.32,235v-.46c5.36-1.24,11-2.83,17.5-4.93l1.83-.76,1.9-1-2.14-.09-1.9,0c-2.14.09-4.16.19-6.12.31l1-1v0l.46-.46.52-.55h0l2.39-2.4.55-.52.55-.56.27-.27,1.87-1.91,6.82-2.49.89-.31-.34-.89-.12-.34-.31-.89-.88.34-.31.09,4.22-2,.86-.4-.4-.86-.06-.15c5-3.76,9.88-8,15.66-13.32l2-3-3,1.57c-3.15,1.65-6.06,3.19-8.78,4.73.16-.4.31-.8.49-1.2a12.35,12.35,0,0,1,1.16-2.12l4.32-2.49.33-.22.09-.37.74-2.73,6-3.51.83-.46-.46-.8-.21-.34-.46-.8-.8.46-4.1,2.37.49-1.81,6-3.51.79-.46-.45-.8-.19-.34-.46-.83-.82.49L215.07,185a9.79,9.79,0,0,0,2-5.78v-.37l3.39-8.18,1.68-2,.62-.73-.71-.59-.21-.18.3-2.43.77-1.11.55-.77-.76-.52-.22-.16.25-1.87.85-1.51.46-.8-.82-.46-.13-.09,2-15.41V140l-.06-2.09-.92,1.84-.79,1.88-3.34,8,.95-3.57.25-.89-.92-.25-.34-.09-.46-.12,1-1.48.16-.71-.49-2.8,4-5.72.52-.76-.76-.56-.31-.21-.76-.53-.52.77-2.72,3.88-.31-1.7,3-6.55.4-.83-.86-.4-.34-.15-.82-.4-.4.83L218.62,131l-.19-.95,2.48-6.8.31-.86-.89-.31-.34-.15-.88-.31-.31.89-1,2.59c0-.13-.06-.28-.09-.4l1.71-6.46.25-.92-.89-.25-.37-.09-.88-.25-.25.92-.09.31.83-4.61.15-.92-.92-.16-.37-.09-.61-.09.31-3.39.09-.95-.95-.06-.36-.06-.89-.06-.06-.19-.74-4.24-.18-1-.89.19-.36.06-.95.15.18.93.89,5.16-.15-.24-2.27-3-1.25-7.1-.15-.92-.92.15-.37.06-.92.19.16.92,1.25,7.07-.76,2.62c-.37-1-.71-2-1-3l-.16-.83,0-.15c.46-2,0-3.94-2.14-6.43-.3-.34-.58-.68-.89-1-.33-.82-.67-1.66-1-2.45l0-.44-.33-.61-.12-.12c-.37-.8-.71-1.6-1.08-2.4s-.82-1.69-1.22-2.55l-.34-3.73-.06-.95-.94.09-.37,0-.58.06c-.64-1.19-1.29-2.36-2-3.56-2.08-3.69-4.37-7.47-7-11.6l-2.57-3.59.88,4.36c1.47,4.74,2.88,8.92,4.35,12.86.33.89.67,1.78,1,2.64l-.37-.31-.46-.4c-.18-1.87-1.19-3.41-3.79-4.88-.55-.31-1.1-.62-1.62-1a10.53,10.53,0,0,1-1.44-1.2l-.89-1-2.05-3.51-.46-.83-.79.49-.34.19-.52.31-1.92-2.8-.55-.77-.77.52-.31.22-.73.55-3.18-2.67-.46-1.3-.3-.89-.89.34-.34.12-.89.31.34.89.37,1.08-.25.34.55.43.13.4a7.06,7.06,0,0,0-2.3-1.17l-2-3.57-.46-.83-.82.46-.31.22-.82.46.49.8.33.58-.15-.09-.34.4-.39-.21-2.48-3.54-.52-.77-.77.52-.3.22-.77.55.52.77,1.9,2.71-.31-.16-4.64-5.56-.62-.71-.7.58-.31.25-.7.61.58.71.22.25-3.28-3.32-.67-.65-.64.65-.28.27-.42.43-2.61-2.18-.43-.37Zm-12.72,3.17,5.75,2.67,2.36,3,.15.24-4.71-2.21-.82-.4-.4.86-.16.34-.39.83.85.4,3.92,1.84.15.1-.18.89-.06.37L139,71l.92.15,3.06.53-.15.24-.52.74-.19-.06,0,0-4.06-1.48-.89-.33-.31.89-.12.34-.34.89.89.3L142,75h-.06l-3.76.43-2.69-1-.22-.55-.12-.37-.31-.86-.88.31-1.26.46-1.25-.46-.86-.31-.33.86-.13.37-.18.55-2.72,1L123.44,75h0l4.68-1.73.85-.3-.3-.89-.13-.34-.33-.89-.86.33-4.07,1.48v0l-.15.06-.52-.74-.18-.24,3.09-.53.91-.15-.18-.92-.06-.37L126,68.8l.15-.1,3.91-1.84.86-.4-.4-.83-.15-.34-.4-.86-.85.4L124.42,67l.18-.24,2.35-3,5.72-2.67Z"/><path class="cls-3" d="M116.07,214.78c3.3.06,6.36,1.6,8.44,2.22a24.93,24.93,0,0,0,16.36,0c2.08-.62,5.11-2.16,8.41-2.22l-.76,1.14c-4.5,3.63-5.6,6.61-6.49,11.6-.3,2.86-.3,7.1,5,10.82l.21.21-.3-.06c-15.72-4-12.79-4-28.48,0l-.33.06.24-.21c5.29-3.72,5.29-8,5-10.82-.89-5-2-8-6.49-11.6l-.79-1.14Zm66.73,10.15c1.26-1.38,2.54-2.52,3.7-3.75-3.7-1.75-8.22-2.83-12.08-4.27l-3.33.61-.74.62,4-.37.95-.07.06.93,0,.37.09.95-1,.09-7.12.62-1.32,1.1,4.71.43.92.07-.06,1,0,.37-.09.92-1-.06L165.4,224c7.92,3.75,12.08,6.73,17.4,1Zm-21.59-13.84a9.69,9.69,0,0,0-1.5-.24l-.28,3,1.32-1.11Zm-3.79.19a4.57,4.57,0,0,0-1.41,1v.09l-.43,4.74,1.44-1.2.4-4.64ZM153.5,215a11.31,11.31,0,0,1-1.44,1.2l1.29.65.15-1.85ZM204,203.34a18.65,18.65,0,0,1,2.29-4.89c-5-.43-10.12.46-15.14,0-4.8-.43-8.44-1-11.07-.86l-2,2.86-.4,4.77,4.71.4,5.23-2.46.86-.37.4.83.15.34.4.86-.86.4-3.06,1.45.22.55.12.37.18.52,1.53.18c8.9.77,13.8,2.5,16.43-5Zm12.14-24.17a17.21,17.21,0,0,1,1-5.29c-5,.86-9.7,3.08-14.65,4a1.78,1.78,0,0,0-.43.06l-3.67,2.58-.4.86,3.43-2,.79-.46.49.84.18.3.46.8-.79.49-6.21,3.6-.74,1.57,4.44-1.63.89-.31.3.89.12.34.34.9-.89.3-5.1,1.88a55.6,55.6,0,0,0,5.9-.59c8.78-1.56,13.95-1.16,14.56-9.1Zm2.66-27.71a19.27,19.27,0,0,1-.92-5.32c-4.34,2.55-8,6.24-12.39,8.77-3,1.72-5.5,3-7.46,4.24l-.49,2.95,1.62,4.49,4.47-1.66,3.7-4.43.61-.73.7.61.28.25.73.58L209,162l-2.17,2.61.43.43.27.25.1.09c.15-.09.33-.21.52-.31,7.73-4.48,12.72-5.9,10.61-13.56ZM215.56,122a17.1,17.1,0,0,1-2.23-4.89,53.86,53.86,0,0,0-4.84,5.78l-.06.28-1.89,7,.06.37,1.13-3.14.33-.89.86.34.37.12.85.31-.3.89-2.45,6.8.15,1,1.69-3.63.39-.86.83.4.37.16.82.4-.39.86-1.84,4c6-5.9,10-8.61,6.15-15.25Zm-19,13.9a5.33,5.33,0,0,1-.42.49l1.34,1.36-.18-1-.74-.89Zm-1.65,2.43a4.74,4.74,0,0,0-.24.52l3,3.91.8.55-.31-1.72-3.24-3.26ZM203,98.56a14.78,14.78,0,0,1-2.57-3.72,75.73,75.73,0,0,0-4.32,7.75l.16,0,.36-.06.92-.18.15.92,1.26,7.1.82,1.11-1.07-4-.24-.89.92-.24.33-.1.92-.24.25.89.15.58.21-.06.37-.06.92-.15.15.92.06.31c.46-.68.86-1.3,1.19-1.91l-.27-1.57-.15-.92.91-.19.37-.06.15,0c.22-1.6-.3-3.23-1.95-5.17Zm-7.5,5.08a25.84,25.84,0,0,1-1.4,2.28c-4.56,6.52-7.59,9.5-5.14,12.76a19.34,19.34,0,0,1,2.57,3.75l.73-1L192,121l-.46-.81.79-.49.31-.18.55-.31-1.44-3.07-.4-.87.86-.36.34-.19.82-.37-.79-4.46-.16-.92.92-.15.37-.07.92-.18.15,1,.86,4.92,0,0,1.07-3.66-1.26-7.1Zm1.1,12.79.06-.06-.82-1.17,0,0,.12.77.67.49ZM186.29,80.18a13.64,13.64,0,0,1-3.24-2.34c-1,3.63-1,7.5-2,11.13-1.81,6.83-3.43,10.21-.4,12.18a17.18,17.18,0,0,1,3.24,2.34c1-3.63,2.91-7,3.86-10.61,1.71-6.43,3.57-9.81-1.5-12.7Zm-20.16-11a13.22,13.22,0,0,1-3.27-1.23c0,3.29.86,6.61.86,9.9,0,6.21-.62,9.5,2.41,10.49a13.07,13.07,0,0,1,3.3,1.23c0-3.33.89-6.62.89-9.94C170.32,73.75,171.15,70.46,166.13,69.17ZM82.6,224.87a27.71,27.71,0,0,0-3.85-3.69c3.7-1.75,8.32-2.83,12.17-4.27l3.37.61.73.62-4-.37-.94-.07-.1.93,0,.37-.06.95.92.09,7.16.62,1.31,1.1-4.71.43-1,.07.1,1,0,.37.09.92.92-.06L100,224c-7.92,3.75-12.32,6.89-17.37.89Zm21.56-13.78a9.15,9.15,0,0,1,1.5-.24l.25,3-1.32-1.11Zm3.8.19a4.42,4.42,0,0,1,1.4,1v.09l.4,4.74-1.41-1.2Zm3.88,3.75a11.63,11.63,0,0,0,1.47,1.2l-1.28.65-.19-1.85ZM61.41,203.34a17.61,17.61,0,0,0-2.33-4.89c5-.43,10.16.46,15.17,0,4.81-.43,8.41-1,11.08-.86l2,2.86.4,4.77-4.74.4-5.23-2.46-.83-.37-.39.83-.16.34-.39.86.82.4,3.09,1.45-.21.55-.13.37-.21.52-1.53.18c-8.87.77-13.76,2.5-16.39-5ZM49.27,179.17a18.83,18.83,0,0,0-1-5.29c5,.86,9.66,3.08,14.62,4a2.53,2.53,0,0,1,.46.06L67,180.49l.39.86-3.42-2-.83-.46-.46.84-.18.3-.46.8.8.49,6.2,3.6.74,1.57-4.47-1.63-.85-.31-.31.89-.15.34-.31.9.89.3,5.08,1.88a55,55,0,0,1-5.88-.59c-8.77-1.56-13.94-1.16-14.55-9.1ZM46.6,151.46a18.23,18.23,0,0,0,.89-5.32c4.38,2.55,8,6.24,12.42,8.77,3,1.72,5.47,3,7.43,4.24l.52,2.95-1.62,4.49-4.46-1.66L58,160.5l-.58-.73-.7.61-.31.25-.7.58.58.74,2.2,2.61-.46.43-.24.25-.09.09c-.19-.09-.37-.21-.55-.31-7.71-4.48-12.7-5.9-10.59-13.56ZM49.82,122a18.57,18.57,0,0,0,2.23-4.89,55,55,0,0,1,4.83,5.78l.06.28,1.87,7-.06.37-1.13-3.14-.31-.89-.86.34-.36.12-.89.31.34.89L58,135l-.15,1-1.68-3.63-.4-.86-.86.4-.33.16-.83.4.37.86,1.86,4c-6-5.9-10-8.61-6.14-15.25Zm19,13.9a5.27,5.27,0,0,0,.4.49l-1.32,1.36.16-1,.76-.89Zm1.65,2.43c.09.19.15.34.22.52l-3,3.91-.77.55.31-1.72,3.24-3.26Zm-8.07-39.8A15,15,0,0,0,65,94.84a77.61,77.61,0,0,1,4.31,7.75l-.18,0-.37-.06-.89-.18-.18.92-1.23,7.1-.82,1.11,1.07-4,.21-.89-.88-.24-.37-.1-.89-.24-.24.89-.16.58-.21-.06-.37-.06-.91-.15-.16.92-.06.31c-.46-.68-.85-1.3-1.19-1.91l.27-1.57.16-.92-.92-.19-.37-.06-.15,0c-.21-1.6.31-3.23,2-5.17Zm7.46,5.08c.46.77.92,1.54,1.44,2.28,4.52,6.52,7.58,9.5,5.11,12.76a19.7,19.7,0,0,0-2.54,3.75l-.74-1,.25-.42.46-.81-.8-.49-.34-.18-.52-.31,1.44-3.07.4-.87-.86-.36-.33-.19-.83-.37.8-4.46L73,109l-.92-.15-.37-.07-.91-.18-.19,1-.85,4.92v0l-1.07-3.66,1.22-7.1Zm-1.1,12.79a.06.06,0,0,0-.06-.06l.85-1.17,0,0-.16.77ZM79.09,80.18a14.49,14.49,0,0,0,3.24-2.34c1,3.63,1,7.5,1.92,11.13,1.84,6.83,3.46,10.21.43,12.18a17.18,17.18,0,0,0-3.24,2.34c-1-3.63-2.9-7-3.85-10.61C75.87,86.45,74,83.07,79.09,80.18Zm20.12-11a13.42,13.42,0,0,0,3.3-1.23c0,3.29-.88,6.61-.88,9.9,0,6.21.61,9.5-2.42,10.49a12.88,12.88,0,0,0-3.27,1.23c0-3.33-.89-6.62-.89-9.94,0-5.87-.82-9.16,4.16-10.45Z"/><path class="cls-4" d="M127.44,76.7l-2.75,2.92-4.4-.52,3-3.23,4,.46,6.94-2.52.13.34-6.95,2.55Zm-1.07-13.62-2.51,3.13-4.4-.09,2.75-3.5,4,.12,4.92-2.31.46.22Zm-6.15-1.94v0l5.91-2.8.18.34L120,61.66l-1.62,4.46L115,67.72l1.8-5,3.39-1.6Zm-4.46,2.09-1.81,5-3.36,1.6,1.8-5,2-1,5.69-4.8.25.31Zm-4.47,2.09-1.8,5-3.37,1.6,1.81-5,2.39-1.14,5.29-5.29.24.25Zm-4.43,2.09-1.81,5-2.11,1c0-.12,0-.25.07-.37.15-1.29.33-2.58.39-3.84l.06-.16,2.6-1.23L110.83,62l.31.25-4.28,5.13Zm-3.4-.06L106,63.69l.31.22L103.46,68v-.65Zm-3.94.77,1.56-2.74.33.19L100,68C99.85,68,99.67,68.06,99.52,68.12Zm-5.94,4.15L94.07,71l.59-.46L94,72.18Zm1.81-4.92.12-.4.37.15-.22.59-.27-.34Zm28.38,1.45L129.68,66l-.16-.34-6.27,2.92L118.82,67l-3.4,1.6,5,1.82Zm-4.46,2.09-5-1.82L111,70.67l5,1.82,2-1,7.31-1.29-.06-.37ZM114.84,73l-5-1.81-3.37,1.59,5,1.82,2.38-1.14,7.44-.64,0-.37Zm-4.46,2.09-4.93-1.81-2.63,1.23-.09.61L107,76.64l2.6-1.2h7.46v-.37Zm-4.44,2.09L102.67,76c-.06.62-.09,1.26-.09,1.88v.89l2.69-1.26,7.4.64,0-.36Zm-3.36,2.68,3.67.64.06-.06.37-.25-4.1-.73Zm5.1.89.56.09.06-.37-.92-.15.24.37.06.06Zm13.83-6.49h0L127.63,72l.12.37-6.49,2.37-2,4.31-3.52,1.29,1.83-3.94h.4v-.86l3.52-1.29Zm-4.83,2.15-2,4.34L111.14,82l1.38-3h.06l1,.09.06-1,0-.37.09-.74,1.8-.68.07,0ZM118,74.67l1.07-.74.74-.06L118,75.13v-.46ZM111.63,79,110,82.42l-3.49,1.29.46-1,.61-.46.71-.5.7.13.15-.93.06-.36.19-.93-.92-.15h0l.3-.61.37-.16,2.51.22Zm1-2.19.49-.4h.58l-.55.46-.37,0Zm-5,2.52,0,.07-.46-.1.65-.64.49,0Zm-2,4.37-.21.43-.86.34Zm-2.38-1.07h0l.73-1.6,1.26.21Zm6.64-6.06.15-.16h.55l-.21.22ZM103,81l-.4.83v-.93l.09-.12.43.09L103,81Zm2-2.37-.21.24-.22,0,.43-.21Zm19.36,3.54,6.15-2.25-.12-.37-6.52,2.37-4.28-2-3.52,1.29,4.81,2.22Zm-4.61,1.69L115,81.62l-3.51,1.29,4.8,2.22,2.14-.77,7.4-.65,0-.37Zm-4.62,1.69-4.77-2.25-3.52,1.29,4.8,2.22,2.48-.89h7.46v-.37Zm-4.62,1.69L105.73,85l-3.43,1.23v.1l1.62.76L104,87l.77-.55.55.77.21.31.31.49,1.13.49,2.66-1,7.43.64,0-.37-6.64-.58Zm-4.62,1.69-.4-.18-.15.09-.83.58.68-.24,7.31,1.29.06-.37Zm-2.75-1.29L102,87.13a3.52,3.52,0,0,1-1.56,1.69l-.22.4.43.18ZM102,91.22l5.87,1.56.09-.36-5.57-1.48Zm-1.87,3.13,2.66,1.26.18-.34-2.35-1.1-.49.18ZM94.07,76.76l-3.48.86,1.74-4.09,1.87-.46a22.63,22.63,0,0,0-.13,3.69Zm-4-4.12,5-4.21.25.27L90,73.16l-.43,4.74-2.85,2.43L87.19,75Zm-3.76,3.17-.46,5.29-1.69,1.41c-.21-1.38-.39-2.8-.73-4.18l0-.12,1.74-1.48,4.26-6.12.3.22-3.45,5Zm-3.16,1.38,2.3-4,.3.19-2.47,4.3a.11.11,0,0,0,0-.09ZM75.69,89.62l-.27.24.09-.92ZM74.9,86.2l-.37,4.43L71.66,93l.27-3c.46-1,.89-2.13,1.35-3.2l1.56-1.32A6,6,0,0,0,74.9,86.2Zm-4,6.15-.15,1.45-.09.09h-.1V94l-.7.59c.18-.4.4-.83.58-1.23S70.74,92.69,70.89,92.35Zm-3.33-6.3.12-1.39.37,0,0,.49C67.86,85.47,67.71,85.77,67.56,86.05ZM94.14,79l-4-.34L87.31,81l5.27.46,1.56-1.29V79Zm-2.45,3.29-5.26-.46-2.17,1.81.09.68,4.46.4.74-.65.18-.28.09.07.74-.65L94.2,81.5a1.75,1.75,0,0,0,0-.4l-2.48,1.17Zm-3.79,3.2-3.43-.31c.09.61.18,1.23.31,1.81l.46-.8.79.46.28.16.76-.65,1.38-.49.36-.52Zm3.15-.77.61-.22.49-.58-1.47.55.12.09Zm-4.5,3.66.34-.47h-.06l-.13.22Zm-10.64,3-.8-.06-2.84,2.43L75,94l.7-1.84Zm-1.23,3.41-2-.18-.1.58-.36,2.06,1.5.13Zm-4.37.59-1.47,1.23c-.06.12-.09.21-.15.34l1.31.09Zm6.54-.06.52,0a2,2,0,0,1-.12-.37H77Zm-7.58,5.16.12,0,.46-2.64-1.56-.12c-.09.15-.15.27-.24.43.33.58.61,1.17.91,1.75C69.06,100.13,69.18,100.32,69.27,100.5ZM72,98.9l.46-.4.89.1.15-.37-1.38-.13Zm23-9-.24,0,.24-.49v.46Zm7.59-5.72,4.28-3,.21.31-4.52,3.2A3,3,0,0,0,102.58,84.2Zm-7.92,1.2-.1.07-.82,4.7-3.06,2.15.92-5.23,3-2.12A1.93,1.93,0,0,1,94.66,85.4Zm-4,2.37L89.7,93l-2.81,2c-.06-.19-.09-.34-.13-.49l.8-4.59,1.87-1.32,4.77-5.72.15.13a.75.75,0,0,1,0,.24l-3.76,4.52Zm-4,2.83-.34,2c-.09-.31-.18-.62-.27-.95s-.09-.37-.15-.59l4.16-6,.3.21-3.7,5.29Zm-7.22,9.69-.76.52.27-1.69A11.07,11.07,0,0,1,79.36,100.29Zm5.69-11.93.52-.9.34.19-.71,1.2s0-.06,0-.12S85.08,88.48,85.05,88.36Zm-6.76,9.31-.67,3.85-3.06,2.15.92-5.23,2.41-1.72C78.05,97,78.17,97.37,78.29,97.67ZM74.5,99.12l-.92,5.23-1.5,1v0c-.36-.52-.73-1.07-1.07-1.63l.43-2.46L74,99.49l2.54-7a4.52,4.52,0,0,0,.15.61v0Zm-4.44,2.95L71.32,95l.37.06-1.32,7.56A2.75,2.75,0,0,0,70.06,102.07Zm29.4-10.21,5.35-3.78-.21-.31-5.66,4-3.76-.68-.19.09v-.12l-.73-.12L91.2,93.09l5.2.92Zm-4,2.83-5.17-.92-3.06,2.15,5.17.92,1.9-1.32,7-2.55-.12-.37Zm-4,2.83-4.19-.74a5.79,5.79,0,0,1-.09,2.68l1.22.21,2.18-1.5,7.18-2-.09-.34Zm-4,2.83-.55-.09a4.05,4.05,0,0,1-.92,1.14l.76-.53L94,99.55,94,99.18Zm-7.68.83-.58.4.79.15A4.13,4.13,0,0,0,79.7,101.18Zm3.64,2-.09,0a6.51,6.51,0,0,0-1,.77l.46-.31,7.4-.68,0-.37Zm-3.12-.55-2.08-.37-3.06,2.15,5.2.92.58-.43-.33-1.23C80.43,103.36,80.34,103,80.22,102.66ZM79.3,106l-5.17-.92-1.5,1c.4.59.77,1.11,1.14,1.57l2.5.46,2.51-1.78h.15l.13-.4.88.34.19.06h6.11V106Zm-4.49,3.17.06,0,2.87.52.12-.37-3.39-.62a4.85,4.85,0,0,0,.34.5Zm5.16.86,2.12.4.09-.37-2.08-.37Zm-23.7-4.31L53.85,109l1.29,4.28,2.63-3.57-1.13-3.88,1.25-7.32-.37-.06Zm3.55,4.71,1-5.72-.37-.06-1,5.68.37.1Zm-.77,1.2-3.67,2.61L54.71,118l1.07-.74v-1.6H58l1.07-4Zm-3.27,6.58-.89.61c.28.37.59.74.89,1.11v-1.72Zm2.78,2.46.19-.31-.06-.12-.13.43Zm-7,15.07-.24,1.44.06.16.52-.37-.34-1.23Zm.46,2.18-.34.25.16.43.06-.22-.19-.24L52,138l0,0Zm-1.47,3.66-.12.68.28-.19-.16-.49Zm-.33,1.88,0,.24.18.34.24-.86Zm1.19-33.74,1.13-6.46.37.06-1.2,6.83,2.73,3.91-.65,3.56a4.07,4.07,0,0,0-.52-.58l-2.53-3.63Zm-.86,4.86.83,1.23-.28,1A11.87,11.87,0,0,1,50.4,119l-.49-.71.4-2.25-.65-7.44.37,0Zm-.85,4.89.24.34c-.15.3-.31.58-.46.86l0-.13-1.31-7.38.36-.09,1.14,6.4Zm-1.56,3.69L46.79,118l.34-.09,1.28,4.77c-.09.15-.15.34-.24.52ZM51,133.75l-.31,1.69-.21-.59-.31-.86-.88.31-.34.12-.43.19-1.16-1.69.52-3-2.54-7,.34-.12,1.62,4.46c.18,2.31,1.59,4.24,3.7,6.46Zm-3.85.37,1.43,2.06,1.35,3.69-.4,2.27-1.4-2L48,140l-.45-.8-.1.06-1-1.41.52-3.05-3.15-6.83.34-.15,2.94,6.34Zm.06,10.79-1.56-2.24.3-1.82.16.25,2.72,4.76c-.28-.18-.58-.33-.89-.52ZM46.12,140l.09-.49L42,133.44l.3-.21,4.47,6.39-.31.19-.33.18ZM78.45,69.16a184.82,184.82,0,0,1-8.87,23.78c-.65,1.41-1.35,2.83-2,4.24-.37-.61-.71-1.23-1.1-1.85l3.85-8.91L66,94.66a1.6,1.6,0,0,1-.25-.37l-.64-.92c.31-.71.61-1.39,1-2.09A185.43,185.43,0,0,1,78.45,69.16ZM67.31,110.71,64.93,114l1.28,4.25,2.63-3.57-1.16-3.85L69,103.48l-.36-.06-1.29,7.29Zm-3.24,4.65-.18-1-.09.56Zm-.18-1L64,114l0-.06-.06.37Zm.21-.8,1.68-6.3-.36-.1-.77,3L64,113.63Zm-8,30.91-.28,1,.37-.21.09-.53ZM56,146.29l-.46.28-.92,3.48s0,.06.06.06h0L56.55,149l-.58-.86-.16-.71Zm1.74,6.09.12-.06.28-1L57,149.74l-1.62.95C56.18,151.28,56.94,151.83,57.74,152.38Zm.76-35,1.23-4.62.09.93v.18l-.92,3.41Zm1.23-4.62.33-1.23.37.09-.3,1.11Zm-2,9.29-.31-.55.92-3.48.06.31.8,4.61-.06-.31-.25-.89L58,122l-.24.06Zm-1-.86v-4.61h.4v5.1Zm-.15,18-.34,1.23-2.05-3.57c.55.56,1.16,1.14,1.75,1.73C56.12,138.76,56.33,139,56.55,139.16ZM53.27,137l.07.09-.37.24-.58-2.21.52.52Zm2.15,6.45-.49,1.76-2.63-4.62.3-1.17,2.82,4ZM52,141.74l2.63,4.58-.83,3.11v0h0l0,0-.7-.55-2-3.45.8-3-2.57-7,.36-.13ZM50.58,147l-3.67-6.39.31-.22,4.1,7.14c-.25-.19-.49-.37-.74-.53Zm20.19-30.84h0l1.13-6.46-.37-.06-1.19,6.82-3.88,2.74-.65,3.69,4.32-3,.67-3.69Zm-.86,4.86-4.34,3-.64,3.72,4.34-3,.4-2.28,3.12-6.76-.34-.16-2.54,5.48Zm-.85,4.89-4.32,3-.67,3.69,4.34-3,.46-2.62,3.73-6.49-.33-.18-3.21,5.6Zm-.86,4.85-4.31,3.05-.68,3.69,4.35-3.05.49-2.82,4.28-6.12-.31-.22-3.82,5.47Zm-.86,4.89-4.31,3-.64,3.72,4.31-3,.52-3L72,130.67l-.27-.21-4.38,5.22Zm-.85,4.86-4.32,3.05-.64,3.69,4.32-3.05.52-3,5.29-5.32-.28-.25Zm-5.17,7.91-.64,3.69,4.31-3,.55-3.17,6-4.24-.21-.31-10,7.08Zm1.16-33.74,0,0,1.13-6.49.37.07-1.19,6.85,2.69,3.91-.64,3.69-3-4.34Zm-.86,4.89,3,4.34L64,127.63l-3-4.34.4-2.27-.64-7.42.36-.06Zm-.82,4.86,3,4.34-.65,3.72-3-4.37.45-2.61-1.28-7.38.37-.06Zm-.86,4.89,3,4.34-.67,3.69-3-4.34.52-2.83L57.86,123l.34-.09Zm-.85,4.86,3,4.34-.67,3.69-3-4.34.49-3-2.54-7,.37-.16Zm-.86,4.89,3,4.34-.65,3.69-3-4.37.52-3L55,132.92l.33-.16,2.94,6.34Zm2.17,9.2L59.76,152l-3-4.34.55-3.17-4.22-6.06.31-.21Zm17.25-34.54,2.33-6.4-.34-.15-2.2,6.06A3,3,0,0,1,77.65,113.76Zm1.9,6.43L81.78,114l-.37-.13-2.35,6.52L75,122.34c-.09.15-.15.31-.25.46L74.16,124l-.67,1.91,4.77-2.25,1.29-3.5Zm-1.69,4.64-4.77,2.25-.94,2.52.15.12.27.25.22.15,3.79-1.78.8-2.16,4.25-6.12-.31-.21-3.46,5Zm-1.68,4.64L73,131l-.27.31-2,2.43-.55,1.5.61-.27.64-.68.25.25L74.78,133l.21-.24.83-2.31,4.77-5.72-.28-.25Zm-2.51,5.05-1.4.64.49.53Zm-2.44,3.14v0l.18-.25-.18.22Zm5.9-2.07,1.13-.92-.24-.31-.58.5Zm-2.32,5.69L77,139.71l-.21-.3-1.75,1.23-.27.64Zm-2.36,5.78,3.49-1.63-.15-.33-3.12,1.44Zm.19-24.75a.3.3,0,0,1,.12.15h0a2.67,2.67,0,0,0,.33.49l.31.43-.52,1.42-.06,0-.31-.22-.64-.49-.12-.24Zm-1.38,2.4,0,0,0,0-.18.24Zm.49,3.26-.61,1.69-.16.18-.15.22-.21-.46Zm-1.68,2.43.15.37-1.35,1.63.06-.34,1.14-1.66Zm-.68,11.22,9.21-12c-4.19,10.24-5.81,18.57-12.75,27.61l-1.93-1.1,3.88-7.39L63,155.58c-.52-.31-1.13-.64-1.8-1l.21-1.17,4-2.37,1-4.55,5.72-4,.76-.52-.55-.77-.21-.31-.52-.77-.77.53-1.44,1Zm-26.94,9.84-1.23-9.53,4.26,10.27a11,11,0,0,0-.31,3.2L44.25,152l-.24-.89-.89.25-.37.09Zm25.44,44.07.56,2.06c-.59,0-1.17,0-1.75-.06l-.73,0-1.68-1-.83-3.11-6.39-3.69.21-.34,10.61,6.15Zm.89-.24.61,2.34c.37,0,.74,0,1.07,0l1.93-3.33-.21-.77-2-.73ZM71.69,191l.12-.18-.18-.43-.31.49.37.12ZM57.56,166.29l.27.27L61,169.79l-.15-.12-.7-.58-.4.49-3.15-1.85L56,165.52l-.09-.16.79.47.83.46Zm-.65,2.61,2.3,1.32-.49.59.7.58,2.6,2.22.22.77-.58-.4-.37.52-3.4-2-.7-2.58-4.28-6.15.33-.19Zm1.29,4.77,2.63,1.54-.46.61.76.52.34.25c-.89-.22-1.8-.46-2.69-.74l-.37-1.32-4.8-5.75.31-.25Zm-2.94,1.11-.85-.9.27-.24L56.06,175c-.06,0-.12,0-.19-.06ZM66.82,191.6l.74,2.67L63,191.63l-.7-2.68c.42.06.88.16,1.4.25l.55.09,1.93,1.11-.27.86.85.31.09,0Zm-3.54-16.95.09.28.06-.15Zm.82.68-.15.24,1.19.83-.15-.3ZM67.89,192l.56,2,.88-1.51L67.89,192Zm2.57-1.45.4-.71c-.92,0-1.8-.09-2.69-.15Zm-12.2.92.49,1.85.67-1.17-1.16-.68Zm2.29-1.26L61.2,189l-.62-.36a.3.3,0,0,1-.18,0l-1.83-.27-.31.52Zm-3.18-2.06.06.25.1.06.15-.25c-.09,0-.22,0-.31-.06Zm-1.8-15.56-.22.4,1.93,1.94.09-.19Zm-2.36-2.86-.52.86.77,2.92.27-.27L54,173l.67-.65.06.07.28-.5Zm-1-5.29-.82,1.39,1,3.62.24-.43-.3-.36.7-.59.28-.24,0,0,.55-.95Zm-1.74-2.15.61,2.4.58-1-.06-.09.22-.15.15-.25Zm6.64,28.51.73,2.76-4.59-2.64-.82-3.1-6.36-3.7.18-.33,9.85,5.72-.31.55.8.46ZM56.36,188l.19.77v0l-2.39-1.39c.67.22,1.41.4,2.2.59Zm-8.44-15.13-4-4.77.27-.24L48.5,173h-.06Zm-.7-4.65,4.59,2.65.82,3.11c-.49-.13-1-.28-1.47-.4l-3-1.73-.71-2.58-4.25-6.12.31-.22ZM46,163.43l4.55,2.64,1,3.63-4.59-2.64-.58-2.25-3.7-6.46.31-.18,3,5.26Zm-1.29-4.8v0L43,152.3l.36-.1,1.78,6.71,2.93,1.72c.4.31.8.61,1.23.89l.92,3.38-4.56-2.64-1-3.63Zm1.56-9.5-.89-3.29.37-.13.67,2.59c0,.15,0,.3-.06.43S46.27,149,46.24,149.13Zm12.85,45.48.76,2.86c.21,0,.46,0,.67-.06l2-3.48-2.29-1.32Zm2.53-4.43-.27.49.49.28Zm-3.42,4.67.7,2.68-1.19.09-3.12-1.81-.83-3.11L47.4,189l.19-.34Zm20.49-.3L79.82,197c-.52.06-1,.12-1.59.15a.18.18,0,0,1-.12,0l-2.78-1L74,193.23l-6.88-2.53.12-.37Zm.86-.4,1.25,2.74c.22,0,.4,0,.58-.07l1.53-4.24-1.34-2.92,2.5-6.95-.33-.12-4.19,11.56ZM61.23,165.73l5,1.82L67.74,171l-4.95-1.81-.95-2.1-4.77-5.72.27-.24,3.89,4.64Zm2.08,4.49,5,1.82,1.56,3.41-4.95-1.81-1.1-2.43-5.3-5.29.28-.28Zm2.08,4.49,5,1.82,1.56,3.38-5-1.82-1.2-2.58L60,170.68l.25-.27,5.11,4.3Zm2.08,4.46,5,1.82L74,184.4l-5-1.81-1.26-2.71-6.08-4.31.21-.31,5.57,3.91Zm2.08,4.49,5,1.81,1.56,3.42-5-1.81-1.29-2.83-6.48-3.76.18-.3,6,3.47Zm7,6.31,1.56,3.38-5-1.82-1.35-2.89-6.91-2.55.12-.34L76.58,190Zm-7.74-27.81-1.8,5,1.56,3.41,1.8-5-1-2.09-1.28-7.35-.37.06Zm2,4.5-1.8,5,1.59,3.41,1.8-5-1.1-2.43-.67-7.47-.37,0ZM73,171.14l-1.8,5,1.59,3.38,1.8-5-1.19-2.59v-7.5H73Zm2.08,4.49-1.8,5L74.84,184l1.8-5-1.25-2.71.64-7.44-.37,0-.61,6.79Zm2.08,4.49-1.8,5,1.59,3.41,1.8-5-1.31-2.83,1.31-7.38-.37-.06-1.22,6.88Zm.28,9.45L79,193l1.8-5-1.34-2.89,2.5-7L81.6,178l-4.19,11.6ZM51,198.48c3.49,1.82,6.67,3.54,9.6,5.23a10.29,10.29,0,0,0,2.82,4.58l-.12.19-.19.31L63,209C59.21,205.93,55.32,202.51,51,198.48ZM67.68,210a19.2,19.2,0,0,0,2.94,0c.52.36,1,.7,1.56,1.07H69.55Zm50.44,10,1.34,5.11,2.88,1.66a28.46,28.46,0,0,0-1.78-5.35l-1.68-1-4.28-6.15-.31.22,3.83,5.5Zm-4.29-2.49,1.38,5.14,3.24,1.87-1.37-5.13-2.3-1.33L113.9,217l-.19.09-.18.06.3.37Zm-.06,2.95-.82-3c-.28.12-.55.28-.86.43l.12,1.29,1.56,1.29Zm1.41,6.49,3.82-1,3.24,1.87-5.1,1.36-1.9-1.33-.06-.89Zm-.31-3.41,3.12,1.78-2.9.8-.22-2.58Zm-29.3-6.89h3.31l-2.6.83L80.19,214l.18-.33ZM84,218.2l-1-.43.15-.34,1.34.61c-.18.06-.36.1-.52.16Zm12,9h1.66l.06.61.91-.06,2.91-.28,2.36,2.37H100.5c-.73-.12-1.44-.21-2.17-.31l-1.78-1.81-1.31-.34a4,4,0,0,1,.52-.24Zm11.47,9.62h-1.89l-.31-.3C106,236.59,106.74,236.68,107.5,236.77Zm-7.18-11.93.39.4.4,0v-.74c-.18.09-.34.15-.52.25l-.27.12ZM102,224v1.08l1.22-.1L102,224a0,0,0,0,1,0,0Zm.82,3.29,1.81,1.82v-2l-1.81.15Zm2.63-.24V230l.86.86,1.77.37V229l-.27-.09-2.17-1.81Zm6.12,4.91v-1.19l-1.8-1.82-.83.09v2.31c.86.18,1.74.4,2.63.61Zm-.76-6.7,2.84,2.4-5.26.46-2.45-2.06-7.31.65,0-.37,12.21-1.08Zm.58-.71,2.87,2.4-.46-5.29-2.44-2.06-.65-7.38-.36,0,1,12.3Zm-28.54-18,5.26-.46,2.85,2.43-5.26.46-1.75-1.47-6.73-3.17.16-.34,5.47,2.55Zm3.76,3.2,5.26-.46,2.85,2.4-5.23.46-2-1.69-7-2.58.13-.34Zm3.8,3.17,5.23-.46,2.87,2.4-5.26.46L91,213.52l-7.19-1.94.09-.33Zm3.76,3.17,5.23-.46,2.87,2.42-5.26.47-2.29-1.94-7.31-1.29.06-.37,6.7,1.17Zm3.76,3.2,5.23-.47,2.87,2.4-5.26.46-2.35-2L91,219.09l0-.37,6.91.62Zm9,2.7,2.85,2.4-5.26.49-2.45-2.09-7.31.65,0-.37,12.2-1.08ZM88.2,200.15l.46,5.28,2.88,2.4-.46-5.29-1.77-1.47L85.05,195l-.3.21Zm3.8,3.16.46,5.29L95.3,211l-.46-5.29-2-1.72-3.73-6.49-.34.19Zm3.76,3.2.46,5.29,2.84,2.4-.46-5.29-2.17-1.85-3.15-6.79-.34.15,2.82,6.09Zm3.76,3.17L100,215l2.84,2.4-.46-5.26-2.26-1.94-2.57-7-.33.12Zm3.76,3.2.46,5.26,2.88,2.43-.46-5.3-2.39-2L101.84,206l-.36.12,1.8,6.74Zm4.22,8.45,2.88,2.4-.46-5.29-2.48-2.06-.61-7.38-.4.06,1.07,12.27ZM118.61,237c-14.62-1.08-25-3.26-40.8-8.31,17.09.74,27.74,2.31,42.54,6.65l-.67.7-14.81-2.95-8.8-1.48H96l.06,0,9.54,1.87,13.64,3a4.25,4.25,0,0,1-.64.52ZM107.29,249.6l-2-1,3-4.3-3.46,4.12-2.08-1,4.1-4.85-4.62,4.61-2.2-1,5.35-5.35-6,5-2.27-1.08,6.79-5.72-7.61,5.35L94,243.35l8.54-6-9.55,5.53-2.47-1.17,10.4-6,1.22.21,1.62.28,1.5,1.51c4.77,0,7.25-.31,10.49,0l-8.41,11.91Zm-6.45-13.9-11.57,5.47L86.71,240l9.54-4.52h3.21c.46.09.92.18,1.38.25Zm10.76-6.15,2.78-.87,2.3,1.33,1.34.73,1.44-.73,2.63,1.59-1.65-1.75.61-.4.43-.27.43-.31-.49.89,1.13,1.26-.27,1.08-2.11-.86-.8.58,2.2,1.94-7.83-4.34,7.5,4.83-.43.61-5.57-2.18L112.79,231l-1.19-1.41ZM69.27,212h5.29l2.63,2.65H71.93L70.31,213l-6.42-3.72.18-.34Zm3.49,3.48h5.29l2.63,2.64H75.39l-1.87-1.87-6.76-3.17.16-.34,5.84,2.74ZM76.25,219h5.26l.09.09a29.46,29.46,0,0,0-2.72,1.14l-1,.43-1-1-7-2.55.13-.37L76.25,219Zm-1-9.44v1.78L77.87,214v-4.7s0,0,0,0h-.28c-.15,0-.31,0-.46.06h-.18c-.06,0-.12,0-.19,0h-.21v0h-.18l-.92.09c-.06,0-.12,0-.18,0Zm3.45,0v5.32l2.66,2.65v-1.75l-1.65-1-.79-.46.45-.8.19-.34.49-.8.79.47.52.27v-1l-1.89-1.88-.52-1.1c-.13,0-.25,0-.37,0ZM82.18,213v.58l1.41.83-.8-.79-1.59-4.4-.46-.16L82.18,213Zm0,3.2v1.26l.06-.09.15-.34.25-.55-.46-.28Zm.12,2.24.28.25a.43.43,0,0,0,.18-.06l-.09,0Zm3.52-2.73-.74-2.8-.42-.12.73,2.67Zm9.42,13.22v-.65l-1.35-.37a11.55,11.55,0,0,1-1.28.53v0l.21,0,2.42.43Z"/><path class="cls-4" d="M137.93,76.7l2.76,2.92,4.37-.52-3-3.23-4,.46-3.46-1.26-.55.22Zm-6.63-2.83-.19-.06-.06.15ZM139,63.08l2.47,3.13,4.44-.09-2.76-3.5-4,.12-6.7-3.14-.15.34,6.7,3.14Zm6.14-1.94v0l-5.93-2.8-.15.34,6.27,2.95L147,66.12l3.36,1.6-1.8-5-3.37-1.6Zm4.47,2.09,1.8,5,3.37,1.6-1.81-5-2.08-1-5.69-4.8-.21.31Zm4.43,2.09,1.81,5,3.39,1.6-1.8-5-2.39-1.14-5.29-5.29-.27.25Zm4.47,2.09,1.8,5,2.08,1c0-.12,0-.25,0-.37-.18-1.29-.33-2.58-.43-3.84l0-.16-2.6-1.23L154.51,62l-.27.25,4.28,5.13Zm3.39-.06-2.53-3.66-.31.22L161.91,68v-.65Zm4,.77-1.56-2.74-.34.19,1.38,2.4Zm5.9,4.15L171.3,71l-.58-.46.61,1.69ZM170,67.35l-.12-.4-.37.15.21.59.28-.34ZM141.6,68.8,135.67,66l.19-.34,6.23,2.92L146.56,67l3.36,1.6L145,70.4l-3.37-1.6Zm4.47,2.09,5-1.82,3.36,1.6-5,1.82-2.08-1-7.3-1.29.06-.37ZM150.51,73l5-1.81,3.4,1.59-5,1.82-2.38-1.14-7.44-.64,0-.37ZM155,75.07l5-1.81,2.63,1.23a4.2,4.2,0,0,1,.06.61l-4.25,1.54-2.6-1.2H148.3v-.37Zm4.47,2.09,3.27-1.2c.06.62.09,1.26.09,1.88v.89l-2.69-1.26-7.4.64,0-.36Zm3.33,2.68-3.67.64-.06-.06-.37-.25,4.1-.73Zm-5.08.89-.58.09-.06-.37.95-.15-.25.37Zm-13.82-6.49L137.72,72l-.12.37,6.51,2.37,2,4.31,3.52,1.29-1.84-3.94h-.39v-.86Zm4.83,2.15,2,4.34L154.24,82l-1.38-3h-.09l-.92.09-.09-1,0-.37-.06-.74-1.84-.68-.06,0Zm-1.31-1.72-1.08-.74-.76-.06,1.84,1.26v-.46ZM153.75,79l1.59,3.44,3.52,1.29-.46-1-.65-.46-.67-.5-.7.13-.19-.93-.06-.36-.15-.93.92-.15-.28-.61-.39-.16-2.48.22Zm-1-2.19-.52-.4h-.58l.55.46.39,0Zm5,2.52v.07l.49-.1-.64-.64-.49,0Zm2,4.37.19.43.88.34-1.07-.77Zm2.39-1.07-.74-1.6-1.22.21Zm-6.64-6.06-.18-.16h-.52l.21.22ZM162.37,81l.37.83c0-.31,0-.62,0-.93l-.09-.12-.43.09.12.13Zm-2-2.37.22.24.21,0ZM141,82.18h0l-6.14-2.25.12-.37,6.48,2.37,4.31-2,3.49,1.29-4.77,2.22Zm4.62,1.69,4.8-2.25,3.49,1.29-4.77,2.22L147,84.36l-7.4-.65,0-.37Zm4.62,1.69,4.8-2.25,3.49,1.29-4.77,2.22-2.48-.89h-7.46v-.37Zm4.65,1.69L159.65,85l3.4,1.23a.13.13,0,0,1,0,.1l-1.66.76L161.3,87l-.76-.55-.52.77-.22.31-.33.49-1.1.49-2.7-1-7.4.64-.06-.37,6.67-.58Zm4.62,1.69.4-.18.12.09.85.58-.67-.24-7.34,1.29-.06-.37Zm2.72-1.29,1.13-.52a3.74,3.74,0,0,0,1.59,1.69l.22.4-.43.18Zm1.16,3.57-5.87,1.56-.09-.36L163,90.94Zm1.87,3.13-2.69,1.26-.16-.34,2.36-1.1.49.18Zm6-17.59,3.52.86-1.74-4.09-1.9-.46A23.91,23.91,0,0,1,171.27,76.76Zm4-4.12-5-4.21-.24.27,5.29,4.46.4,4.74,2.87,2.43L178.18,75Zm3.79,3.17.46,5.29,1.68,1.41c.19-1.38.4-2.8.71-4.18v-.12l-1.75-1.48-4.28-6.12-.3.22Zm3.15,1.38-2.29-4-.34.19,2.48,4.3a.11.11,0,0,0,0-.09l.12-.4Zm7.43,12.43.25.24-.06-.92C189.81,89.16,189.75,89.4,189.68,89.62Zm.8-3.42.37,4.43,2.87,2.4-.27-3c-.46-1-.92-2.13-1.35-3.2l-1.56-1.32A6,6,0,0,1,190.48,86.2Zm4,6.15.12,1.45.12.09h.06l0,.09.71.59c-.22-.4-.4-.83-.58-1.23s-.31-.65-.46-1Zm3.33-6.3-.12-1.39-.37,0,0,.49ZM171.24,79l3.95-.34L178,81l-5.26.46-1.53-1.29V79Zm2.45,3.29,5.26-.46,2.14,1.81a5.2,5.2,0,0,1-.06.68l-4.47.4-.76-.65-.18-.28-.07.07-.76-.65-3.64-1.69a1.84,1.84,0,0,0,0-.4l2.51,1.17Zm3.76,3.2,3.46-.31c-.1.61-.19,1.23-.31,1.81l-.46-.8-.82.46-.25.16-.76-.65-1.38-.49-.4-.52.92.34Zm-3.12-.77-.64-.22-.46-.58,1.47.55-.15.09Zm4.47,3.66-.31-.47h.06l.12.22Zm10.67,3,.76-.06,2.88,2.43-2.72.21-.67-1.84Zm1.22,3.41,2-.18.12.58.34,2.06-1.5.13Zm4.38.59,1.47,1.23a2,2,0,0,0,.15.34l-1.32.09Zm-6.58-.06-.49,0c0-.13.09-.25.13-.37h.24Zm7.62,5.16-.15,0-.46-2.64,1.59-.12c.06.15.15.27.21.43l-.92,1.75-.27.55Zm-2.69-1.6-.49-.4-.89.1-.12-.37,1.34-.13.16.8Zm-23.06-9,.27,0-.27-.49v.46Zm-7.59-5.72-4.25-3-.21.31,4.49,3.2A2.64,2.64,0,0,0,162.77,84.2Zm7.92,1.2.12.07.83,4.7,3.06,2.15-.92-5.23-3-2.12A2.33,2.33,0,0,1,170.69,85.4Zm4.07,2.37.92,5.23,2.81,2a2.2,2.2,0,0,1,.12-.49l-.79-4.59-1.9-1.32-4.77-5.72L171,83a.58.58,0,0,1,0,.24Zm4,2.83.36,2c.09-.31.16-.62.25-.95s.12-.37.18-.59l-4.16-6-.3.21,3.67,5.29Zm7.24,9.69.77.52-.31-1.69C186.32,99.49,186.17,99.89,186,100.29Zm-5.72-11.93-.48-.9-.34.19.7,1.2s0-.06,0-.12Zm6.79,9.31.68,3.85,3.06,2.15-.92-5.23-2.45-1.72c-.12.31-.24.65-.37,1Zm3.8,1.45.89,5.23,1.49,1s0,0,0,0c.37-.52.74-1.07,1.07-1.63l-.45-2.46-2.51-1.78-2.54-7a4.52,4.52,0,0,0-.15.61,0,0,0,0,1,0,0l2.2,6Zm4.4,2.95L194.06,95l-.37.06,1.32,7.56c.09-.18.18-.36.27-.52ZM165.92,91.86l-5.35-3.78.21-.31,5.66,4,3.76-.68.16.09v-.12l.73-.12,3.06,2.15L169,94l-3-2.15Zm4,2.83,5.2-.92,3.05,2.15-5.19.92-1.87-1.32-7-2.55.12-.37Zm4,2.83,4.16-.74a6.9,6.9,0,0,0,.1,2.68l-1.2.21-2.17-1.5-7.19-2,.1-.34,6.2,1.66Zm4,2.83.55-.09a4.05,4.05,0,0,0,.92,1.14l-.77-.53-7.34-1.32.07-.37,6.57,1.17Zm7.65.83.58.4-.77.15C185.53,101.55,185.59,101.36,185.65,101.18Zm-3.64,2,.12,0a6.82,6.82,0,0,1,1,.77l-.46-.31-7.4-.68,0-.37,6.76.62Zm3.15-.55,2.05-.37,3.06,2.15-5.2.92-.55-.43.3-1.23c.09-.34.22-.71.34-1Zm.92,3.38,5.16-.92,1.5,1c-.42.59-.79,1.11-1.13,1.57l-2.51.46-2.53-1.78h-.13l-.15-.4-.86.34-.18.06h-6.12V106Zm4.46,3.17,0,0-2.87.52-.16-.37,3.43-.62c-.12.19-.25.34-.37.5Zm-5.14.86-2.14.4-.06-.37,2.05-.37Zm23.71-4.31,2.38,3.23-1.25,4.28-2.63-3.57,1.13-3.88-1.29-7.32.37-.06Zm-3.55,4.71-1-5.72.37-.06,1,5.68-.37.1Zm.76,1.2,3.67,2.61.65,3.69-1-.74v-1.6h-2.24l-1-4Zm3.28,6.58.88.61L209.6,120v-1.72Zm-2.79,2.46-.18-.31.06-.12.12.43Zm6.94,15.07.28,1.44-.06.16-.52-.37.3-1.23Zm-.42,2.18.33.25-.15.43-.06-.22.15-.24-.27-.19v0Zm1.46,3.66.13.68-.31-.19.18-.49Zm.34,1.88,0,.24-.18.34-.25-.86.4.28Zm-1.19-33.74-1.13-6.46-.37.06,1.19,6.83-2.72,3.91.64,3.56a5.8,5.8,0,0,1,.52-.58l2.51-3.63-.64-3.69Zm.85,4.86-.82,1.23.24,1A11.94,11.94,0,0,0,215,119l.46-.71-.4-2.25.64-7.44-.37,0Zm.86,4.89-.24.34c.15.3.3.58.46.86l0-.13,1.29-7.38-.37-.09-1.1,6.4Zm1.56,3.69,1.38-5.2-.37-.09L217,122.68c.06.15.15.34.24.52Zm-2.84,10.55.3,1.69.19-.59.33-.86.86.31.37.12.42.19,1.17-1.69-.52-3,2.53-7-.33-.12-1.62,4.46c-.19,2.31-1.59,4.24-3.7,6.46Zm3.82.37-1.41,2.06-1.34,3.69.39,2.27,1.41-2,.09-.18.46-.8.09.06,1-1.41-.55-3.05,3.15-6.83-.33-.15-2.94,6.34Zm0,10.79,1.56-2.24-.34-1.82-.12.25-2.75,4.76c.3-.18.61-.33.88-.52Zm1.1-4.92-.09-.49,4.22-6.06-.31-.21-4.46,6.39.3.19.34.18ZM186.9,69.16a194.21,194.21,0,0,0,8.87,23.78c.67,1.41,1.35,2.83,2.08,4.24.34-.61.7-1.23,1.1-1.85l-3.88-8.91,4.31,8.24a4,4,0,0,0,.24-.37l.65-.92c-.31-.71-.62-1.39-1-2.09A183.22,183.22,0,0,0,186.9,69.16ZM198,110.71l2.39,3.26-1.26,4.25-2.63-3.57,1.14-3.85-1.29-7.32.37-.06,1.28,7.29Zm3.28,4.65.18-1,.09.56-.27.4Zm.15-1-.06-.31v-.06l.06.37Zm-.21-.8-1.66-6.3.34-.1.8,3,.61,3.56Zm8,30.91.27,1-.36-.21-.1-.53Zm.09,1.87.49.28.92,3.48s-.06.06-.09.06L208.8,149l.61-.86.15-.71Zm-1.71,6.09-.13-.06-.27-1,1.1-1.57,1.62.95h0c-.76.59-1.53,1.14-2.29,1.69Zm-.77-35-1.22-4.62-.09.93v.18l.92,3.41Zm-1.22-4.62-.34-1.23-.36.09.3,1.11Zm2,9.29.3-.55-.91-3.48-.07.31-.82,4.61.09-.31.25-.89.88.25.28.06Zm1-.86v-4.61h-.37v5.1C208.4,121.51,208.52,121.32,208.65,121.17Zm.18,18,.34,1.23,2.05-3.57c-.59.56-1.17,1.14-1.75,1.73C209.26,138.76,209,139,208.83,139.16ZM212.1,137l-.06.09.34.24.61-2.21c-.18.19-.37.34-.52.52L212.1,137ZM210,143.43l.46,1.76,2.63-4.62-.31-1.17-2.78,4Zm3.4-1.69-2.63,4.58.82,3.11h0v0h0v0l.74-.55,2-3.45-.8-3,2.54-7-.34-.13-2.38,6.55Zm1.43,5.29,3.67-6.39-.33-.22-4.07,7.14c.24-.19.49-.37.73-.53Zm-20.18-30.84-1.13-6.46.36-.06,1.2,6.82,3.88,2.74.64,3.69-4.31-3-.64-3.69Zm.85,4.86,4.32,3,.64,3.72-4.31-3-.4-2.28-3.12-6.76.34-.16,2.53,5.48Zm.86,4.89,4.31,3,.65,3.69-4.32-3L196.5,127l-3.73-6.49.34-.18,3.21,5.6Zm.86,4.85,4.31,3.05.64,3.69-4.31-3.05-.49-2.82-4.28-6.12.3-.22,3.83,5.47Zm.85,4.89,4.32,3,.64,3.72-4.31-3-.52-3-4.78-5.75.28-.21,4.37,5.22Zm.86,4.86,4.31,3.05.64,3.69-4.31-3.05-.55-3-5.26-5.32.25-.25Zm5.17,7.91.64,3.69-4.31-3-.55-3.17-6-4.24.22-.31,10,7.08Zm-1.19-33.74v0l-1.14-6.49-.36.07,1.19,6.85-2.72,3.91.67,3.69,3-4.34-.64-3.72Zm.85,4.89-3,4.34.65,3.69,3-4.34L204,121l.67-7.42-.4-.06Zm.86,4.86-3,4.34.64,3.72,3-4.37-.46-2.61,1.32-7.38-.37-.06Zm.86,4.89-3,4.34.64,3.69,3-4.34-.49-2.83,1.92-7.26-.36-.09Zm.85,4.86-3,4.34.65,3.69,3-4.34-.52-3,2.54-7-.33-.16Zm.86,4.89-3,4.34.64,3.69,3-4.37-.52-3,3.15-6.79-.34-.16-2.93,6.34ZM205,148.3l.64,3.69,3-4.34-.55-3.17,4.22-6.06-.31-.21ZM187.7,113.76l-2.3-6.4.34-.15,2.2,6.06C187.85,113.42,187.79,113.6,187.7,113.76Zm-1.87,6.43L183.6,114l.33-.13,2.39,6.52,4.1,1.94c.06.15.15.31.21.46l.55,1.23.71,1.91-4.81-2.25-1.25-3.5Zm1.68,4.64,4.77,2.25.92,2.52-.12.12-.31.25-.18.15-3.82-1.78-.77-2.16-4.25-6.12.31-.21,3.45,5Zm1.68,4.64,3.22,1.51.24.31,2,2.43.55,1.5-.61-.27-.67-.68-.22.25L190.6,133l-.21-.24-.83-2.31-4.8-5.72.3-.25Zm2.51,5.05,1.41.64-.52.53Zm2.45,3.14v0l-.18-.25.18.22Zm-5.93-2.07-1.11-.92.25-.31.55.5Zm2.32,5.69-2.2-1.57.21-.3,1.75,1.23.24.64Zm2.39,5.78-3.49-1.63.15-.33,3.12,1.44Zm-.22-24.75s-.06.09-.12.15a5.23,5.23,0,0,1-.34.49l-.3.43.52,1.42,0,0,.3-.22.68-.49.12-.24-.89-1.51Zm1.41,2.4,0,0,0,0,.18.24ZM193.6,128l.61,1.69.15.18.19.22.21-.46L193.6,128Zm1.71,2.43-.18.37,1.37,1.63-.06-.34-1.13-1.66Zm.67,11.22-9.23-12c4.22,10.24,5.84,18.57,12.75,27.61l2-1.1-3.88-7.39,4.8,6.86c.55-.31,1.13-.64,1.83-1l-.18-1-4.13-2.49-.43-1.84-.49-2.8-5.72-4-.76-.52.55-.77.21-.31.52-.77.77.53,1.43,1Zm26.92,9.84,1.25-9.53L219.9,152.2a9.94,9.94,0,0,1,.28,3.2l.91-3.45.25-.89.92.25.36.09Zm-25.42,44.07-.55,2.06c.58,0,1.16,0,1.72-.06l.76,0,1.68-1,.83-3.11,6.36-3.69-.18-.34-10.62,6.15Zm-.88-.24-.65,2.34c-.33,0-.7,0-1.07,0L193,194.33l.18-.77,2-.73ZM193.69,191l-.12-.18.18-.43.28.49-.34.12Zm14.13-24.69-.27.27-3.22,3.23.16-.12.73-.58.4.49,3.15-1.85.58-2.21.09-.16c-.27.16-.55.31-.79.47l-.83.46Zm.64,2.61-2.29,1.32.49.59-.74.58-2.6,2.22-.18.77.55-.4.37.52,3.42-2,.68-2.58,4.28-6.15-.31-.19-3.67,5.29Zm-1.28,4.77-2.63,1.54.43.61-.77.52-.33.25c.91-.22,1.8-.46,2.72-.74l.33-1.32,4.81-5.75-.28-.25-4.28,5.14Zm2.9,1.11.89-.9-.27-.24L209.32,175c.06,0,.12,0,.15-.06ZM198.52,191.6l-.7,2.67,4.56-2.64.73-2.68c-.43.06-.92.16-1.41.25l-.55.09-2,1.11.3.86-.85.31-.13,0Zm3.58-16.95-.09.28-.09-.15Zm-.82.68.15.24-1.19.83.15-.3.89-.77ZM197.45,192l-.52,2-.88-1.51,1.4-.52Zm-2.54-1.45-.39-.71c.88,0,1.8-.09,2.69-.15Zm12.21.92-.49,1.85-.71-1.17,1.2-.68Zm-2.3-1.26-.67-1.17.64-.36a.33.33,0,0,0,.19,0l1.83-.27.31.52-2.3,1.32Zm3.18-2.06-.06.25-.12.06-.12-.25c.09,0,.18,0,.3-.06Zm1.78-15.56.24.4-1.92,1.94-.13-.19Zm2.38-2.86.52.86-.79,2.92-.28-.27-.24-.28-.67-.65-.07.07-.27-.5,1.8-2.15Zm1-5.29.8,1.39-.95,3.62-.25-.43.31-.36-.7-.59-.31-.24v0l-.55-.95,1.65-2.4Zm1.75-2.15-.65,2.4-.55-1,.06-.09-.21-.15-.15-.25,1.5-.89Zm-6.64,28.51-.74,2.76,4.56-2.64.83-3.1,6.39-3.7-.18-.33-9.85,5.72.3.55-.82.46-.49.28ZM209,188l-.21.77,0,0,2.39-1.39c-.71.22-1.41.4-2.21.59Zm8.44-15.13,4-4.77-.27-.24L216.87,173h0l.55-.12Zm.68-4.65-4.56,2.65-.83,3.11c.49-.13.95-.28,1.44-.4l3-1.73.67-2.58,4.28-6.12-.3-.22Zm1.28-4.76-4.55,2.64-1,3.63,4.55-2.64.62-2.25,3.7-6.46-.31-.18-3,5.26Zm1.29-4.8,0,0,1.71-6.36-.37-.1-1.8,6.71-2.91,1.72a13.26,13.26,0,0,1-1.25.89l-.89,3.38,4.56-2.64,1-3.63Zm-1.56-9.5.85-3.29-.33-.13L219,148.3c0,.15.06.3.1.43S219.11,149,219.14,149.13Zm-12.88,45.48-.73,2.86c-.25,0-.46,0-.68-.06l-2-3.48,2.26-1.32Zm-2.51-4.43.28.49-.49.28Zm3.43,4.67-.7,2.68,1.16.09,3.15-1.81.82-3.11L218,189l-.18-.34Zm-20.52-.3L185.55,197c.49.06,1,.12,1.59.15a.18.18,0,0,0,.13,0l2.78-1,1.35-2.92,6.91-2.53-.12-.37-11.53,4.22Zm-.83-.4-1.28,2.74c-.19,0-.37,0-.56-.07l-1.56-4.24,1.35-2.92-2.51-6.95.37-.12,4.19,11.56Zm18.32-28.42-5,1.82L197.61,171l4.95-1.81,1-2.1,4.77-5.72-.28-.24-3.88,4.64Zm-2.08,4.49L197.12,172l-1.6,3.41,5-1.81,1.13-2.43,5.26-5.29-.24-.28ZM200,174.71l-5,1.82-1.59,3.38,5-1.82,1.22-2.58,5.72-4.83-.24-.27-5.11,4.3Zm-2.08,4.46L193,181l-1.59,3.41,4.95-1.81,1.29-2.71,6.08-4.31-.21-.31-5.57,3.91Zm-2.08,4.49-5,1.81-1.59,3.42,5-1.81,1.29-2.83,6.45-3.76-.18-.3-6,3.47Zm-7,6.31-1.59,3.38,5-1.82,1.35-2.89,6.91-2.55-.12-.34L188.8,190Zm7.73-27.81,1.81,5-1.56,3.41-1.81-5,.95-2.09,1.29-7.35.37.06Zm-2.08,4.5,1.81,5-1.56,3.41-1.81-5,1.11-2.43.64-7.47.4,0Zm-2.08,4.48,1.81,5-1.56,3.38-1.81-5,1.2-2.59v-7.5h.36Zm-2.07,4.49,1.8,5L190.54,184l-1.8-5,1.25-2.71-.64-7.44.36,0,.59,6.79Zm-2.08,4.49,1.8,5-1.56,3.41-1.8-5,1.28-2.83-1.28-7.38.36-.06,1.2,6.88Zm-.28,9.45L186.38,193l-1.8-5,1.34-2.89-2.51-7,.34-.16,4.19,11.6Zm26.46,8.91c-3.49,1.82-6.64,3.54-9.58,5.23a10.19,10.19,0,0,1-2.81,4.58l.09.19.19.31.09.18c3.79-3,7.67-6.46,12-10.49ZM197.7,210a19.22,19.22,0,0,1-2.94,0c-.52.36-1,.7-1.56,1.07h2.63Zm-50.44,10-1.37,5.11L143,226.78a28.46,28.46,0,0,1,1.78-5.35l1.68-1,4.28-6.15.31.22Zm4.26-2.49-1.35,5.14-3.24,1.87,1.37-5.13,2.27-1.33.91-1.07.19.09.15.06-.3.37Zm.09,2.95.79-3a7.66,7.66,0,0,1,.86.43l-.09,1.29-1.56,1.29ZM150.2,227l-3.82-1-3.24,1.87,5.1,1.36,1.26-.71-.1,0,.74-.59.06-.89Zm.31-3.41-3.12,1.78,2.9.8Zm29.27-6.89H176.5l2.6.83,6.09-3.54-.18-.33-5.23,3Zm1.56,1.54.94-.43-.15-.34-1.31.61.52.16Zm-12,9h-1.66l-.06.61-.94-.06-2.91-.28-2.36,2.37h3.46c.7-.12,1.44-.21,2.14-.31l1.81-1.81,1.31-.34-.52-.24-.27.06Zm-11.47,9.62h1.89l.31-.3c-.74.12-1.47.21-2.2.3ZM165,224.84l-.39.4-.37,0v-.74c.15.09.34.15.49.25l.27.12Zm-1.62-.8v1.08l-1.22-.1,1.19-1a0,0,0,0,0,0,0Zm-.82,3.29-1.81,1.82v-2l1.81.15Zm-2.66-.24V230l-.83.86-1.8.37V229l.3-.09,2.14-1.81ZM153.84,232v-1.19l1.8-1.82.83.09v2.31c-.89.18-1.77.4-2.63.61Zm.76-6.7-2.87,2.4,5.26.46,2.45-2.06,7.34.65,0-.37L154.6,225.3Zm-.61-.71-2.84,2.4.46-5.29,2.44-2.06.65-7.38.36,0Zm28.57-18-5.26-.46-2.88,2.43,5.26.46,1.78-1.47,6.7-3.17-.16-.34-5.44,2.55Zm-3.76,3.2-5.26-.46-2.88,2.4,5.26.46,2-1.69,7-2.58-.12-.34ZM175,213l-5.23-.46-2.87,2.4,5.26.46,2.17-1.85,7.22-1.94-.09-.33L175,213Zm-3.76,3.17-5.26-.46-2.84,2.42,5.26.47,2.29-1.94,7.31-1.29-.06-.37-6.7,1.17Zm-3.76,3.2-5.26-.47-2.84,2.4,5.26.46,2.35-2,7.43-.65,0-.37-6.91.62Zm-9,2.7-2.85,2.4,5.23.49,2.48-2.09,7.31.65,0-.37L158.46,222Zm18.68-21.89-.45,5.28-2.85,2.4.46-5.29,1.74-1.47,4.25-6.09.31.21-3.46,5Zm-3.76,3.16-.46,5.29L170.08,211l.46-5.29,2-1.72,3.73-6.49.3.19Zm-3.76,3.2-.46,5.29-2.87,2.4.49-5.29,2.17-1.85,3.15-6.79.33.15-2.81,6.09Zm-3.76,3.17L165.4,215l-2.87,2.4.45-5.26,2.3-1.94,2.54-7,.36.12Zm-3.76,3.2-.46,5.26-2.88,2.43.46-5.3,2.36-2,1.95-7.26.34.12Zm-4.25,8.45-2.85,2.4.46-5.29,2.45-2.06.64-7.38.37.06-1.07,12.27ZM146.74,237c14.62-1.08,25-3.26,40.8-8.31-17.06.74-27.71,2.31-42.51,6.65l.64.7,14.84-2.95,8.77-1.48h.1l-.07,0-9.54,1.87-13.67,3a6.59,6.59,0,0,0,.64.52Zm11.35,12.61,2-1-3.06-4.3,3.46,4.12,2.11-1-4.1-4.85,4.62,4.61,2.17-1L160,240.86l6,5,2.26-1.08-6.82-5.72,7.65,5.35,2.36-1.11-8.54-6,9.51,5.53,2.48-1.17-10.37-6c-.42.06-.82.15-1.25.21l-1.62.28-1.5,1.51c-4.74,0-7.25-.31-10.46,0l8.41,11.91Zm6.45-13.9,11.53,5.47,2.6-1.2-9.54-4.52h-3.24c-.46.09-.89.18-1.35.25Zm-10.79-5.94L151,228.68l-3.22,1.88L146,230l-2.57,1.32,1.83-1.72-1.77-.71.67.74-1.22,1.53.34.8,2.2-.86.7.59-2,1.9,6.85-3.62-6.57,4.18.43.61,6-2.3,2.23-1.66.77-1ZM196.08,212h-5.26l-2.66,2.65h5.29l1.62-1.63,6.42-3.72-.18-.34Zm-3.49,3.48h-5.26l-2.63,2.64H190l1.87-1.87,6.76-3.17-.16-.34-5.84,2.74ZM189.13,219h-5.29l-.06.09a29.46,29.46,0,0,1,2.72,1.14l.95.43,1.07-1,7-2.55-.13-.37L189.13,219Zm1-9.44v1.78L187.51,214v-4.7a0,0,0,0,1,0,0h.28c.15,0,.31,0,.46.06h.18a1.3,1.3,0,0,1,.15,0h.22a0,0,0,0,1,0,0H189l.89.09h0c.06,0,.12,0,.18,0Zm-3.48,0v5.32L184,217.46v-1.75l1.62-1,.82-.46-.49-.8-.18-.34-.46-.8-.79.47-.52.27v-1l1.86-1.88.52-1.1.4,0ZM183.2,213v.58l-1.41.83.77-.79,1.62-4.4.46-.16L183.2,213Zm0,3.2v1.26l-.06-.09L183,217l-.25-.55.46-.28Zm-.12,2.24-.28.25a.43.43,0,0,1-.18-.06l.06,0,.4-.16Zm-3.55-2.73.76-2.8.4-.12-.7,2.67Zm-9.42,13.22v-.65l1.38-.37a10.81,10.81,0,0,0,1.28.53v0l-.24,0Z"/><path class="cls-5" d="M85,94.35h95v93.5c0,19.28-20.46,16.39-30.25,16.39-7.53,0-10.74.18-17.25,5.93-6.55-5.75-9.76-5.93-17.28-5.93-9.79,0-30.25,2.89-30.25-16.39V94.35Z"/><path class="cls-6" d="M177.24,193.47l-.4,1.11-.49,1-.55.89-.64.83-.68.74-.76.65-.8.58-.88.56-1.9.89-2.11.67c-1.13.28-2.26.5-3.43.68a47.76,47.76,0,0,1-4.8.34c-3,.06-6.05-.06-9.08-.12a44.05,44.05,0,0,0-9.45.61A20.64,20.64,0,0,0,138,204a23.3,23.3,0,0,0-3.28,1.9c-.79.56-1.53,1.11-2.26,1.73a35.84,35.84,0,0,0-3.4-2.46,20.7,20.7,0,0,0-3.76-1.82,25.06,25.06,0,0,0-3.3-.77,61.44,61.44,0,0,0-7.8-.3c-3,.06-6,.18-9,.12-1.62,0-3.21-.15-4.83-.34-1.17-.18-2.27-.4-3.43-.68l-2.11-.67-1.9-.89-.85-.56-.83-.58L90.5,198l-.71-.74-.61-.83-.55-.89-.49-1-.43-1.11-.33-1.2-.25-1.35L87,189.44l-.06-1.63v-36.2h91.14v36.2l-.06,1.63-.15,1.48-.28,1.35-.33,1.2Z"/><path class="cls-7" d="M103.52,143.43c-2.47-.12-5-.21-7.43-.24-3.12,0-6.21.09-9.3.37v-9.08a21.46,21.46,0,0,1,7.16,1.3C98.81,137.5,102.42,140.54,103.52,143.43Zm2.88-5.16v0c.52.25,1,.52,1.5.77a10.72,10.72,0,0,1,2.47,1.78,4.43,4.43,0,0,1,.77.92,8.47,8.47,0,0,1,1.1,2.34c-2.54-.21-5-.43-7.58-.58v-.13c-.19-.46-.37-.86-.59-1.29l-.52-.86c-.3-.43-.61-.8-.94-1.2a14.66,14.66,0,0,0-1.2-1.17,14.08,14.08,0,0,0-1.34-1.11A23.77,23.77,0,0,0,98,136.45a0,0,0,0,0,0,0,25.3,25.3,0,0,1,2.66.22,21.79,21.79,0,0,1,5.81,1.63ZM100,135.53c-.43-.06-.89-.09-1.32-.12-.67,0-1.31,0-2,0a7.54,7.54,0,0,0-.82.06c-.52-.25-1-.43-1.56-.65l-1.32-.4a24,24,0,0,0-2.57-.61c-.61-.09-1.22-.19-1.86-.25s-1.19-.06-1.78-.09v-3c.89,0,1.81.09,2.76.21C94.2,131.32,98.08,133.22,100,135.53Zm1.19-3.14s0,.06,0,.1l1.07.46a11.46,11.46,0,0,1,1.1.71,9,9,0,0,1,1.07,1c.34.37.64.74,1,1.14l.46.83.15.4-1.37-.5c-.65-.18-1.29-.37-1.93-.52-.43-.06-.86-.15-1.29-.25a5.86,5.86,0,0,0-.64-.89l-.7-.73a14.52,14.52,0,0,0-1.19-1c-.46-.34-.92-.61-1.38-.92s-1-.55-1.59-.8a2.64,2.64,0,0,1-.49-.22,20.21,20.21,0,0,1,5.75,1.23Zm-8.26-2.27h-.52a.23.23,0,0,0-.12,0,4.12,4.12,0,0,0-.58-.15,20.43,20.43,0,0,0-2-.37l-.67-.1c-.77-.06-1.5-.12-2.24-.12v-3.2a14.6,14.6,0,0,1,2.7,1,8.13,8.13,0,0,1,3.45,3Zm2.75-2.06,0,0a8,8,0,0,1,1.11.4,10.75,10.75,0,0,1,2.26,1.23,7.14,7.14,0,0,1,.92.8,1.52,1.52,0,0,1,.33.34l.16.18-.92-.28c-.83-.18-1.62-.33-2.45-.46-.64-.09-1.31-.15-2-.18-.36,0-.7,0-1.07,0l-.36-.68-.52-.74a11.87,11.87,0,0,0-1-1l-.65-.52a18.54,18.54,0,0,1,4.16.89Zm-2.93-2.59c.46.28.89.53,1.31.83.13.13.25.22.34.31-.67-.15-1.32-.28-2-.37s-1.28-.15-2-.18c-.33,0-.67,0-1,0s-.65-.28-.95-.4c-.58-.19-1.13-.37-1.69-.52h0v-.8a12.83,12.83,0,0,1,4.1.46,14,14,0,0,1,1.87.7Z"/><path class="cls-3" d="M86.73,149.68v-5.26a97.59,97.59,0,0,1,13-.4c4.41.15,8.81.52,13.37,1a11.14,11.14,0,0,0-1.93-4.56,12.19,12.19,0,0,0-4-2.92c-.45-2.64-3.12-5.07-5-5.78a5.7,5.7,0,0,0-2.08-2.61,8.45,8.45,0,0,0-3.24-1.73c-2-2.89-6-4.18-10.07-3.78V96.32h91.15v53.36Z"/><path class="cls-7" d="M139.52,104.38a1.27,1.27,0,0,1,2.08,0c.65.74.77,2.43,2,3.5a5,5,0,0,0,4.56,1,4.76,4.76,0,0,0,2.26-1.05c.52-.46.8-1.44,0-1.72-.27-.12-.61-.21-.49-.52s.52-.22.74-.06a1.14,1.14,0,0,1,.4.52,1.7,1.7,0,0,1,0,.95,2.38,2.38,0,0,1-.46.83.9.9,0,0,0,.18,1.2c.58.49,1.93-.24,2.84-1.2s1.29-1.81.56-2.24c.39-1,1.13-1.11,2-1.2a1.58,1.58,0,0,0-1,.74,1.63,1.63,0,0,0,2.33,2.12c2,1,5.47-.8,6.6-2.46.8-1.2.37-2.8-.67-3.14-2-.64-1.53-2.27-1.07-2.64a2.78,2.78,0,0,1,1.62-.56,2,2,0,0,0-1.25.71,1.75,1.75,0,0,0,.55,2.28c.52.33,1.8,0,2.54-.19a5,5,0,0,0,2.44-1.57,2.72,2.72,0,0,0,.52-2.12c-.09-.43-.61-.43-.88-.37s-.55,0-.58-.31.18-.43.67-.39a1,1,0,0,1,1,1.13,4.74,4.74,0,0,1-.64,1.94,6,6,0,0,0,1-1.75,4.13,4.13,0,0,0,.13-1.48H154.6a3.87,3.87,0,0,0-1.1.55,3.42,3.42,0,0,1,1.81-.09,1.65,1.65,0,0,1,.82.71c.34.58.43,1.35.22,1.51s-.43.06-.58-.86c-.28-1.57-1.87-1.23-2.42-1.11a3.88,3.88,0,0,0-1.56,1.38c-.15.28-1,2.22.24,3s2.79-.77,2.79-.77a1.94,1.94,0,0,1-1.29,1.26c-1.1.4-2.54-.86-3.18-1.63s.55,0-1.16-1.66a5.92,5.92,0,0,0-4.28-1.51,4.29,4.29,0,0,1,1.16.52,2.24,2.24,0,0,1,1,1.91,3.42,3.42,0,0,0-.89-1.51,6.43,6.43,0,0,0-4.83-1,7.71,7.71,0,0,0-3.73,2.37,4.41,4.41,0,0,1-1.81,1.13c-.7.16-1.74.25-1.47-.4s.8.25,1.53.1a3.08,3.08,0,0,0,1.63-.93,23.31,23.31,0,0,0-4.78-1c-3.33-.09-5.59,1.11-6.54,3.91h10.46l2.9,2.15Z"/><path class="cls-5" d="M123.65,102.23v2.61H125v6a11.93,11.93,0,0,0-4.5,4.76,13.76,13.76,0,0,0-1.5,5.63h-2.48v3.08h-2.23v21.06h37.25V124.28h-2.26V121.2h-2.6a12.34,12.34,0,0,0-7.86-11.29V107h.73v-2.61l-2.93-2.15h-13Z"/><path class="cls-7" d="M124.41,103h11.47v1.14H124.41Zm9.79,7a7.83,7.83,0,0,0-.92-.34V105h1.26v5.1Zm-2-.62a8.85,8.85,0,0,0-.88-.12,6.15,6.15,0,0,0-.74-.06h-.79l-.34,0a12.39,12.39,0,0,0-1.47.21V105h4.44v4.36Zm-5.23.37a3.64,3.64,0,0,0-.61.21c-.21.1-.4.16-.55.25V105H127v4.67l-.06,0Zm-7.28,11.78a7.91,7.91,0,0,0,.06-.86l.07-.4,0-.4.09-.43.06-.4.09-.4.12-.4.13-.4.15-.4.12-.37.18-.4.16-.37.21-.37.19-.37.21-.34.21-.33.25-.37.24-.31.25-.34.27-.31.28-.31.3-.27.31-.28.31-.28.3-.24.34-.25.33-.21.37-.22.34-.21.36-.19.4-.18.37-.16.4-.15.61-.18c.21,0,.43-.1.64-.13l.21,0v1.14a7.69,7.69,0,0,0-1,.25l-.46.18-.46.19-.43.18-.43.25-.4.24-.21.16L125,113l-.25.18-.21.19-.25.21-.21.22-.22.18-.21.25-.18.22-.19.21-.18.25-.18.24-.19.25-.15.25-.15.24-.16.25-.15.27-.12.28-.12.25-.13.27-.12.28-.12.28-.09.27-.09.31-.1.28-.06.28-.12.58-.12.61-.06.59c-.06.8-.13,1.6-.16,2.37h-2.35v3.07h-2.27V144.6H115V125h2.24v-3h2.41l0-.46Zm12.88-11.1.55.18.4.12.37.16.36.18.37.16.37.21.33.22.37.21.3.25.34.24.31.25.3.28.28.3.27.28.28.31.27.31.25.33.21.34.25.34.21.34.19.37.21.37.15.37.19.37.15.39.12.37.15.4.1.4.12.4.09.4.06.43.06.4a4.79,4.79,0,0,1,.06.62c0,.43.06.83.1,1.26h2.41v3h2.27V144.6H144.2V126.15H142v-3.07h-2.36c-.06-.83-.09-1.63-.18-2.46l0-.34-.06-.37-.06-.34-.06-.34-.09-.34-.1-.33-.09-.34-.12-.34-.12-.34-.16-.31-.12-.33-.15-.31-.18-.31-.16-.31-.18-.3-.21-.28-.28-.4-.3-.37-.31-.37-.31-.34-.33-.31-.37-.3-.34-.31-.39-.25-.37-.24-.4-.25-.43-.21-.4-.19-.45-.15-.43-.12-.46-.13-.28-.06v-1.14a6.07,6.07,0,0,1,.83.16Zm-3-.28h1.23v34.48h-1.23V110.13Zm9.21,13.9H141v3.08h2.27V144.6h-3.52V128.15l-.06-.34-.1-.34-.12-.33-.12-.31-.18-.28-.22-.28-.21-.24-.25-.22-.27-.21-.31-.19-.3-.15-.31-.12-.34-.06-.36-.07-.37,0-.34,0-.33.07-.34.06-.33.12-.31.15-.28.19-.27.21-.25.22-.24.24-.21.28-.16.28-.15.31-.12.33-.09.34-.07.34V144.6h-1.07V112.34c.31.06.62.19.92.28l.28.09.27.13.28.12.27.15.25.13.27.15.25.18.24.19.25.18.21.19.24.21.22.22.3.31a2.71,2.71,0,0,1,.43.52,2.88,2.88,0,0,1,.4.52l.37.56.3.58c.1.18.19.4.28.61s.15.4.24.62.13.4.19.61l.18.65a4.94,4.94,0,0,0,.12.65c0,.24,0,.46.06.67.1,1,.16,2.13.22,3.17ZM128.6,112.34V144.6h-1.07V128.52l0-.37-.06-.34-.09-.34-.12-.33-.12-.31-.19-.28-.21-.28-.22-.24-.24-.22-.28-.21-.3-.19-.31-.15-.3-.12-.34-.06-.37-.07-.33,0-.37,0-.34.07-.33.06-.34.12-.3.15-.28.19-.28.21-.24.22-.24.24-.19.28-.18.28-.15.31-.13.33-.09.34-.06.34V144.6H117V127.11h2.24V124h2.29c.06-.68.09-1.32.12-2,0-.22,0-.43.06-.65a5.51,5.51,0,0,1,.06-.7c0-.25.1-.53.13-.8l.12-.53.12-.49.15-.52.19-.49.09-.25.09-.24.25-.46.24-.47.28-.43.27-.4.34-.4.3-.37.37-.36.37-.34.36-.31.22-.15.4-.28.42-.25.22-.12.21-.09.25-.12.21-.1.25-.09a9.15,9.15,0,0,1,1-.28Z"/><path class="cls-7" d="M151.54,144.14c8.78,0,17.56-6.79,26.34-7v3.14c-8.78.12-17.56,5-26.34,5Zm26.34-20.2v3.14c-8.78.36-17.56,13.19-26.34,13.25v-1.17C160.32,139.07,169.1,124.37,177.88,123.94Zm0,4.52v3.17c-8.78.27-17.56,10.33-26.34,10.39v-1.2C160.32,140.76,169.1,128.83,177.88,128.46Zm0,4.49v3.14c-8.78.21-17.56,7.56-26.34,7.59v-1.2C160.32,142.45,169.1,133.23,177.88,133Z"/><path class="cls-5" d="M147.26,195.62v-4.76h-2a4.47,4.47,0,0,0-.88-.86,2.13,2.13,0,0,0-.43-.31,2.55,2.55,0,0,0-.46-.25,3.44,3.44,0,0,0-.49-.21l-.55-.19c-.43-.12-.86-.21-1.29-.31s-1-.15-1.52-.24a4.74,4.74,0,0,1-1.78-.59,4,4,0,0,1-1.37-1.29,1.34,1.34,0,0,1,.39-1.78,3.69,3.69,0,0,1,1.5-.49c.55-.09,1.13-.16,1.68-.22a6.64,6.64,0,0,0-.27-1,5,5,0,0,0-1-1.36,38.74,38.74,0,0,0,6-.67,40,40,0,0,0,6.75-2.13,39.34,39.34,0,0,0,5-2.49c1.1-.67,2.14-1.41,3.21-2.18.28-.25,1.29-1,2.14-1.66.64-.46,1.1-.83,1.13-1.14a2.84,2.84,0,0,0-.33-.92,3,3,0,0,0-1.29-1.32,3.14,3.14,0,0,0-.58-.22,5.62,5.62,0,0,0-.76-.21v-1.2h3.54c-.21-.49-.42-1-.67-1.45a7.06,7.06,0,0,0-.89-1.29,5.31,5.31,0,0,0-1.83-1.17v-1.51H104.69v1.51a5.42,5.42,0,0,0-1.81,1.17,7.76,7.76,0,0,0-.92,1.29c-.24.46-.42,1-.64,1.45h3.55v1.2a7.86,7.86,0,0,0-.8.21,3.5,3.5,0,0,0-.55.22,3.09,3.09,0,0,0-1.31,1.32,2.78,2.78,0,0,0-.31.92c0,.31.49.68,1.1,1.14.89.62,1.87,1.41,2.18,1.66,1,.77,2.11,1.51,3.21,2.18a39.09,39.09,0,0,0,11.74,4.62,38.22,38.22,0,0,0,6,.67,4.42,4.42,0,0,0-1,1.36c-.12.34-.22.7-.31,1,.58.06,1.13.13,1.72.22a3.64,3.64,0,0,1,1.49.49,1.37,1.37,0,0,1,.4,1.78,3.91,3.91,0,0,1-1.41,1.29,4.42,4.42,0,0,1-1.77.59c-.49.09-1,.15-1.53.24s-.86.19-1.25.31l-.55.19a3.33,3.33,0,0,0-.52.21,2.94,2.94,0,0,0-.46.25,2.89,2.89,0,0,0-.43.31,4.38,4.38,0,0,0-.86.86h-2v4.76Z"/><path class="cls-8" d="M127.5,188.52a4.52,4.52,0,0,0,1.14-.89,2.92,2.92,0,0,0,.67-1.23,2.08,2.08,0,0,0-.28-1.69,1.91,1.91,0,0,0-.52-.5h7.93a2.46,2.46,0,0,0-.52.5,2.2,2.2,0,0,0-.28,1.69,3,3,0,0,0,.7,1.23,4.52,4.52,0,0,0,1.14.89Zm31.84-21v1.26H105.61v-1.26Zm.19-3.2a3.17,3.17,0,0,1,2,1,6.68,6.68,0,0,1,.94,1.45h-60a5,5,0,0,1,.94-1.45,3,3,0,0,1,2-1Zm0-1.42v.68H105.42v-.68Zm-22.15,18.15a35.57,35.57,0,0,0,10.4-1.45,40.66,40.66,0,0,0,9.55-4.55c1.71-1.2,3.3-2.46,4.92-3.78v0a3.09,3.09,0,0,0-.34-.68,2.4,2.4,0,0,0-1.43-1,3.33,3.33,0,0,0-2.85.15c-1.59.59-3.39,2.43-5.08,4.34a17.86,17.86,0,0,1-4,3.38C145.49,179.42,142.22,180.28,137.38,181.08Zm-.91-.49s.27,0,.39,0c2.76-.31,3.52-.16,6.46-1.08,5.47-1.91,6.45-3,8.29-4.92,1.1-1.14,2-2.22,3.09-3.48,1.62-1.9-2.67-2.27-3.86-.86-1.38,1.6-1.5,2-2.84,3.51s-3.12,4-5.88,5.16a40.11,40.11,0,0,1-5.29,1.57c-.12,0-.43.1-.36.13Zm-1.17-.22.34-.06A22.16,22.16,0,0,0,141,179c4-1.6,4.44-2.86,6.06-4.59.88-1,1.77-2.18,2.6-3.38,1.25-1.84-2.57-2.06-3.4-.77-1.65,2.56-1.89,3.72-4,6a18.31,18.31,0,0,1-6.64,3.94C135.52,180.22,135.18,180.31,135.3,180.37Zm-1.34-.25c.06,0,.24,0,.33,0a11.88,11.88,0,0,0,4-1.41,12.38,12.38,0,0,0,5.11-4.43c.67-1.11,1.25-2,2-3.26,1-1.81-2.88-2.15-3.64-.55-1,2.18-1.17,3.13-2.76,5.29a12.33,12.33,0,0,1-4.83,4.12c-.06,0-.33.18-.21.27Zm-1,0c.06,0,.21,0,.24,0a9.54,9.54,0,0,0,2.3-1.41,14.49,14.49,0,0,0,4.1-4.43,20.5,20.5,0,0,0,1.49-3.26c.74-1.81-3.27-2.37-4-.09a38,38,0,0,1-1.62,4.83,15.62,15.62,0,0,1-2.3,4.12C133.1,179.91,132.89,180,133,180.12Zm-.37,0c.09,0,.16-.09.19-.15a28.31,28.31,0,0,0,3.73-8.73c.64-2.25-3.46-2.68-3.58-.1l-.4,8.74c0,.06,0,.24.06.24Zm-6.79,3.39h13.31a2.15,2.15,0,0,0-.49-.83,6.14,6.14,0,0,0-3.37-2,12.52,12.52,0,0,0-2.72-.31h-.12a10.78,10.78,0,0,0-1.41.09,7.4,7.4,0,0,0-4.71,2.19,3,3,0,0,0-.49.83Zm15.05,6a7.22,7.22,0,0,1,2.94,1.05,3.66,3.66,0,0,1,.45.37H120.71a2.48,2.48,0,0,1,.43-.37,7.35,7.35,0,0,1,3-1.05c.34-.06.67-.12,1-.15h14.74C140.2,189.32,140.53,189.38,140.87,189.44Zm5.66,2.16v.8H118.45v-.8Zm0,1.53v1.76H118.45v-1.76Zm-19-12a35.35,35.35,0,0,1-10.37-1.45,41.44,41.44,0,0,1-9.58-4.55c-1.71-1.2-3.3-2.46-4.89-3.78l0,0a3.14,3.14,0,0,1,.37-.68,2.24,2.24,0,0,1,1.4-1,3.39,3.39,0,0,1,2.88.15c1.56.59,3.36,2.43,5.08,4.34a18.38,18.38,0,0,0,4,3.38C119.49,179.42,122.73,180.28,127.57,181.08Zm.94-.49a1.09,1.09,0,0,1-.42,0,25.51,25.51,0,0,1-6.46-1.08c-5.47-1.91-6.45-3-8.26-4.92-1.1-1.14-2.08-2.22-3.12-3.48-1.59-1.9,2.67-2.27,3.89-.86,1.34,1.6,1.47,2,2.84,3.51s3.12,4,5.88,5.16a39.62,39.62,0,0,0,5.26,1.57c.12,0,.42.1.39.13Zm1.17-.22a2,2,0,0,1-.34-.06A22.39,22.39,0,0,1,124,179c-4-1.6-4.41-2.86-6-4.59a31.49,31.49,0,0,1-2.6-3.38c-1.28-1.84,2.57-2.06,3.4-.77,1.62,2.56,1.86,3.72,4,6a18.05,18.05,0,0,0,6.64,3.94C129.46,180.22,129.77,180.31,129.68,180.37Zm1.34-.25c-.09,0-.27,0-.33,0a12,12,0,0,1-4.07-1.41,12.79,12.79,0,0,1-5.11-4.43c-.67-1.11-1.25-2-2-3.26-1-1.81,2.91-2.15,3.64-.55,1,2.18,1.16,3.13,2.75,5.29a12.65,12.65,0,0,0,4.84,4.12c.09,0,.36.18.24.27Zm.95,0s-.18,0-.24,0a10.16,10.16,0,0,1-2.3-1.41,15.28,15.28,0,0,1-4.1-4.43,23.68,23.68,0,0,1-1.47-3.26c-.73-1.81,3.25-2.37,4-.09a43.43,43.43,0,0,0,1.62,4.83,15.72,15.72,0,0,0,2.33,4.12C131.85,179.91,132.06,180,132,180.12Zm.4,0c-.09,0-.19-.09-.19-.15a28.31,28.31,0,0,1-3.73-8.73c-.64-2.25,3.46-2.68,3.58-.1l.4,8.74c0,.06,0,.24-.06.24Z"/><path class="cls-9" d="M23.39,59.91l-6.2,3.58h0l-6.85,4c-.5.29-1,.6-1.43.92A20.66,20.66,0,0,0,0,85.36V214.68a20.69,20.69,0,0,0,8.87,17c.48.33,1,.65,1.47.94l13,7.52Z"/></g></g></svg>