<svg xmlns="http://www.w3.org/2000/svg" viewBox="0 0 265.37 300"><defs><style>.cls-1{fill:#d81e05;}.cls-2{fill:#fff;}.cls-3{fill:#0051ba;}.cls-4{fill:#009847;}.cls-5{fill:gold;}</style></defs><title>Ресурс 16</title><g id="Слой_2" data-name="Слой 2"><g id="Слой_1-2" data-name="Слой 1"><path class="cls-1" d="M115.11,6.94,103.39,13.7,47.74,45.85,30.19,56l-13,7.51h0l-6.85,4c-.5.29-1,.6-1.43.92A20.66,20.66,0,0,0,0,85.36V214.68a20.69,20.69,0,0,0,8.87,17c.48.33,1,.65,1.47.94l13.7,7.9h0l13,7.51h0l10.66,6.16,55.67,32.12L115.11,293h0l7.26,4.19a20.67,20.67,0,0,0,20.68,0l7.21-4.17L162,286.3l55.65-32.15,16-9.25,13-7.51,8.39-4.84c.49-.29,1-.6,1.43-.92a20.67,20.67,0,0,0,8.9-17V85.32a20.69,20.69,0,0,0-8.87-17c-.48-.33-1-.65-1.47-.94l-13.9-8-1.55-.89-11.45-6.61h0l-10.48-6L162,13.72,150.26,7h0L143,2.77a20.68,20.68,0,0,0-20.68,0Z"/><path class="cls-2" d="M115.11,6.94,103.39,13.7,47.74,45.85,30.19,56l-13,7.51h0l-6.85,4c-.5.29-1,.6-1.43.92A20.66,20.66,0,0,0,0,85.36V200H265.37V85.32a20.69,20.69,0,0,0-8.87-17c-.48-.33-1-.65-1.47-.94l-13.9-8-1.55-.89-11.45-6.61h0l-10.48-6L162,13.72,150.26,7h0L143,2.77a20.68,20.68,0,0,0-20.68,0Z"/><path class="cls-3" d="M115.11,6.94,103.39,13.7,47.74,45.85,30.19,56l-13,7.51h0l-6.85,4c-.5.29-1,.6-1.43.92A20.66,20.66,0,0,0,0,85.36V100H265.35V85.32a20.69,20.69,0,0,0-8.87-17c-.48-.33-1-.65-1.47-.94l-13.9-8-1.55-.89-11.45-6.61h0l-10.48-6L162,13.72,150.26,7h0L143,2.77a20.68,20.68,0,0,0-20.68,0Z"/><path class="cls-4" d="M99,16.26,47.74,45.85,30.19,56l-13,7.51h0l-6.85,4c-.5.29-1,.6-1.43.92A20.66,20.66,0,0,0,0,85.36V214.68a20.69,20.69,0,0,0,8.87,17c.48.33,1,.65,1.47.94l13.7,7.9h0l13,7.51h0l10.66,6.16L99,283.72Z"/><path class="cls-5" d="M13.61,185.36l60.1-10.61,10.61-60.11L24.21,125.25Z"/><path class="cls-5" d="M84.32,185.36,24.21,174.75l-10.6-60.11,60.1,10.61Z"/><circle class="cls-5" cx="48.96" cy="150" r="40"/><circle class="cls-4" cx="48.96" cy="150" r="35"/><circle class="cls-5" cx="48.96" cy="150" r="30"/><circle class="cls-4" cx="48.96" cy="150" r="20"/><circle class="cls-5" cx="48.96" cy="150" r="16.67"/></g></g></svg>