<svg xmlns="http://www.w3.org/2000/svg" viewBox="0 0 265.37 300"><defs><style>.cls-1{fill:#fdfdfd;}.cls-2{fill:#3f48cb;}.cls-3{fill:#1f110f;}.cls-4{fill:#070707;}.cls-5{fill:#2a1818;}.cls-6{fill:#090909;}.cls-7{fill:#b32b29;}.cls-8{fill:#f6f6f6;}.cls-9{fill:#f5f5f5;}.cls-10{fill:#4f2320;}.cls-11{fill:#381a0a;}.cls-12{fill:#3b1f1e;}.cls-13{fill:#a02f2c;}.cls-14{fill:#545354;}.cls-15{fill:#b59d55;}</style></defs><title>Ресурс 4</title><g id="Слой_2" data-name="Слой 2"><g id="Слой_1-2" data-name="Слой 1"><path class="cls-1" d="M115.11,6.94,103.39,13.7,47.74,45.85,30.19,56l-13,7.51h0l-6.85,4c-.5.29-1,.6-1.43.92A20.66,20.66,0,0,0,0,85.36v24.69H52.31c1.19,0,2.37,0,3.56-.06q0-13.2,0-26.41c0-.84.09-1.68.14-2.52-.13-4.56-.16-9.13.12-13.69l0-2.05c0-1.87,0-3.74,0-5.61-.16-1.74-.33-3.48-.49-5.22,1.65.06,3.3.16,5,.17,15.4,0,30.8.05,46.21.12,3.71,0,7.42.23,11.13.36h3.06a13.43,13.43,0,0,1,4.56,0,51.93,51.93,0,0,1,8.64.06l72.72.08.48,0,1.05,0,1-.07c1.84-.63,2.08.3,2.07,1.89-.14,17.77-.21,35.54-.31,53.31,1-.54,2.16-.26,3.24-.27h50.8V85.32a20.69,20.69,0,0,0-8.87-17c-.48-.33-1-.65-1.47-.94l-13.9-8-1.55-.89-11.45-6.61h0l-10.48-6L162,13.72,150.26,7h0L143,2.77a20.68,20.68,0,0,0-20.68,0Zm10.18,9.33a3,3,0,0,1,4.24-1.42c.44.2.93.46,1.22-.23-1.5-1.45-1.75-3.07-.37-4.68a2.77,2.77,0,0,1,3.86-.57,3,3,0,0,1,1.22,4.12c-.19.42-.69.75-.47,1.3.57.46.95-.12,1.4-.2a3.09,3.09,0,0,1,3.83,2.05,2.85,2.85,0,0,1-1.36,3.69,3.08,3.08,0,0,1-4.25-.88c-.26-.31-.08-1.08-.85-.93-.4,3.53,1.05,6.71,2,10a108.86,108.86,0,0,0,4.39,11.6c-.39.06-.56.15-.64.1-1.27-.93-2.1-3.19-3.67-2.73-1.28.37-2.11,2.28-3.15,3.51-.16-.06-.33-.07-.42-.16-1.1-1.12-1.26-3.54-3-3.45-1.35.06-2.25,2.08-4.28,2.73,2.78-7.13,5.61-13.88,6.54-21.18l-.69.22c-1.12,1.89-2.73,2.14-4.47,1.09A2.83,2.83,0,0,1,125.29,16.27Z"/><path class="cls-1" d="M209.55,185.21q-1.28,3.58-2.54,7.19a1.62,1.62,0,0,1-.45,1.52l-.57,1.53a77.74,77.74,0,0,1-16.05,27A76.21,76.21,0,0,1,160.6,243c-2.11.83-4.31,1.42-6.47,2.12-7.35,2.33-14.91,2.84-22.56,2.73-19.27-.28-35.63-7.58-49.76-20.35-6.86-6.19-12-13.65-16.43-21.73-2.27-4.14-3.54-8.65-5.52-12.88-1.17-2.49-1.54-5.15-2.33-7.72-.84,0-1.68.11-2.53.11H0v29.4a20.69,20.69,0,0,0,8.87,17c.48.33,1,.65,1.47.94l13.7,7.9h0l13,7.51h0l10.66,6.16,55.67,32.12L115.11,293h0l7.26,4.19a20.67,20.67,0,0,0,20.68,0l7.21-4.17L162,286.3l55.65-32.15,16-9.25,13-7.51,8.39-4.84c.49-.29,1-.6,1.43-.92a20.67,20.67,0,0,0,8.9-17V185.28H212.6C211.58,185.28,210.57,185.23,209.55,185.21Zm-72.8,94.41a108.78,108.78,0,0,0,4.38,11.6c-.38.06-.56.15-.63.09-1.27-.93-2.1-3.18-3.67-2.72-1.28.37-2.12,2.28-3.15,3.51-.16-.06-.33-.07-.42-.16-1.11-1.13-1.28-3.58-3-3.44-1.3.1-2.47,1.77-3.93,2.56,2.42-7,5.25-13.72,6.17-21l-.69.23c-1.11,1.89-2.72,2.13-4.46,1.09a2.84,2.84,0,0,1-1-4,3,3,0,0,1,4.23-1.41c.45.2.93.45,1.22-.23-1.5-1.46-1.75-3.07-.36-4.68a2.76,2.76,0,0,1,3.86-.57,3,3,0,0,1,1.22,4.12c-.19.41-.74.73-.44,1.32.54.44.91-.14,1.37-.23a3.09,3.09,0,0,1,3.82,2.06,2.83,2.83,0,0,1-1.36,3.68,3.08,3.08,0,0,1-4.25-.87c-.26-.32-.07-1.08-.84-.94C134.38,273.17,135.83,276.35,136.75,279.62Z"/><path class="cls-2" d="M211.31,110.33a3.76,3.76,0,0,0-.23,2.22c-.05,19.06-.14,38.12-.09,57.18a66.49,66.49,0,0,1-1.44,15.48c1,0,2,.07,3,.07h52.77V110.06h-50.8C213.47,110.07,212.35,109.79,211.31,110.33Z"/><path class="cls-2" d="M57.53,185.17C55.65,177,56,168.7,56,160.41q0-23.7,0-47.39c0-1-.1-2-.15-3-1.19,0-2.37.06-3.56.06H0v75.23H55C55.85,185.28,56.69,185.21,57.53,185.17Z"/><path class="cls-3" d="M211.31,110.33a3.76,3.76,0,0,0-.23,2.22c-.05,19.06-.14,38.12-.09,57.18a66.49,66.49,0,0,1-1.44,15.48q-1.28,3.58-2.54,7.19c-2-.72.29-2.24-.59-3.17a.76.76,0,0,1,.05-.39c.51-.76,1.24-1.48.6-2.51.15-.52.31-1,.46-1.56.71-.55.44-1.34.48-2,1.83-12,.91-24.07,1.55-36.09.61-.52.47-1.23.48-1.89v-26.9a2.09,2.09,0,0,0-.4-1.67l.14-24.52a46.28,46.28,0,0,0,.73-5.7c.09-7.84.21-15.69-.09-23.53-.06-1.68,1-3.75-.72-5.29l-.12-.12c-.53-1.36-1.72-.82-2.63-.82q-29.76,0-59.5,0c-.82,0-1.71-.26-2.43.4-6.22.26-12.44-.14-18.66-.31a1.09,1.09,0,0,0-1.16.28c-1.94,0-3.88.1-5.82.09-10.46-.09-20.91-.22-31.37-.31-8.78-.07-17.57-.17-26.35-.13-3.94,0-4,.17-4.3,3.52H56.24l-.49-5.22c1.65.06,3.3.16,5,.17,15.4,0,30.8.05,46.21.12,3.71,0,7.42.23,11.13.36a2.29,2.29,0,0,0,3.06,0,13.43,13.43,0,0,1,4.56,0,15.85,15.85,0,0,0,8.64.06l72.72.08c.17.25.33.23.48,0l1.05,0c.36.5.7.44,1-.07,1.84-.63,2.08.3,2.07,1.89C211.48,74.79,211.41,92.56,211.31,110.33Z"/><path class="cls-3" d="M57.53,185.17C55.65,177,56,168.7,56,160.41q0-23.7,0-47.39c0-1-.1-2-.15-3q0-13.2,0-26.41c0-.84.09-1.68.14-2.52a44.26,44.26,0,0,0,.12-13.69l0-2.05h.95c.06,26.49-.35,53,.27,79.47.26,11.06-.53,22.14,1.09,33.18a83.73,83.73,0,0,0,10.58,30.15c3.33,5.75,7.58,10.74,11.86,15.73,1,1.76,1.54,4,4.23,4A1.74,1.74,0,0,1,86.53,229c.1,1.3,1,1.55,2,1.5h0c0,.68.36,1,1.07.95h0c-.05,1.13.73,1.07,1.49,1h0l.53.48,0,0c-.08,1.23.76,1.08,1.54,1l.5.36c.15,2.36,2,1.92,3.49,2.19h0l.69.46.14-.05.14.06c.65,1.82,2.43,1.54,3.79,2l.15,0,.13.05c.11.33.25.47.5.1l1,.33a.72.72,0,0,0,.77.57l1.31.23.53.31h0c1,1,2.44,1,3.65,1.53a.66.66,0,0,1,.39.09l.7.38.16-.05.15.07c.09.33.23.48.49.11l1,.39c1.43.53,2.84,1.12,4.28,1.58.89.29,1.81,1,2.78.16l1,.2c.21.54.48.85,1,.28l1,.18c.52,1,1.23.9,2,.32l1.55.32c.29.59.63.69,1,.07l3,.06c.16.27.33.27.5,0h1.54a.87.87,0,0,0,1.5,0l2.57,0A16.68,16.68,0,0,0,147.53,245l1.55-.19a2.69,2.69,0,0,0,3-.81l1-.2c.3.46,1,.59,1,1.31-7.35,2.33-14.91,2.84-22.56,2.73-19.27-.28-35.63-7.58-49.76-20.35-6.86-6.19-12-13.65-16.43-21.73-2.27-4.14-3.54-8.65-5.52-12.88C58.69,190.4,58.32,187.74,57.53,185.17Z"/><path class="cls-4" d="M133.76,18.52c-.4,3.53,1.05,6.71,2,10a108.86,108.86,0,0,0,4.39,11.6c-.39.06-.56.15-.64.1-1.27-.93-2.1-3.19-3.67-2.73-1.28.37-2.11,2.28-3.15,3.51-.16-.06-.33-.07-.42-.16-1.1-1.12-1.26-3.54-3-3.45-1.35.06-2.25,2.08-4.28,2.73,2.78-7.13,5.61-13.88,6.53-21.18.56-.77.21-1.64.28-2.46.83-.78,1.32-.67,1.56.5.12.55-.47,1.35.5,1.63Z"/><path class="cls-4" d="M134.78,269.63c-.4,3.54,1.05,6.72,2,10a108.78,108.78,0,0,0,4.38,11.6c-.38.06-.56.15-.63.09-1.27-.93-2.1-3.18-3.67-2.72-1.28.37-2.12,2.28-3.15,3.51-.16-.06-.33-.07-.42-.16-1.11-1.13-1.28-3.58-3-3.44-1.3.1-2.47,1.77-3.93,2.56,2.42-7,5.25-13.72,6.17-21,.55-.76.2-1.63.28-2.45.82-.78,1.31-.68,1.56.5.11.55-.48,1.34.5,1.63Z"/><path class="cls-5" d="M154.13,245.12c0-.72-.7-.85-1-1.31,2.68-1.66,5.82-2.1,8.68-3.3a75.15,75.15,0,0,0,24.9-17A84.64,84.64,0,0,0,203,199.23c1.5-3.26,1.86-6.82,3.46-10,.88.93-1.43,2.45.59,3.17a1.62,1.62,0,0,1-.45,1.52c-1.08.18-1.46.62-.57,1.53a77.74,77.74,0,0,1-16.05,27A76.21,76.21,0,0,1,160.6,243C158.49,243.83,156.29,244.42,154.13,245.12Z"/><path class="cls-6" d="M130.75,14.62c-1.5-1.45-1.75-3.07-.37-4.68a2.77,2.77,0,0,1,3.86-.57,3,3,0,0,1,1.22,4.12c-.19.42-.69.75-.47,1.3.57.46.95-.12,1.4-.2a3.09,3.09,0,0,1,3.83,2.05,2.85,2.85,0,0,1-1.36,3.69,3.08,3.08,0,0,1-4.25-.88c-.26-.31-.08-1.08-.85-.93l.05.07,1.25-4.07c-1.62.73-3,.91-4.31.17Z"/><path class="cls-6" d="M131.76,265.74c-1.5-1.46-1.75-3.07-.36-4.68a2.76,2.76,0,0,1,3.86-.57,3,3,0,0,1,1.22,4.12c-.19.41-.74.73-.44,1.32.54.44.91-.14,1.37-.23a3.09,3.09,0,0,1,3.82,2.06,2.83,2.83,0,0,1-1.36,3.68,3.08,3.08,0,0,1-4.25-.87c-.26-.32-.07-1.08-.84-.94l.05.08c.38-1.26.77-2.52,1.24-4.07-1.61.72-3,.91-4.31.17Z"/><path class="cls-4" d="M131.76,265.74v.07c-1,.61.25,1.19,0,1.8l0,2.65c-1.11,1.89-2.72,2.13-4.46,1.09a2.84,2.84,0,0,1-1-4,3,3,0,0,1,4.23-1.41C131,266.17,131.47,266.42,131.76,265.74Z"/><path class="cls-4" d="M130.75,14.62v.07c-1,.61.25,1.2,0,1.8l0,2.65c-1.12,1.89-2.73,2.14-4.47,1.09a2.84,2.84,0,0,1-1-4,3,3,0,0,1,4.24-1.42C130,15.05,130.46,15.31,130.75,14.62Z"/><path class="cls-5" d="M134.3,55.19a15.85,15.85,0,0,1-8.64-.06A51.93,51.93,0,0,1,134.3,55.19Z"/><path class="cls-5" d="M57.15,65.33H56.2c0-1.87,0-3.74,0-5.61h1.12A13.11,13.11,0,0,1,57.15,65.33Z"/><path class="cls-5" d="M56.17,67.37a44.26,44.26,0,0,1-.12,13.69C55.92,76.5,55.89,71.93,56.17,67.37Z"/><path class="cls-5" d="M121.1,55.13a2.29,2.29,0,0,1-3.06,0Z"/><path class="cls-6" d="M131.8,270.26l0-2.65,1,0c-.08.82.27,1.69-.28,2.45Z"/><path class="cls-6" d="M130.79,19.14l0-2.65,1,0c-.07.82.28,1.69-.28,2.46Z"/><path class="cls-3" d="M206,195.45c-.89-.91-.51-1.35.57-1.53Z"/><path class="cls-5" d="M209.55,55.13c-.3.51-.64.57-1,.07Z"/><path class="cls-5" d="M207.5,55.25c-.15.25-.31.27-.48,0Z"/><path class="cls-7" d="M57.15,65.33a13.11,13.11,0,0,0,.21-5.61c.34-3.35.36-3.5,4.3-3.52,8.78,0,17.57.06,26.35.13,10.46.09,20.91.22,31.37.31,1.94,0,3.88-.06,5.82-.09a1,1,0,0,0,1.16-.28c6.22.17,12.44.57,18.66.31,3.37.08,6.75.25,10.12.24,18.15-.06,36.3-.41,54.44.2l.12.13c0,4.4-.07,8.8-.06,13.2,0,7.1.09,14.21.14,21.31q-.08,12.27-.14,24.52,0,15.22-.08,30.46c-.64,12,.28,24.11-1.55,36.09a2.6,2.6,0,0,0-.48,2c-.15.52-.31,1-.46,1.55-.76.71-.52,1.66-.6,2.52a.76.76,0,0,0-.05.39c-1.6,3.18-2,6.74-3.46,10a84.64,84.64,0,0,1-16.25,24.25,75.15,75.15,0,0,1-24.9,17c-2.86,1.2-6,1.64-8.68,3.3l-1,.2a4.79,4.79,0,0,0-3,.81l-1.55.19-10.66,1.31-2.57,0-1.5,0h-1.54a.72.72,0,0,0-.5,0l-3-.06a.72.72,0,0,0-1-.07l-1.55-.32a2.15,2.15,0,0,0-2-.32l-1-.18a.67.67,0,0,0-1-.28l-1-.2a18.76,18.76,0,0,0-7.06-1.74l-1-.39-.49-.11-.15-.07-.16.05-.7-.38a.66.66,0,0,0-.39-.09c-.8-1.51-2.28-1.4-3.65-1.53h0l-.53-.31-1.31-.23c-.18-.29-.31-.65-.77-.57l-1-.33-.5-.1-.13-.05-.15,0a5.51,5.51,0,0,0-3.79-2l-.14-.06-.14.05-.69-.46h0a8.32,8.32,0,0,0-3.49-2.19l-.5-.36a2.24,2.24,0,0,0-1.54-1l0,0-.53-.48h0a1.92,1.92,0,0,0-1.49-1h0a1.1,1.1,0,0,0-1.07-.95h0a2.93,2.93,0,0,0-2-1.5,1.74,1.74,0,0,0-1.35-1.13c-1.31-1.45-2.32-3.21-4.23-4-4.28-5-8.53-10-11.86-15.73A83.73,83.73,0,0,1,58.51,178c-1.62-11-.83-22.12-1.09-33.18C56.8,118.31,57.21,91.82,57.15,65.33ZM193.41,82l-.5-.51a1.09,1.09,0,0,0-1.15-.88,2.06,2.06,0,0,0-3.07-.43A28.27,28.27,0,0,0,183,84.53a18.67,18.67,0,0,0-7.6,6.42c-3.72,5-7.27,10.25-8.72,16.61a43.46,43.46,0,0,0-.07,21,42.49,42.49,0,0,0,4,9.46c3.09,5.68,7.2,10.72,10.27,16.41l.34,1.84a2.26,2.26,0,0,0,.88,2l.21,1,.27.55L183,161l.4,1c0,1.84.73,3.54.44,5.5-.76,5.07-3.9,7.8-8.35,9.44-3.46,1.28-7.93-.88-8-4.23-.11-4.59-2.07-8.38-4.12-12.23.62-.76,0-.92-.55-1.14a1,1,0,0,0-.11-.39c-1.52-3-3.79-5.49-5.83-8.13-3.47-4.53-7-9-6.43-15.27l.09-1.53a.94.94,0,0,0,0-.5l.09-1a1.86,1.86,0,0,0,.48-1.56l.14-.87c.49-.28.88-.6.56-1.25l.22-1.48c.07,0,.19-.08.19-.11a1.8,1.8,0,0,0-.08-.39c0-.46.07-.91.11-1.37l.38-.64a1,1,0,0,0,.08-.38c.76-.32,1.44-.71,1.21-1.73l.15-.51a.78.78,0,0,0,.46-1,21.39,21.39,0,0,0,4.22-9.56c.08-.22,1,0,.36-.59.19-.67.32-1.32-.41-1.77v-.06c1.28-.24,1.52-1.15,1.47-2.26a1.76,1.76,0,0,0,.07-.45.92.92,0,0,0,.31-1.06,15.28,15.28,0,0,0,.57-5.5,37.19,37.19,0,0,0-6.43-18.91,4.1,4.1,0,0,1-1.16-2.47c.15-2.47-.68-5-2.57-6s-4.35-.52-6.57-.7a1.84,1.84,0,0,0-1.8.71c-1.17,2.07-3,2.35-5.17,2.44A5.25,5.25,0,0,0,133,77.49a18.66,18.66,0,0,1-2.1,2.44c-1.82,1.94-3.69,3.95-4.21,6.74-1.33,4.12-.87,5.38,2.93,8.17-2,1.57-2.87,4-4.49,5.94a1.52,1.52,0,0,0,0,2.23,1.75,1.75,0,0,0,2.22.55,5.29,5.29,0,0,0,2.35-1.77l1.64,2.14a4.11,4.11,0,0,1-2.15,4.18,127,127,0,0,0-10.61,7.21c-2.84,2.33-6.65,2.06-9.85.63a18.06,18.06,0,0,1-8.26-7.89c-1.46-2.61-3.88-3.75-6.71-4.22A6.3,6.3,0,0,0,91,100.32c-1.77-.83-1.76-1.67-.78-3.08A9.21,9.21,0,0,0,91,95.1c1.26-3.43,2.53-6.85,3.78-10.25,1.2.39,1.51,1.73,2.38,1.46s.4-1.48.63-2.25a21.49,21.49,0,0,0,.41-5.55c.68-.56.46-1.33.47-2.05.23-1.41,1-2.83-.21-4.43l-2.22,3-1,1c-1.81.19-2,.43-1.56,2,0,.46-.11.92-.17,1.38a4.15,4.15,0,0,1-.48.11c-1.11-.09-1.52.49-1.47,1.51-.84.23-1.32,1.23-2.33,1.24-.58-4-1.19-7.82-1.69-11.69-.14-1-.68-1.23-1.52-1.19l-.15-.85c.1-.71-.14-1.16-.92-1.15a1.4,1.4,0,0,0-1.45,1.15A68.84,68.84,0,0,0,81.16,78c-.43,2.83-1.22,2.83-3.24,2l-.5-.49c-.12-3.14-2.55-4.47-4.7-6l-1.44,0c-1.61,1.52-1.14,5.76.91,8.13l.1,2c-.56,1.45-1.42,2.94.61,4a2,2,0,0,0,.42,0c1.55-.63,2.41-.17,2.87,1.51.4,1.44,1.25,2.76,1.72,4.19.87,2.69,2.75,5.07,2.44,8.11l-.41.6-.3.4a3.52,3.52,0,0,0-.17,2.08c-.22,2.84-1.35,5.81,1.37,8.19.18.16-.13.94-.29,1.4-.91,2.68-1.85,5.36-2.78,8a7.24,7.24,0,0,0-5.35,5.15,15.26,15.26,0,0,1-1.25,3.55c-1.24,2.16-1.12,3.63,1.57,4.25l-.08.94c.28,1,1.15.19,1.65.52h0c3.26,1.53,3.21,1.51,4.3-2,.32-1,.29-2.47,1.86-2.72l.08,1.09.06,1.51v1.06a.89.89,0,0,0,.26,1A.93.93,0,0,0,81,137c.12.31.27.3.44,0l.53-.22,1.47.23c.88,1.44,1.8,1.14,2.74.06,2.35.17,3.4-.79,2.94-3.23a10.6,10.6,0,0,1,.1-2.25c1.14,1.22,1.32,2.51,1.81,3.65.62,1.48,1.31,1.23,2.08.14l.6,0h0c.11.28.18.77.34.8.58.11.54-.41.59-.79l.53-.5c1.42-.09,2.83-.16,4.25-.3s2.38-.63,1-2.09a2.28,2.28,0,0,1-.83-2.23c.32-.8,1.36-.32,2.08-.4l.16,1a1,1,0,0,0,.51,1h0l.48.51.56,1,.47,3a1.28,1.28,0,0,1-.43.1c-1.1-.18-1.67.25-1.62,1.4a1.18,1.18,0,0,1-1,.63c-1.94-1.1-2.75.92-4.08,1.48l-1,0c-.73,0-1.53-.27-2.09.48-2.63,1.24-5,3.68-8.32,1.64-.13-.09-.54.27-.82.42l-1,.14c-.66-.16-1,.2-1.13.78h0c-2.41,1-2.87,2.86-2.15,5.18l.14.56c.37,1.1.83,2.14.25,3.36a1.67,1.67,0,0,0,.78,2.17c.39.88.81,1.7,2,1.64,1.39.57,1.12-.39,1.05-1.15,1.34-1.65,2.07.33,3.1.52h0a16.64,16.64,0,0,0,1.28,2.73c.66,1,1.78,1.27,2.57.32,2.36-2.84,2.31-2.89,5.19-1.15a2.78,2.78,0,0,0,3.11.1c1.07-.66.39-1.47.13-2.23a1.82,1.82,0,0,1,.3-1.91c2.75-2.9,5.22-6.23,9.74-6.48l.57.39.1,0c1.6.87,2.88,2.7,5.1,1.7,2-.61,3.48.52,4.63,1.88a37.77,37.77,0,0,0,10.37,8.88,24.94,24.94,0,0,1,5.77,4.08,2.1,2.1,0,0,1,.18,3.27c-2,2.59-4.65,1.86-7,1.21a10.31,10.31,0,0,0-10.52,2.4,28.06,28.06,0,0,0-2.71,3.58,18.48,18.48,0,0,0-4.05,14.44c.58,3.87-.8,6.24-3.24,8.6-1,1-2,2.06-3.69,1.28v0l-.44-.62a2.62,2.62,0,0,0-3.89-1.58,19.8,19.8,0,0,0-4.14,2.82c-1.2,1-1.81,4.74-.86,5,2.32.72,1.6,2.35,1.58,3.81,0,1.63.27,2.87,2.37,2.66.92-.1,1.48.35,1.74,1.4,1,4.3,1.74,4.52,4.92,1.7a2,2,0,0,0,.3-.4l1.32-.56,1.56.55a12.29,12.29,0,0,1,2,1.08,3.57,3.57,0,0,0,4.2.51c1.54-.83.67-2.14.51-3.35-.38-2.77,1-4,4-3.52a1.28,1.28,0,0,0,1.57-.88,4.21,4.21,0,0,0,3.14-1.24c2.24-1.84,2.51-4.16,2.48-6.8,0-3.16,1.53-4.6,4.13-4.13s3.87-1.13,5.26-2.66c1.56-1.73-1.7-1.16-1.24-2.44a3.73,3.73,0,0,0,.05-1c1.65-.36,2.29.47,2.87,1.94.9,2.28,1.15,4.81,2.54,6.9.4,4.43,4.1,5.13,7.28,6.27,1.32.47,2.62.67,3.12,2.18a6.85,6.85,0,0,0,.14.74c1.06,4.29-.25,5.86-4.56,5.41-1.44-.15-2.29.38-2.32,1.92,0,.14-.07.28-.09.43-1.07.15-2.16.63-2.23,1.7-.2,2.85-.64,5.75.37,8.56l0,0a.86.86,0,0,0,.92.54l0,0c0,.35.12.72.54.69s.47-.39.48-.74l0,0a.47.47,0,0,0,.36-.29c2.66-.13,5.54-.95,7.2,2.21.06.12.29.16.45.21,2.06.7,3.47-.34,3.29-2.44-.08-.9.53-1.24,1.22-1.23a11.37,11.37,0,0,1,2.19.45c1.46.66,2.93,1.44,4.19-.33.23-.22.7-.53.65-.62-1.34-3.09-1-5.74,1.73-8a2.91,2.91,0,0,0,.8-1.81,14.89,14.89,0,0,1,2.56-6.47c1.27-2,.25-3.46-1.29-4.6-3.24-2.42-5.8-5.14-5.07-9.63.6-.36,1.1-.77.78-1.58l.27-.91c1.83-.49,2.53-1.95,3.07-3.56l.86.11c1.58.73,3.3.15,4.91.52a14.83,14.83,0,0,0,9.91-1.19l.52-.13c.66.16,1-.25,1.19-.77,5.87-2.12,10.57-8,10.15-14.18,1-1.5.19-3.13.29-4.69.47-7.2-1.83-13.72-5.27-19.91-1.26-2.27-2.42-4.62-3.87-6.77-2.83-4.16-3.76-9.14-6.06-13.52,0-.35-.08-.7-.11-1-.1-3.25-.19-6.49-.29-9.73,1.2-5.34,3.93-9.9,7.2-14.2,1.66-2.17,3.8-4,4.91-6.58l.29-.42c.1-.33.19-.66.29-1a3.56,3.56,0,0,0,1.38-2.62l.05-.07c.81-.67.46-1.62.56-2.46.14-.68.29-1.36.43-2,0-.91,1.19-2-.34-2.69l-.05-.84c.32-.61-.18-.51-.49-.58l0,0Z"/><path class="cls-5" d="M209.58,57c-18.14-.61-36.29-.26-54.44-.2-3.37,0-6.75-.16-10.12-.24.72-.66,1.61-.4,2.43-.4q29.75,0,59.5,0C207.86,56.2,209.05,55.66,209.58,57Z"/><path class="cls-5" d="M209.78,91.66c-.05-7.1-.12-14.21-.14-21.31,0-4.4,0-8.8.06-13.2,1.71,1.53.66,3.6.72,5.28.3,7.84.18,15.69.09,23.53A46.28,46.28,0,0,1,209.78,91.66Z"/><path class="cls-5" d="M209.56,146.64q0-15.22.08-30.46a2.09,2.09,0,0,1,.4,1.67v26.9C210,145.41,210.17,146.12,209.56,146.64Z"/><path class="cls-5" d="M206.47,188.84c.08-.86-.16-1.81.6-2.52C207.71,187.36,207,188.08,206.47,188.84Z"/><path class="cls-5" d="M207.53,184.77a2.6,2.6,0,0,1,.48-2C208,183.43,208.24,184.22,207.53,184.77Z"/><path class="cls-5" d="M126.36,56.27a1,1,0,0,1-1.16.28A1.09,1.09,0,0,1,126.36,56.27Z"/><path class="cls-5" d="M136.87,246.32,147.53,245A16.68,16.68,0,0,1,136.87,246.32Z"/><path class="cls-5" d="M81,223.86c1.91.82,2.92,2.58,4.23,4C82.49,227.89,82,225.62,81,223.86Z"/><path class="cls-5" d="M113,243.14a18.76,18.76,0,0,1,7.06,1.74c-1,.84-1.89.13-2.78-.16C115.82,244.26,114.41,243.67,113,243.14Z"/><path class="cls-5" d="M93.76,234.37a8.32,8.32,0,0,1,3.49,2.19C95.8,236.29,93.91,236.73,93.76,234.37Z"/><path class="cls-5" d="M98.22,237a5.51,5.51,0,0,1,3.79,2C100.65,238.58,98.87,238.86,98.22,237Z"/><path class="cls-5" d="M149.08,244.82a4.79,4.79,0,0,1,3-.81A2.69,2.69,0,0,1,149.08,244.82Z"/><path class="cls-5" d="M106.4,240.62c1.37.13,2.85,0,3.65,1.53C108.84,241.61,107.4,241.65,106.4,240.62Z"/><path class="cls-5" d="M86.53,229a2.93,2.93,0,0,1,2,1.5C87.49,230.57,86.63,230.32,86.53,229Z"/><path class="cls-5" d="M123.12,245.54a2.15,2.15,0,0,1,2,.32C124.35,246.44,123.64,246.58,123.12,245.54Z"/><path class="cls-5" d="M91.72,233a2.24,2.24,0,0,1,1.54,1C92.48,234.06,91.64,234.21,91.72,233Z"/><path class="cls-5" d="M89.65,231.48a1.92,1.92,0,0,1,1.49,1C90.38,232.55,89.6,232.61,89.65,231.48Z"/><path class="cls-5" d="M121.08,245.08a.67.67,0,0,1,1,.28C121.56,245.93,121.29,245.62,121.08,245.08Z"/><path class="cls-5" d="M126.69,246.18a.72.72,0,0,1,1,.07C127.32,246.87,127,246.77,126.69,246.18Z"/><path class="cls-5" d="M88.57,230.52a1.1,1.1,0,0,1,1.07.95C88.93,231.54,88.6,231.2,88.57,230.52Z"/><path class="cls-5" d="M132.8,246.32l1.5,0A.86.86,0,0,1,132.8,246.32Z"/><path class="cls-5" d="M103.79,239.52c.46-.08.59.28.77.57A.72.72,0,0,1,103.79,239.52Z"/><path class="cls-5" d="M105.87,240.32l.53.31Z"/><path class="cls-5" d="M110.44,242.24l.7.38Z"/><path class="cls-5" d="M111.45,242.64l.49.11C111.68,243.12,111.54,243,111.45,242.64Z"/><path class="cls-5" d="M130.76,246.31a.72.72,0,0,1,.5,0C131.09,246.58,130.92,246.58,130.76,246.31Z"/><path class="cls-5" d="M91.14,232.52l.53.48Z"/><path class="cls-5" d="M97.25,236.57l.69.46Z"/><path class="cls-5" d="M102.29,239.09l.5.1C102.54,239.56,102.4,239.42,102.29,239.09Z"/><path class="cls-1" d="M131.75,16.46l-1,0c.24-.6-1-1.19,0-1.8,1.33.74,2.69.56,4.31-.17l-1.25,4.07c-1-.28-.38-1.08-.5-1.63C133.07,15.79,132.58,15.68,131.75,16.46Z"/><path class="cls-1" d="M132.77,267.58l-1,0c.23-.61-1-1.19,0-1.8,1.34.74,2.7.55,4.31-.17-.47,1.55-.86,2.81-1.24,4.07-1-.29-.39-1.08-.5-1.63C134.08,266.9,133.59,266.8,132.77,267.58Z"/><path class="cls-8" d="M158.74,109.25v.06c-.79-.13-1.75-.88-1.67,1a9.51,9.51,0,0,1-.88,5.12c-.72-.22-.38-1.36-1.16-1.18s-.37,1-.31,1.49c.24,2.25-.5,5.25-1.93,5.64-2.18.59-1.41,1.57-1.45,2.67-.59.49-1.73.67-1.07,1.87a26.34,26.34,0,0,1-.55,6.57.35.35,0,0,0-.05.47,14.07,14.07,0,0,0,0,6.61,11.73,11.73,0,0,0,2.44,6.53c3,4.34,6.21,8.59,9.33,12.88a37,37,0,0,1,2.35,5c.83,2.77,2.56,5.28,1.57,8.59-.54,1.78,3.83,5.3,6.38,5.78,4.6.85,8.28-1.17,10.95-4.45,2.82-3.47,3.07-7.73,1.44-12l-.28-1a20.7,20.7,0,0,0-2.65-7.46c-.44-1-.86-2-1.33-3-2.33-4.81-5.94-8.8-8.46-13.5-7.39-13.8-6.3-27.2,1.59-40.35,2.63-4.4,6.37-7.82,10.2-11.14,2.74-1.56,5-4.25,8.56-4,0,.16.14.21.3.16l.63.55,0,0,.48.56h0c1.39,3,.11,5.91-.53,8.82h0c-.17.36-.34.73-.52,1.09h0c-2,3.6-4.88,6.45-7.44,9.56-6,7.32-7.16,15.61-5.53,24.58a47.91,47.91,0,0,0,6.46,15c5.53,8.83,9.4,18.06,8.84,28.72a22.84,22.84,0,0,1-4.58,10.23c-2.61,3.38-5.45,4.44-8.45,3.17-.71.44,1.22,1.93-.77,1.9-.85,0-1.53-1.1-2.75-.23.62.25,1.22.48,1.14,1.16-2.52.44-5.06-1-7.58,0l-2.79-1.78a24.87,24.87,0,0,1-3-5c-.86.57-.25,1.26-.55,1.77l-.18.69c-1,.07-.6.73-.51,1.24l-.13.16.18.08c.14.9,1.07,1.83-.07,2.69a13.76,13.76,0,0,1-1.71-4.81c-1.23.51-.52,1.41-.74,2l-.63.82c-1.5,2.29.87,2.71,1.84,3.8-.17,1.25-.33,2.5-.5,3.75a9.39,9.39,0,0,0,4,11.15c.94.51,2.65.58.35,1.74-.51.25.09.78.43.84,2,.35,1.11,1.35.33,1.95a4.06,4.06,0,0,0-1.38,3.11,11,11,0,0,1-.63,3c-.84,2-2.89,2.72-4,1.56a3,3,0,0,0,.44,2.63c.89,1.67.74,2.95-1.55,3.08a1.2,1.2,0,0,0-1.19.76c-.38.26-.34,1.13-1,.89s-.65-.93-.68-1.51c-.05-1.18.94-2.24.3-3.55-.27,2-3.15,2.83-2.28,5.43.19.59-.41,1.07-1.09.33-1.2-1.3-2.34-1.45-3.52.12-.67.9-.53-.44-.91-.45-.05-1.9,1.45-3,2.26-4.5.28-.14.66-.2.83-.43s-.08-.44-.37-.46l-2.49-.21-.41-.92.36-1.2c2.82-1.81,3-4.57,2.69-7.5.12-3.74-2.59-5-5.42-6-2.57-.89-4.73-2.1-5.94-4.65-.93-2.67-.91-5.63-2.42-8.13l-.56-2a14.53,14.53,0,0,1,3.79-11.26,6.51,6.51,0,0,0,.79-1.53c.79-2.73,1.53-5.47.51-8.34v2.13c-1.76.09-1.45,1-.79,2-1.86.05-2.62-.75-2-2.6.33-1,.45-2-.53-2.74-1.19-.91-2.16-2.13-3.68-2.57-.84-.55-1.65-1.16-2.52-1.65-5.27-3-10.35-6.25-13.62-11.62l-.21-.51c1.08-.86,2.73.13,3.69-1.13,1,0,2.65-.29,1.81-1.5-1.47-2.14-.09-2.62,1.28-3.23a9.07,9.07,0,0,0,2.94-1.8c1.27-.37,1.59-1.41,1.74-2.54a6.27,6.27,0,0,1,4.41-5.33c1.92-.73,3.76-1.72,4.57-3.88-3.3,3.48-10,3.45-10.32,10,0,.3-.27.59-.42.89-1.16.51-2.32,1-3.49,1.52-2,.87-2.85,2.28-2,4.45l-.56.42-1-.28c-1.17-.67-2.85,1-3.84-.84-.19-.36-.76.06-.78.53,0,.74,0,1.48,0,2.22l-1.56-.47c-.73-.51-1.12-1.8-2.13-1.52s-.33,1.3-.37,2c-.81.18-1.33-.53-2-.66a.16.16,0,0,0-.2-.15h0c-3.7-2.9-5.2-2.72-8.31.58-1.08,1.15-2,3-4.32,2.07-.79-.32-1.28.73-1,1.31,1.2,2.72-1.25,2.3-2.44,3a.91.91,0,0,1-1.32-.13,1,1,0,0,1,.07-1.38,2.22,2.22,0,0,0,.64-2.68c-1.58.47-1.79,1.69-2,3-.21,1.12-.3,2.76-2.09,1.05a1.8,1.8,0,0,0-2.34-.16,1.32,1.32,0,0,1-2-.31l.55-1.35c.73-1,2.33-.76,3.15-2.27-1.68.19-3,.21-4,1.46-1.08,1.29-2.15,1.66-3.16-.07h0c-1.1-2.69-.87-3.08,1.86-3,.89,0,1.62-.16,1.8-1.23-3.45-.18-3.78-.62-2.7-3.4.47-.14,1-.5,1.43-.11,2,1.78,3.63.86,5.34-.48a5.17,5.17,0,0,1,2.84-1.53c5-.14,8.62-2.89,12.18-5.89a11.86,11.86,0,0,0,2.49-1.17c2.75-2.15,6.47-3.18,8-6.81,3.93-3.58,6.88-8.17,11.67-10.88-.47-.23-.74-.26-.93-.16a26.55,26.55,0,0,0-10,9.44,2.3,2.3,0,0,1-1.66,1.23c-.58-1.73-.1-3.48,0-5.22.38-2,2-3.26,2.88-5,2.55-3.26,6.12-5.2,9.62-7.19a10.1,10.1,0,0,0,4.92-5.49l2.72-1.7a6.94,6.94,0,0,0-2.16.15c-1.93,1-2.4-.51-2.93-1.7-.68-1.52.36-2.19,1.59-2.56a22.92,22.92,0,0,1,2.48-.42c1.47-.25,3.08-.69,3.11-2.39,0-1.88-1.66-2.39-3.23-2.57a34.82,34.82,0,0,0-3.54,0c-2.49,0-3.59-1.07-3-3.43.38-1.49.38-2.46-.91-3.3,1.43-3.09,4.14-5.2,6.07-7.89a4.94,4.94,0,0,1,3.56-2.44c1.58-.17,3.18-.21,4.76-.3l2.94.35L144.7,78l0,.4L145,78c.41,0,.88.13,1.06-.44a2.33,2.33,0,0,0,.38,0,1.76,1.76,0,0,0,.24.42l.14,1.62.4,0c.11-1.05.21-2.09.32-3.14.26-.49.42-1.09,1.18-1s.84.7.93,1.24c.15.88.21,1.77.3,2.66L148,82.19A2.76,2.76,0,0,0,150.47,80a5.75,5.75,0,0,0,.19-4.2l1-.11a5.45,5.45,0,0,1,.45,1.94c-.34,2.3.28,3.8,2,5.67,3.87,4.1,4.48,9.78,5.66,15.09v6c-.18.86-.36,1.72-.53,2.59A4.28,4.28,0,0,0,158.74,109.25ZM139.32,87.49a2.68,2.68,0,0,0,2.93,1.12c-1.73-1.11-.66-2.94-1.73-4.1A2.31,2.31,0,0,0,139,83c-2.08-.55-3-1.77-2.4-4.07-1.45,1.34-.62,2.8-.66,4.2s.28,3.05-1.63,3.91C136.14,87.5,137.79,86.79,139.32,87.49Zm2.81,5.38c-3.28,2.24.81,5.59-1.29,8C144.25,98.76,140.25,95.29,142.13,92.87Zm9.91,28c0-.35-.13-.66-.54-.69s-.44.36-.43.64,0,.66.47.67S152,121.2,152,120.91Z"/><path class="cls-9" d="M108.28,213.24l-1.32.56c-1.12-.11-1.2-.89-1.3-1.78s-.37-2.13-1.56-1.89c-2.18.42-1.83-.88-1.72-2.13.15-1.82.08-3.48-2.4-3.48-.55,0-.72-.32-.65-.81a1.83,1.83,0,0,1,1.09-1.56c.53-.26,1,.88,1.55-.11a2.78,2.78,0,0,0-.58-.66c-1.31-.75-1.53-1.77-.53-2.85s2-.27,2.9.34,1.21,2.73,3.11,1.67c3.55-1.41,5.31-4.53,7.18-7.54a1.76,1.76,0,0,0,0-1.71c-1.48-3.16-.71-6.34,0-9.45,2.06-8.94,8.56-13.35,16.86-11.61,4.19.89,6.55-.53,7.95-4.76,1.44.13,1.7,1.17,1.12,2.1-1.25,2,0,2.92,1.43,3.79,1,.6,1.76,1.31,1.45,2.62-2.93,3.8-5.79,7.62-5,12.86a1.48,1.48,0,0,1-1.4.81c-2.3,0-3,1.1-2.14,3.21-.27.45,1.62,1.58-.5,1.48-1.13-.06-.93.55-.45,1.25s-.25.73-.65.9c-2.26-.05-4.59-.86-6.41,1.49s.53,4.68-.43,6.94c-1-.37-.77-1.8-2.06-1.76.29,1.46.69,2.85-.1,4.15-1-.12-.6-1.39-1.77-1.61,0,2.51-1.09,3.29-3.56,2.19-.92-.41-2,.54-2.4,1.76a.19.19,0,0,0-.14.27.59.59,0,0,0-.39.75c-.34.94.21,2-.38,3-1.09-.33-2.23-1.37-3.27.07a.16.16,0,0,0-.18.17c-.23.23-.45.66-.67.65-.6,0-.42-.58-.45-.95-.16-1.76,1.79-2.44,2.25-4.19-2.34.47-4.49.76-3.77,3.83C109.26,212.13,108.53,212.57,108.28,213.24Z"/><path class="cls-3" d="M79.47,104.47a3.52,3.52,0,0,1,.17-2.08l.3-.4.41-.6c.93-.37.29-1.53,1-2a.58.58,0,0,1,.12.4,1,1,0,0,0,.46,1.11.64.64,0,0,1,.2.44c-.53.3-1,.65-.74,1.34a8.59,8.59,0,0,0,1.1-.28.2.2,0,0,1,.12.22,4,4,0,0,0,.1.89c.57,0,.63-.39.66-.83l-1-3.62c1-.67,1-1.87,1.62-2.73.57,1.9-.48,4.07.94,5.84l.07.68-.07.07-.38.56c-.11.46-.46,1-.29,1.37.34.65.78-.07,1.19-.15.57-.12,1.11-.82,1.75-.15,0,.51-.87.67-.56,1.32-.61,1-.65,1.94.44,2.67l0,0c-.58.15-1.71-.4-1.27,1,.22.54.19,1.2.78,1.55v0c.3,3,1.67,5.58,3.06,8.17l0,0a5.5,5.5,0,0,0,1,2.72,3.38,3.38,0,0,0,.6,2c.49,1.62,1,3.24,1.48,4.86l.32.6.39.95-.78.65-.52-1.08a1,1,0,0,0-.74-1.1l.17-.72a2.42,2.42,0,0,0-.88-1.72c-1.28.68-1,1.88-1,3-.48,1-1,.82-1.46,0a7.75,7.75,0,0,0-.66-3.52,1.83,1.83,0,0,0,2-2.48,27.27,27.27,0,0,0-3.1-8,16.22,16.22,0,0,0,1.12,10.5c-.45.21-.82-.65-1.41,0a2.76,2.76,0,0,1,.57,3.25c-.81,1.22.21,1.58.43,2.31-.4.06-1.1.12-.91.56.77,1.76-.21,3.45,0,5.17-.94,1.08-1.86,1.38-2.74-.06l.06-1.18-.15-2.59c-.24-.2-.71-.53-.68-.58,1-1.87,0-3.55-.41-5.29.94-1,.46-2.58,1.29-3.66,1.57.57,2,0,1.46-1.48v-9.76c-.32.38-.5.5-.51.62,0,2.18-.07,4.37-.09,6.55-.69-.49-.11-1.55-.89-2,0-.65-.06-1.31-.08-2a.89.89,0,0,0-.88-1.11c.13-.66.27-1.32.4-2,0-.66-.06-1.32-.08-2-2.53.21-1.63-2.25-2.52-3.32C79.75,106.61,80.6,105.2,79.47,104.47Zm5.26,30.8c1-3,.84-8.87,0-10.11Zm-1.22-28c-.61-.72-.06-2.3-1.62-2.6-.39-.07-.57.57-.43.71.75.81,0,2.43,1.48,2.79C83.65,108.34,83.46,107.81,83.51,107.27Z"/><path class="cls-10" d="M138.88,165.47c-1.4,4.23-3.76,5.65-7.95,4.76-8.3-1.74-14.8,2.67-16.86,11.61-.72,3.11-1.49,6.29,0,9.45a1.76,1.76,0,0,1,0,1.71c-1.87,3-3.63,6.13-7.18,7.54-.34-.67-1.39-.68-1.48-1.59,1.65.78,2.64-.27,3.69-1.28,2.44-2.36,3.82-4.73,3.24-8.6a18.48,18.48,0,0,1,4.05-14.44,28.06,28.06,0,0,1,2.71-3.58,10.31,10.31,0,0,1,10.52-2.4c2.32.65,5,1.38,7-1.21a2.1,2.1,0,0,0-.18-3.27,24.94,24.94,0,0,0-5.77-4.08,37.77,37.77,0,0,1-10.37-8.88c-1.15-1.36-2.59-2.49-4.63-1.88l-.14-.16c0-1.06,1.1-.85,1.53-1.41l1.56.47a.56.56,0,0,0,0,.44c.56.8,1.4.46,2.14.53,3.27,5.37,8.35,8.6,13.62,11.62.87.49,1.68,1.1,2.52,1.65A5.06,5.06,0,0,0,138.88,165.47Z"/><path class="cls-11" d="M84,96.33c-.62.86-.67,2.06-1.62,2.73C81,96.86,80.67,94.27,79.66,92l.31-.24c1.44,1.45,1.33,3.75,2.79,5.3A15,15,0,0,0,83,89.24c-.46-2.33,2-5.39-1.6-7-.14-.06,0-.81.07-1.21.17-.82.41-1.63.62-2.44l.45,1c0,.33-.1.75.06,1,.4.52.48-.14.57-.28C84.06,78.76,85,79,86,80.21c.23.27.73.31,1.1.45l.94.4c.06.63-.15,1.41-.77,1.28-2-.44-1.06,1-1.26,1.78v5.11c0,2.24,0,4.48,0,6.72,0,.75-.33,1.78,1,1.86l.63,0c.08.57-.57,1.21.3,1.94l4.61-11.75a1,1,0,0,0-.32-1.31l-.69-.07.15-1c.51.23,1,.71,1.59.28a.44.44,0,0,0,.12-.42c-.3-.54-.85-.33-1.32-.39,0-.51,0-1,.08-1.53a1.28,1.28,0,0,0,.51-1.1c.25,0,.63,0,.72-.11,1.34-1.9,2.2-2.2,2.38.6,0,.52.3,1.19,1.25,1,.28-2.13.56-4.3.84-6.46l.36,1a21.49,21.49,0,0,1-.41,5.55c-.23.77.38,2-.63,2.25S96,85.24,94.8,84.85c-1.25,3.4-2.52,6.82-3.78,10.25a9.21,9.21,0,0,1-.77,2.14c-1,1.41-1,2.25.78,3.08a6.3,6.3,0,0,1,2.74,3.52.59.59,0,0,0-.26.28c-1-.41-1.42-1.35-2.08-2.06a4.15,4.15,0,0,0-4.1-1.13c-1.14.2-.71.78-.22,1.32,0,.22,0,.44-.08.67a1.79,1.79,0,0,0-2-.07c0-.23,0-.46-.07-.68V85.74H84Z"/><path class="cls-10" d="M183.18,85.45c-3.83,3.32-7.57,6.74-10.2,11.14-7.89,13.15-9,26.55-1.59,40.35,2.52,4.7,6.13,8.69,8.46,13.5.47,1,.89,2,1.33,3l-.27,1c-3.07-5.69-7.18-10.73-10.27-16.41a42.49,42.49,0,0,1-4-9.46,43.46,43.46,0,0,1,.07-21c1.45-6.36,5-11.59,8.72-16.61a18.67,18.67,0,0,1,7.6-6.42C183.09,84.84,183.13,85.15,183.18,85.45Z"/><path class="cls-11" d="M82.55,114.61a.89.89,0,0,1,.88,1.11c-.92.37-.92,1.17-.93,2-1,1.9-2.27,3.71-2.11,6-.35.22-.36.42,0,.62a1.14,1.14,0,0,0,0,.45c-.49,1.63,1.73,1.41,1.81,2.65-1.61,2.45-.45,5-.78,8l1.88-2.14.15,2.59c-1-.52-1.14.44-1.53,1l-.53.22a1.63,1.63,0,0,0-.44,0,.93.93,0,0,1-.11-.49c-.09-.34-.17-.69-.26-1s0-.71,0-1.06a1,1,0,0,0,0-1.51c0-.36,0-.73-.08-1.09,0-1.15.07-2.61-1.31-2.81-1.57-.23-.34,1.5-1,2.08-.16.14-.18.44-.27.66-1,.81-2.11,1.57-1.45,3.15-1,.08-1.07,1.53-2.13,1.61h0c-.38-.72-1-.49-1.65-.52,0-.31,0-.63.08-.94-.06-.73,1-1.5-.09-2.18.31-.58.58-1.18.93-1.73,1.36-2.18,1.83-4.8,3.42-6.86l.77-2.19c.93-2.67,1.87-5.35,2.78-8,.16-.46.47-1.24.29-1.4-2.72-2.38-1.59-5.35-1.37-8.19,1.13.73.28,2.14.88,2.87.89,1.07,0,3.53,2.52,3.32,0,.65,0,1.31.08,2-2.42,2.49-2.58,5.89-4,8.78l.63.26Zm-5.8,13.73A12.65,12.65,0,0,0,79,122.58,12.58,12.58,0,0,0,76.75,128.34Zm-1.87,4.88c.4-.68,1.23-1.23.82-2.31A2.3,2.3,0,0,0,74.88,133.22Zm1.77-4.78c-.56.54-1,1.07-.6,1.93C76.62,129.83,77.05,129.29,76.65,128.44Z"/><path class="cls-12" d="M87.13,153.75a1.32,1.32,0,0,0,2,.31,1.8,1.8,0,0,1,2.34.16c1.79,1.71,1.88.07,2.09-1.05.24-1.28.45-2.5,2-3a2.22,2.22,0,0,1-.64,2.68,1,1,0,0,0-.07,1.38.91.91,0,0,0,1.32.13c1.19-.7,3.64-.28,2.44-3-.26-.58.23-1.63,1-1.31,2.31.94,3.24-.92,4.32-2.07,3.11-3.3,4.61-3.48,8.31-.58l-1.74.2-.1,0-.57-.39c-4.52.25-7,3.58-9.74,6.48a1.82,1.82,0,0,0-.3,1.91c.26.76.94,1.57-.13,2.23a2.78,2.78,0,0,1-3.11-.1c-2.88-1.74-2.83-1.69-5.19,1.15-.79.95-1.91.64-2.57-.32a16.64,16.64,0,0,1-1.28-2.73c.45-.06,1,.17,1.27-.42.12-.28-.12-.44-.39-.48-.68-.08-.8.4-.88.91-1-.19-1.76-2.17-3.1-.52l-1.05,1.15c-1.17.06-1.59-.76-2-1.64a1.51,1.51,0,0,1,1.19-.61Z"/><path class="cls-11" d="M105.39,199c.09.91,1.14.92,1.48,1.59-1.9,1.06-2.13-1-3.11-1.67s-1.89-1.42-2.9-.34-.78,2.1.53,2.85a2.78,2.78,0,0,1,.58.66c-.57,1-1-.15-1.55.11a1.83,1.83,0,0,0-1.09,1.56c-.07.49.1.81.65.81,2.48,0,2.55,1.66,2.4,3.48-.11,1.25-.46,2.55,1.72,2.13,1.19-.24,1.46,1,1.56,1.89s.18,1.67,1.3,1.78a2,2,0,0,1-.3.4c-3.18,2.82-3.89,2.6-4.92-1.7-.26-1.05-.82-1.5-1.74-1.4-2.1.21-2.39-1-2.37-2.66,0-1.46.74-3.09-1.58-3.81-1-.29-.34-4,.86-5a19.8,19.8,0,0,1,4.14-2.82,2.62,2.62,0,0,1,3.89,1.58c.15.2.29.41.44.62Zm-6.79,10.1a23.87,23.87,0,0,1,2-1.77c.58-.42.82-.86.35-1.44s-1-.45-1.59-.12C98.08,206.47,98.09,207.57,98.6,209.05Zm5.19,5.74c0-1.43,1-2.35.41-3.46-.16-.34-.69-.18-.85.08C102.69,212.45,102.22,213.52,103.79,214.79ZM98.49,200c-.8,0-1.15.6-1.35,1.27-.13.46,0,1,.56.73s1.4-.3,1.53-1.13C99.31,200.4,99,200.13,98.49,200Z"/><path class="cls-12" d="M184.11,161.9c1.63,4.25,1.38,8.51-1.44,12-2.67,3.28-6.35,5.3-10.95,4.45-2.55-.48-6.92-4-6.38-5.78,1-3.31-.74-5.82-1.57-8.59a37,37,0,0,0-2.35-5l1.3-.06a1,1,0,0,1,.11.39,1,1,0,0,0,.55,1.14c2.05,3.85,4,7.64,4.12,12.23.08,3.35,4.55,5.51,8,4.23,4.45-1.64,7.59-4.37,8.35-9.44.29-2-.4-3.66-.44-5.5Z"/><path class="cls-12" d="M159.43,222.12a1.2,1.2,0,0,1,1.19-.76c2.29-.13,2.44-1.41,1.55-3.08a3,3,0,0,1-.44-2.63c1.09,1.16,3.14.4,4-1.56a11,11,0,0,0,.63-3,4.06,4.06,0,0,1,1.38-3.11c.78-.6,1.64-1.6-.33-1.95-.34-.06-.94-.59-.43-.84,2.3-1.16.59-1.23-.35-1.74a9.39,9.39,0,0,1-4-11.15l.7.08v1c-.73,4.49,1.83,7.21,5.07,9.63,1.54,1.14,2.56,2.58,1.29,4.6a14.89,14.89,0,0,0-2.56,6.47,2.91,2.91,0,0,1-.8,1.81c-2.7,2.24-3.07,4.89-1.73,8,0,.09-.42.4-.65.61l-1.12-.08c-.83-.85-1.05-2.62-2.91-1.9Z"/><path class="cls-13" d="M82,78.58c-.21.81-.45,1.62-.62,2.44-.09.4-.21,1.15-.07,1.21,3.62,1.62,1.14,4.68,1.6,7A15,15,0,0,1,82.76,97c-1.46-1.55-1.35-3.85-2.79-5.3-.23-2.1-1.21-3.94-1.93-5.88-.38-1-.67-2,1.15-1.6s1.41-.67.77-1.65l-.53-.49v0l-1.53-2,0,0c2,.83,2.81.83,3.24-2a68.84,68.84,0,0,1,2.36-9.46A1.4,1.4,0,0,1,85,67.4c.78,0,1,.44.92,1.15-2.21.51-1.59,2.46-2,3.89A18.15,18.15,0,0,0,82,78.58Z"/><path class="cls-10" d="M133.36,104.61a10.1,10.1,0,0,1-4.92,5.49c-3.5,2-7.07,3.93-9.62,7.19-.6,0-1.22-.43-1.79.09-5.29,1.23-10.1.4-13.79-3.8-3-3.42-5.35-7.47-9.73-9.46a.59.59,0,0,1,.26-.28c2.83.47,5.25,1.61,6.71,4.22a18.06,18.06,0,0,0,8.26,7.89c3.2,1.43,7,1.7,9.85-.63a127,127,0,0,1,10.61-7.21,4.11,4.11,0,0,0,2.15-4.18C132.06,104,132.9,103.77,133.36,104.61Z"/><path class="cls-10" d="M194.41,170.56c.56-10.66-3.31-19.89-8.84-28.72a47.91,47.91,0,0,1-6.46-15H180c2.3,4.38,3.23,9.36,6.06,13.52,1.45,2.15,2.61,4.5,3.87,6.77,3.44,6.19,5.74,12.71,5.27,19.91-.1,1.56.67,3.19-.29,4.69C194.76,171.32,194.59,170.94,194.41,170.56Z"/><path class="cls-12" d="M133.36,104.61c-.46-.84-1.3-.59-2-.68l-1.64-2.14a.89.89,0,0,0-.5-.91,4.56,4.56,0,0,1,1.92-4c1-.63.36-1-.38-1.22-.06-.7-.51-.86-1.12-.82-3.8-2.79-4.26-4-2.93-8.17h.81c1.29.84,1.29,1.81.91,3.3-.61,2.36.49,3.41,3,3.43a34.82,34.82,0,0,1,3.54,0c1.57.18,3.26.69,3.23,2.57,0,1.7-1.64,2.14-3.11,2.39a22.92,22.92,0,0,0-2.48.42c-1.23.37-2.27,1-1.59,2.56.53,1.19,1,2.68,2.93,1.7a6.94,6.94,0,0,1,2.16-.15Zm3.67-8.4a1.84,1.84,0,0,0-1.79-1.75c-.69-.08-1.38.66-1.18.91a5.5,5.5,0,0,0,2.17,1.56C136.61,97.09,137.06,96.53,137,96.21Z"/><path class="cls-5" d="M159.81,98.39c-1.18-5.31-1.79-11-5.66-15.09-1.76-1.87-2.38-3.37-2-5.67a5.35,5.35,0,0,0-.45-1.93c-1.43-3-2-3.25-4.31-1.75h-1.16c0-1.13-.7-1.39-1.66-1.32l-.1-.74c2.22.18,4.78-.27,6.57.7s2.72,3.53,2.57,6a4.1,4.1,0,0,0,1.16,2.47A37.19,37.19,0,0,1,161.16,100a15.28,15.28,0,0,1-.57,5.5l-.31,1.06a1.76,1.76,0,0,1-.07.45l-.92,0c.17-.87.35-1.73.53-2.59A9.23,9.23,0,0,0,159.81,98.39Z"/><path class="cls-12" d="M180,126.82h-.92c-1.63-9-.5-17.26,5.53-24.58,2.56-3.11,5.49-6,7.44-9.56l.24,1.17c-.1.33-.19.66-.29,1-.09.15-.19.29-.29.43-1.11,2.58-3.25,4.41-4.91,6.58-3.27,4.3-6,8.86-7.2,14.2-1.15,3.28-.5,6.51.29,9.73C180,126.12,180,126.47,180,126.82Z"/><path class="cls-12" d="M150.25,223.38c.38,0,.24,1.35.91.45,1.18-1.57,2.32-1.42,3.52-.12.68.74,1.28.26,1.09-.33-.87-2.6,2-3.4,2.28-5.43.64,1.31-.35,2.37-.3,3.55,0,.58.06,1.29.68,1.51s.62-.63,1-.89l.44.4c0,.27,0,.54-.07.8l-.09,1.52a11.37,11.37,0,0,0-2.19-.45c-.69,0-1.3.33-1.22,1.23.18,2.1-1.23,3.14-3.29,2.44-.16-.05-.39-.09-.45-.21-1.66-3.16-4.54-2.34-7.2-2.21l-.36.29,0,0-1,.05,0,0c-.15-.44-.51-.53-.92-.54l0,0c0-.52-.1-1.08.41-1.47.14.36.11,1,.62.88.36-.09.61-.65.92-1,.22,1.61,1.39.27,2,.64,2,.29,2.33-1.11,2.67-2.54C150.28,222.19,149.76,223,150.25,223.38Zm2.91.22a1.52,1.52,0,0,0-1.09,1.39c-.08.89,0,1.68,1.1,1.89.37.07,1,.16.84-.48A29,29,0,0,0,153.16,223.6Z"/><path class="cls-13" d="M101.62,129.9c-.72.08-1.76-.4-2.08.4a2.28,2.28,0,0,0,.83,2.23c1.42,1.46.51,1.95-1,2.09s-2.83.21-4.25.3a1.54,1.54,0,0,1,.07-.42l.54-.49.47-.54,1-.57c.52.24,1.07.73,1.63.34.79-.55.16-1.25-.07-1.8-1-2.41-2-4.78-3-7.17l0,0-.45-.48-.08-.06c-.4-.53-1-.45-1.52-.45a3.54,3.54,0,0,1-2.08-2.33,16.08,16.08,0,0,0-1.93-4.34v-2.51c1.1,1.58,1.48,3,2.71,3.66,2.64,2.38,4.38,5.44,6.35,8.32C99.07,127.79,101.14,128.24,101.62,129.9Z"/><path class="cls-5" d="M151.33,124c0-1.1-.73-2.08,1.45-2.67,1.43-.39,2.17-3.39,1.93-5.64-.06-.5-.55-1.28.31-1.49s.44,1,1.16,1.18a9.51,9.51,0,0,0,.88-5.12c-.08-1.83.88-1.08,1.67-1,.73.45.6,1.1.41,1.77l-.36.59a21.39,21.39,0,0,1-4.22,9.56c-.15.32-.3.64-.46,1l-.15.51c-.86.26-1.39.75-1.21,1.73a1,1,0,0,1-.08.38l-.38.64c0,.46-.07.91-.11,1.37-.07,0-.21.08-.21.11a1.86,1.86,0,0,0,.1.39c-.07.5-.15,1-.22,1.48a.88.88,0,0,0-.56,1.25c-.05.29-.1.58-.14.87-.66.37-.54,1-.48,1.56l-.09,1c-.06,0-.19.1-.18.13a1.73,1.73,0,0,0,.16.37l-.09,1.53c-1,1.21.19,2.85-.81,4.05a14.07,14.07,0,0,1,0-6.61c.06,0,.17-.1.17-.13a2.3,2.3,0,0,0-.12-.34,26.34,26.34,0,0,0,.55-6.57C151.51,125.75,151.89,125.14,151.33,124Z"/><path class="cls-12" d="M116.05,207.65c.35-1.22,1.48-2.17,2.4-1.76,2.47,1.1,3.52.32,3.56-2.19,1.17.22.74,1.49,1.77,1.61.79-1.3.39-2.69.1-4.15,1.29,0,1.11,1.39,2.06,1.76,1-2.26-1.32-4.68.43-6.94s4.15-1.54,6.41-1.49c-.33.33-.67.65-1,1-2.6-.47-4.18,1-4.13,4.13,0,2.64-.24,5-2.48,6.8a4.21,4.21,0,0,1-3.14,1.24C120,207.44,118,206.89,116.05,207.65Z"/><path class="cls-11" d="M80,82.58c.64,1,1.19,2-.77,1.65s-1.53.55-1.15,1.6c.72,1.94,1.7,3.78,1.93,5.88l-.31.24c-.78-1.06-.71-2.62-2.38-4,1.52,4.25,2.8,7.84,4.08,11.44-.72.47-.08,1.63-1,2,.31-3-1.57-5.42-2.44-8.11-.47-1.43-1.32-2.75-1.72-4.19-.46-1.68-1.32-2.14-2.87-1.51,0-.69,0-1.38,0-2.06.32,0,.81.15.84-.23.22-2.66,1.65-3,3.88-2.26.64.22.81-.32.58-.9l.76-.07v0Z"/><path class="cls-12" d="M194.41,170.56c.18.38.35.76.53,1.15.42,6.15-4.28,12.06-10.16,14.18a.88.88,0,0,0-1.18.77l-.52.13c-1.36-.3-2.72.82-4.08,0,.08-.68-.52-.91-1.14-1.16,1.22-.87,1.9.21,2.75.23,2,0,.06-1.46.77-1.9,3,1.27,5.84.21,8.45-3.17A22.84,22.84,0,0,0,194.41,170.56Z"/><path class="cls-10" d="M95.23,134.5a1.54,1.54,0,0,0-.07.42l-.53.5H93.7c-.07-.19-.13-.55-.22-.56-.41,0-.31.35-.38.59-.77,1.09-1.46,1.34-2.08-.14-.49-1.14-.67-2.43-1.81-3.65a10.6,10.6,0,0,0-.1,2.25c.46,2.44-.59,3.4-2.94,3.23-.17-1.72.81-3.41,0-5.17-.19-.44.51-.5.91-.56l.69,1c.54-1,.15-2,.37-3,.49.8,1,1,1.46,0,.47.88.94.66,1.42,0a1.14,1.14,0,0,0,1,.55L92.6,131C91.94,133.28,93.4,134,95.23,134.5Z"/><path class="cls-10" d="M149.65,139.52c1-1.2-.17-2.84.81-4.05-.56,6.23,3,10.74,6.43,15.27,2,2.64,4.31,5.11,5.83,8.13l-1.3.06c-3.12-4.29-6.29-8.54-9.33-12.88A11.73,11.73,0,0,1,149.65,139.52Z"/><path class="cls-10" d="M106.46,135.82c-3.56,3-7.22,5.75-12.18,5.89a5.17,5.17,0,0,0-2.84,1.53c-1.71,1.34-3.36,2.26-5.34.48-.43-.39-1,0-1.43.11-.06-.41-.11-.81-.17-1.22.28-.15.69-.51.82-.42,3.3,2,5.69-.4,8.32-1.64.72-.05,1.5.16,2.09-.48l1,0a5.46,5.46,0,0,0,4.08-1.48,1.18,1.18,0,0,0,1-.63,3.17,3.17,0,0,0,1.62-1.4,1.28,1.28,0,0,0,.43-.1c.94-.48,1.78-1,1.38-2.3C106.61,133.93,106.25,135.09,106.46,135.82Z"/><path class="cls-13" d="M92.16,83.61c0,.51,0,1-.08,1.53l-.39.53-.15,1c-.31.34-.61.68-.92,1-.46-2.86-1.34-3.54-4.64-3.56.2-.73-.77-2.22,1.26-1.78.62.13.83-.65.77-1.28A23.34,23.34,0,0,0,86.5,73.4L86,72,86,69.4c.84,0,1.38.16,1.52,1.19.5,3.87,1.11,7.72,1.69,11.69,1,0,1.49-1,2.33-1.24l.07.06a5.46,5.46,0,0,1-.31,1.7C90.58,84.19,91.81,83.43,92.16,83.61Z"/><path class="cls-10" d="M144.43,71.9l.1.74c-.83.75-2.19,1.15-1.78,2.72l-.85.69c-1.58.09-3.18.13-4.76.3a4.94,4.94,0,0,0-3.56,2.44c-1.93,2.69-4.64,4.8-6.07,7.89h-.81c.52-2.79,2.39-4.8,4.21-6.74a18.66,18.66,0,0,0,2.1-2.44,5.25,5.25,0,0,1,4.45-2.44c2.12-.09,4-.37,5.17-2.44A1.84,1.84,0,0,1,144.43,71.9Z"/><path class="cls-11" d="M116.05,207.65c2-.76,4-.21,6,0a1.28,1.28,0,0,1-1.57.88c-3-.44-4.33.75-4,3.52.16,1.21,1,2.52-.51,3.35a3.57,3.57,0,0,1-4.2-.51,12.29,12.29,0,0,0-2-1.08l2.19-.57c.94.73,1.65,2.2,3.67.85-1.65-.27-1.53-2.33-3.25-2l-.58-.38c1-1.44,2.18-.4,3.27-.07.59-1,0-2,.38-3l.39-.75A.19.19,0,0,1,116.05,207.65Z"/><path class="cls-12" d="M141.76,197.5c1.21,2.55,3.37,3.76,5.94,4.65,2.83,1,5.54,2.27,5.42,6l-1.47-1.52c-.5-1.51-1.8-1.71-3.12-2.18-3.18-1.14-6.88-1.84-7.27-6.27Z"/><path class="cls-5" d="M163.28,192.41l-.7-.08c.17-1.25.33-2.5.5-3.75.09-.31.17-.62.26-.93.33.12.68.29.86-.22l.12-.7c1.14-.86.21-1.79.07-2.69l.05-.13-.1-.11c-.09-.51-.51-1.17.51-1.24a6.54,6.54,0,0,0,1.87,3.46c.91.75,1.41.56,1-.72l.88-.25,2.79,1.78c-.91.91-2.14.23-3.16.63l-.86-.11c-1.43.83-2.83,1.7-3.07,3.56l-.27.91Z"/><path class="cls-3" d="M84.5,142.61c.06.41.11.81.17,1.22-1.08,2.78-.75,3.22,2.7,3.4-.18,1.07-.91,1.24-1.8,1.23-2.73,0-3,.36-1.86,3-1.91.46-1.67-2.32-3.34-2.23-.05-.18-.09-.37-.14-.55,1.68-1.33,3.63-2.55,2.15-5.19h0a.92.92,0,0,0,1.13-.78Z"/><path class="cls-10" d="M151.65,206.64l1.47,1.52c.31,2.93.13,5.69-2.69,7.5-1.32-1.12-2.72-1.81-4.44-.88l-1.08-.08c0-1.53.88-2.06,2.32-1.91,4.31.45,5.62-1.12,4.56-5.41A6.85,6.85,0,0,1,151.65,206.64Z"/><path class="cls-10" d="M73.36,85.52c0,.68,0,1.37,0,2.06a2,2,0,0,1-.42,0c-.3-1.32.28-2.77-.61-4,0-.68-.07-1.36-.1-2,.16-2.76-1.29-5.34-.91-8.13l1.44,0c.06,1.12.16,2.17,1.42,2.73A1.87,1.87,0,0,1,75.38,78l-.12.13c-.3-.21-.6-.42-.89-.64-.11-.11-.29-.34-.3-.33-.31.22-.13.4.07.57l1,4.08c-1.48-1.46-1.36-3.3-2.7-4.89C72.66,80.19,73.51,82.8,73.36,85.52Z"/><path class="cls-10" d="M72.65,132.87c1.13.68,0,1.45.09,2.18-2.69-.62-2.81-2.09-1.57-4.25a15.26,15.26,0,0,0,1.25-3.55,7.24,7.24,0,0,1,5.35-5.15c-.25.72-.51,1.45-.77,2.18a1.84,1.84,0,0,0-2,.67c-1.9,2.22-2.43,5.07-3.35,7.72C71.47,133.1,72.27,132.87,72.65,132.87Z"/><path class="cls-11" d="M129.63,94.84c.61,0,1.06.12,1.12.82-2.45,1-3,3.45-4.25,5.32-.26.39-.89.72-.46,1.24s1.08.34,1.65.22c.84-.18,1.06-1,1.52-1.56a.89.89,0,0,1,.5.91,5.29,5.29,0,0,1-2.35,1.77,1.75,1.75,0,0,1-2.22-.55,1.52,1.52,0,0,1,0-2.23C126.76,98.89,127.59,96.41,129.63,94.84Z"/><path class="cls-10" d="M168.26,187.46c1-.4,2.25.28,3.16-.63,2.52-1.07,5.06.4,7.58,0,1.36.82,2.72-.3,4.08,0a14.83,14.83,0,0,1-9.91,1.19C171.56,187.61,169.84,188.19,168.26,187.46Z"/><path class="cls-10" d="M77.89,131.76c.09-.22.11-.52.27-.66.66-.58-.57-2.31,1-2.08,1.38.2,1.3,1.66,1.31,2.81-1.57.25-1.54,1.68-1.86,2.72-1.09,3.48-1,3.5-4.3,2,1.06-.08,1.08-1.53,2.13-1.61.31.16.67.92.77.61C77.62,134.32,79,133.23,77.89,131.76Z"/><path class="cls-5" d="M112,213.22l-2.19.57-1.56-.55c.25-.67,1-1.11.77-2-.72-3.07,1.43-3.36,3.77-3.83-.46,1.75-2.41,2.43-2.25,4.19,0,.37-.15.94.45.95.22,0,.44-.42.67-.65l.32.4Z"/><path class="cls-11" d="M183.18,85.45c-.05-.3-.09-.61-.14-.92a28.27,28.27,0,0,1,5.65-4.39,2.06,2.06,0,0,1,3.07.43c0,.31,0,.62,0,.93C188.14,81.2,185.92,83.89,183.18,85.45Z"/><path class="cls-10" d="M141.76,197.5l-.5.69c-1.4-2.09-1.65-4.62-2.55-6.9-.58-1.47-1.22-2.3-2.87-1.94l-.09-.09c1.25-1.83,2.39.18,3.59.11C140.85,191.87,140.83,194.83,141.76,197.5Z"/><path class="cls-10" d="M131.77,195.46c.34-.32.68-.64,1-1,.4-.17,1.16-.14.65-.9s-.68-1.31.45-1.25c2.12.1.23-1,.5-1.48l1.37-1.6.09.09a3.73,3.73,0,0,1-.05,1c-.46,1.28,2.8.71,1.24,2.44C135.64,194.33,134.27,196.05,131.77,195.46Z"/><path class="cls-10" d="M143.37,223.93c-.51.39-.39.95-.41,1.47-1-2.81-.57-5.71-.37-8.56.07-1.07,1.16-1.55,2.23-1.7.64,1.33-.67,2.11-1,3.1-.25.64-1.12,1.14-.73,2,.51,1.13,1.6.47,2.43.62a3.54,3.54,0,0,1,0,.46C143.49,221.13,143.38,222.49,143.37,223.93Z"/><path class="cls-5" d="M145.47,220.86c-.83-.15-1.92.51-2.43-.62-.39-.86.48-1.36.73-2,.38-1,1.69-1.77,1-3.1,0-.15.06-.29.09-.43l1.08.06.09,2.42-.08,1.14c-1,.48-1.41,1.1-.5,2Z"/><path class="cls-10" d="M82.38,143.54c1.48,2.64-.47,3.86-2.15,5.19C79.51,146.4,80,144.56,82.38,143.54Z"/><path class="cls-10" d="M101.62,129.9c-.48-1.66-2.55-2.11-2.92-3.85,0-.32.11-.63.16-1a16.89,16.89,0,0,1,4.93,7,1.59,1.59,0,0,1,.43,1.45l-.89-.12-.56-1-.48-.51h0l-.51-1Z"/><path class="cls-10" d="M80.37,149.28c1.67-.09,1.43,2.69,3.34,2.23v0c-.15,1-1.2,1.59-1.12,2.67a1.51,1.51,0,0,0-1.19.61,1.67,1.67,0,0,1-.78-2.17C81.2,151.42,80.74,150.38,80.37,149.28Z"/><path class="cls-13" d="M75.39,78a1.9,1.9,0,0,0-1.25-1.76c-1.26-.56-1.36-1.61-1.42-2.73,2.15,1.56,4.58,2.89,4.7,6l0,0C76.48,79.33,76.47,78,75.39,78Z"/><path class="cls-13" d="M71.28,73.46c-.38,2.79,1.07,5.37.91,8.13C70.14,79.22,69.67,75,71.28,73.46Z"/><path class="cls-12" d="M180.91,154.45l.27-1a20.7,20.7,0,0,1,2.65,7.46L183,161c-.14-.36-.28-.72-.41-1.08.44-.45,0-.44-.27-.55l-.21-1c.25-.91.13-1.67-.88-2Z"/><path class="cls-11" d="M96.26,75l2.22-3c1.17,1.6.44,3,.21,4.43C98.47,75,97,75.72,96.26,75Z"/><path class="cls-10" d="M96.26,75c.69.68,2.21-.06,2.43,1.42,0,.72.21,1.49-.47,2.05l-.36-1-.46-.75c-.21,1.55-1.75.34-2.33,1.12l-.46-.43.65-1.41Z"/><path class="cls-12" d="M192.6,91.58c.64-2.91,1.92-5.79.53-8.82l.7-.26,0,0,.5.58c0,.28,0,.56.05.84-.05.92-.41,1.88.34,2.69-.14.69-.29,1.37-.43,2-.86.67-.4,1.64-.56,2.46l-.05.07Z"/><path class="cls-11" d="M86,69.4c0,.85,0,1.71-.05,2.57l-.82.57-1.26-.1c.39-1.43-.23-3.38,2-3.89Z"/><path class="cls-10" d="M179.92,125.77c-.79-3.22-1.44-6.45-.29-9.73C179.73,119.28,179.82,122.52,179.92,125.77Z"/><path class="cls-10" d="M164.33,190.91c.24-1.86,1.64-2.73,3.07-3.56C166.86,189,166.16,190.42,164.33,190.91Z"/><path class="cls-10" d="M110.52,147.63l1.74-.2h0c0,.13-.06.26-.1.38l.31-.23c.71.13,1.23.84,2,.66,0,.62.31,1,1,.92l.14.16C113.4,150.33,112.12,148.5,110.52,147.63Z"/><path class="cls-10" d="M159.71,224.84l.09-1.52c.63,1.37,1.79,1.28,3,1.1l1.12.08C162.64,226.28,161.17,225.5,159.71,224.84Z"/><path class="cls-13" d="M72.29,83.62c.89,1.23.31,2.68.61,4C70.87,86.56,71.73,85.07,72.29,83.62Z"/><path class="cls-13" d="M103.33,133.38l.89.12h.08l.5.49a.72.72,0,0,0,.38.13c.4,1.28-.44,1.82-1.38,2.3Z"/><path class="cls-13" d="M100.78,138.55A5.46,5.46,0,0,1,96.7,140C98,139.47,98.84,137.45,100.78,138.55Z"/><path class="cls-13" d="M95.26,76.06c-.21.47-.43.94-.65,1.41L93.7,78C93.26,76.49,93.45,76.25,95.26,76.06Z"/><path class="cls-10" d="M159.29,107l.92,0c0,1.11-.19,2-1.47,2.26A4.28,4.28,0,0,1,159.29,107Z"/><path class="cls-10" d="M194.74,86.65c-.75-.81-.39-1.77-.34-2.69C195.93,84.68,194.77,85.74,194.74,86.65Z"/><path class="cls-10" d="M152.74,124.43c-.18-1,.35-1.47,1.21-1.73C154.18,123.72,153.5,124.11,152.74,124.43Z"/><path class="cls-10" d="M192.6,91.58l1.1-.35a3.56,3.56,0,0,1-1.38,2.62l-.24-1.17h0c.63-.15.65-.58.52-1.09Z"/><path class="cls-10" d="M181.25,156.29c1,.37,1.13,1.13.88,2A2.26,2.26,0,0,1,181.25,156.29Z"/><path class="cls-13" d="M103.37,136.52a3.17,3.17,0,0,1-1.62,1.4C101.7,136.77,102.27,136.34,103.37,136.52Z"/><path class="cls-10" d="M93.7,78l.91-.57.46.43-1.22,1.85-.32-.33Z"/><path class="cls-13" d="M91.58,81c0-1,.36-1.6,1.47-1.51,0,.2.09.4.14.6l0,0-.51.51h0l-1,.51Z"/><path class="cls-10" d="M82,136.83c.39-.51.5-1.47,1.53-1l-.06,1.18Z"/><path class="cls-10" d="M193.75,91.16c.16-.82-.3-1.79.56-2.46C194.21,89.54,194.56,90.49,193.75,91.16Z"/><path class="cls-10" d="M163.28,192.41l.78-.59c.32.81-.18,1.22-.78,1.58Z"/><path class="cls-10" d="M151.28,130.05a.88.88,0,0,1,.56-1.25C152.16,129.45,151.77,129.77,151.28,130.05Z"/><path class="cls-13" d="M93.7,135.41h.93c0,.38,0,.9-.59.79C93.88,136.18,93.81,135.69,93.7,135.41Z"/><path class="cls-10" d="M191.74,81.5c0-.31,0-.62,0-.93a1.09,1.09,0,0,1,1.15.88l-.15.14-.72.07C191.88,81.71,191.78,81.66,191.74,81.5Z"/><path class="cls-10" d="M83.54,142.75a.92.92,0,0,1-1.13.78C82.57,143,82.88,142.59,83.54,142.75Z"/><path class="cls-10" d="M183,161l.81-.07.28,1-.69,0Z"/><path class="cls-10" d="M163.38,160.4a1,1,0,0,1-.55-1.14C163.36,159.48,164,159.64,163.38,160.4Z"/><path class="cls-10" d="M183.6,186.66a.88.88,0,0,1,1.18-.77C184.56,186.41,184.26,186.82,183.6,186.66Z"/><path class="cls-10" d="M83.38,156.45l1.05-1.15C84.5,156.06,84.77,157,83.38,156.45Z"/><path class="cls-13" d="M95.73,140.07c-.59.64-1.37.43-2.09.48C94.2,139.8,95,140.09,95.73,140.07Z"/><path class="cls-10" d="M144,226l1-.05c0,.35-.08.72-.49.74S144,226.37,144,226Z"/><path class="cls-10" d="M72.66,136c.6,0,1.27-.2,1.65.52C73.81,136.18,72.94,137,72.66,136Z"/><path class="cls-10" d="M80.55,132.92a1,1,0,0,1,0,1.51C80.59,133.93,80.57,133.42,80.55,132.92Z"/><path class="cls-10" d="M150.66,132.48c-.06-.59-.18-1.19.48-1.56A1.86,1.86,0,0,1,150.66,132.48Z"/><path class="cls-10" d="M80.62,135.49c.09.35.17.7.26,1A.89.89,0,0,1,80.62,135.49Z"/><path class="cls-13" d="M101.78,130.91l.51,1A1,1,0,0,1,101.78,130.91Z"/><path class="cls-10" d="M152.06,127.32a1.86,1.86,0,0,1-.1-.39s.14-.07.21-.11a1.8,1.8,0,0,1,.08.39S152.13,127.28,152.06,127.32Z"/><path class="cls-10" d="M194.35,83.12l-.5-.58C194.17,82.61,194.67,82.51,194.35,83.12Z"/><path class="cls-10" d="M143,225.44c.41,0,.77.1.92.54A.86.86,0,0,1,143,225.44Z"/><path class="cls-10" d="M158.78,111.67l.36-.59C159.75,111.72,158.86,111.45,158.78,111.67Z"/><path class="cls-10" d="M182.34,159.32c.24.11.71.1.27.55Z"/><path class="cls-13" d="M93.1,135.43c.07-.24,0-.63.38-.59.09,0,.15.37.22.56Z"/><path class="cls-10" d="M154.1,122.19c.16-.32.31-.64.46-1A.78.78,0,0,1,154.1,122.19Z"/><path class="cls-10" d="M160.28,106.54l.31-1.06A.92.92,0,0,1,160.28,106.54Z"/><path class="cls-10" d="M193.83,82.5l-.7.26h0c0-.22.09-.43.14-.65l.14-.15Z"/><path class="cls-10" d="M109.85,147.19l.57.39Z"/><path class="cls-10" d="M150.55,133.94a1.73,1.73,0,0,1-.16-.37s.12-.09.18-.13A.94.94,0,0,1,150.55,133.94Z"/><path class="cls-10" d="M145,225.93l.36-.29A.47.47,0,0,1,145,225.93Z"/><path class="cls-10" d="M81,137a1.63,1.63,0,0,1,.44,0C81.26,137.32,81.11,137.33,81,137Z"/><path class="cls-10" d="M192.91,81.45c.16.17.33.34.5.5l-.14.15-.62.09h0l.09-.61Z"/><path class="cls-11" d="M79.94,102l-.3.4Z"/><path class="cls-10" d="M93.19,80.13c0-.2-.1-.4-.14-.6a4.15,4.15,0,0,0,.48-.11c.1.11.21.22.32.32Z"/><path class="cls-10" d="M152.28,125.45l.38-.64C152.54,125,152.41,125.24,152.28,125.45Z"/><path class="cls-10" d="M191.74,95.26c.1-.14.2-.28.29-.43Z"/><path class="cls-13" d="M77.42,79.52l.5.49,0,0-.52-.51Z"/><path class="cls-13" d="M102.29,131.91l.48.51Z"/><path class="cls-10" d="M105.38,199c-.15-.21-.29-.42-.44-.62C105.09,198.56,105.23,198.77,105.38,199Z"/><path class="cls-12" d="M105.18,134.12a.72.72,0,0,1-.38-.13l-.5-.49h-.08a1.59,1.59,0,0,0-.43-1.45c1.62.58.45-1.55,1.48-1.57,1,.62.1,2.25,1.43,2.67.59-1,0-2.23,1-3.18l1.17,2.23c.25.47.47.8,1.15.62a6.8,6.8,0,0,0,4.86-7,24.51,24.51,0,0,1,.27-3.51l.84,0c-.07,1.74-.55,3.49,0,5.22.18.46.54.45.93.37-1.48,3.63-5.2,4.66-8,6.81a11.86,11.86,0,0,1-2.49,1.17C106.25,135.09,106.61,133.93,105.18,134.12Z"/><path class="cls-5" d="M139.32,87.49c-1.53-.7-3.18,0-5.06-.48,1.91-.86,1.58-2.52,1.63-3.91s-.79-2.86.66-4.2c-.62,2.3.32,3.52,2.4,4.07a2.31,2.31,0,0,1,1.57,1.54A3.07,3.07,0,0,0,139.32,87.49Z"/><path class="cls-12" d="M138.88,165.47a5.06,5.06,0,0,1-2-3c1.52.44,2.49,1.66,3.68,2.57,1,.74.86,1.73.53,2.74-.6,1.85.16,2.65,2,2.6-.17-.85,1.39-1,.79-2v-2.13c1,2.87.28,5.61-.51,8.34l-.48-.57c.31-1.31-.44-2-1.45-2.62-1.45-.87-2.68-1.76-1.43-3.79C140.58,166.64,140.32,165.6,138.88,165.47Z"/><path class="cls-9" d="M145.5,220.37c-.91-.94-.47-1.56.5-2a5.36,5.36,0,0,0,4.48-.55L153,218c.29,0,.56.21.37.46s-.55.29-.84.43c-2,0-2.65,1.34-2.91,3-.34,1.43-.7,2.83-2.67,2.54v-1c.25-.92.36-1.78-.86-2.08h0C146.33,220.73,145.87,220.58,145.5,220.37Z"/><path class="cls-14" d="M116.9,127.84c-.39.08-.75.09-.93-.37a2.3,2.3,0,0,0,1.66-1.23,26.55,26.55,0,0,1,10-9.44c.19-.1.46-.07.93.16C123.78,119.67,120.83,124.26,116.9,127.84Z"/><path class="cls-14" d="M130.2,140.21c.15-.3.41-.59.42-.89.36-6.59,7-6.56,10.32-10-.81,2.16-2.65,3.15-4.57,3.88a6.27,6.27,0,0,0-4.41,5.33c-.15,1.13-.47,2.17-1.74,2.54C130.21,140.76,130.21,140.48,130.2,140.21Z"/><path class="cls-12" d="M146.19,74h1.16a3.13,3.13,0,0,1,3.31,1.85,5.75,5.75,0,0,1-.19,4.2l-.54-.64c-.09-.89-.15-1.78-.3-2.66-.09-.54-.17-1.17-.93-1.24s-.92.53-1.18,1c-.47-.13-.52-1.1-1.36-.54s-.51,1.06-.12,1.64c-.18.57-.65.45-1.06.44a.17.17,0,0,0-.28,0l.14-1.58.11-1Z"/><path class="cls-14" d="M142.88,174l.48.57a6.51,6.51,0,0,1-.79,1.53,14.53,14.53,0,0,0-3.79,11.26l-.86-.5C137.09,181.6,140,177.78,142.88,174Z"/><path class="cls-9" d="M146.08,217.19l-.09-2.42c1.72-.92,3.12-.23,4.44.89l-.36,1.2C148.82,217.93,147.44,217.46,146.08,217.19Z"/><path class="cls-14" d="M118.57,148.67a.56.56,0,0,1,0-.44c0-.74-.07-1.48,0-2.22,0-.47.59-.89.78-.53,1,1.86,2.67.17,3.84.84,0,.66.47.8,1,.85h0a1.07,1.07,0,0,1,0,.4c-1,1.26-2.61.27-3.69,1.13C119.86,148,119.22,147.56,118.57,148.67Z"/><path class="cls-12" d="M124.19,147.56a1.07,1.07,0,0,0,0-.4c.33-.25.68-.48.54-1-.82-2.17,0-3.58,2-4.45,1.17-.49,2.33-1,3.49-1.52,0,.27,0,.55,0,.82a9.07,9.07,0,0,1-2.94,1.8c-1.37.61-2.75,1.09-1.28,3.23C126.84,147.27,125.24,147.54,124.19,147.56Z"/><path class="cls-14" d="M142.13,92.87c-1.88,2.42,2.12,5.89-1.29,8C142.94,98.46,138.85,95.11,142.13,92.87Z"/><path class="cls-3" d="M137.92,186.84l.86.5.56,2c-1.2.07-2.34-1.94-3.59-.11l-1.37,1.6c-.84-2.11-.16-3.23,2.14-3.21A1.48,1.48,0,0,0,137.92,186.84Z"/><path class="cls-3" d="M82.59,154.2c-.08-1.08,1-1.69,1.12-2.67,1,1.72,2.08,1.35,3.16.06l.81.81-.55,1.35Z"/><path class="cls-14" d="M115.94,122.25l-.84,0c-.2-2,1.81-3.07,1.93-4.91.57-.52,1.19-.08,1.79-.09C117.94,119,116.32,120.27,115.94,122.25Z"/><path class="cls-14" d="M139.32,87.49a3.07,3.07,0,0,1,1.2-3c1.07,1.16,0,3,1.73,4.1A2.68,2.68,0,0,1,139.32,87.49Z"/><path class="cls-14" d="M168.63,185.05l-.88.25c-1.37-.77-1.69-2.38-2.72-3.43.3-.51-.31-1.2.55-1.77A24.87,24.87,0,0,0,168.63,185.05Z"/><path class="cls-14" d="M164.32,186.73l-.12.7-.92-.65,0,0c-.49-.95-1-1.91-1.45-2.86.22-.63-.49-1.53.74-2A13.76,13.76,0,0,0,164.32,186.73Z"/><path class="cls-9" d="M165,181.87c1,1,1.35,2.66,2.72,3.43.38,1.28-.12,1.47-1,.72a6.54,6.54,0,0,1-1.87-3.46Z"/><path class="cls-14" d="M146.08,217.19c1.36.27,2.74.74,4-.33l.41.92a5.36,5.36,0,0,1-4.48.55C146,218,146.06,217.57,146.08,217.19Z"/><path class="cls-14" d="M149.59,221.91c.26-1.69.93-3,2.91-3-.8,1.48-2.3,2.6-2.25,4.5C149.76,223,150.28,222.19,149.59,221.91Z"/><path class="cls-14" d="M87.68,152.4l-.81-.81c.93-1.25,2.28-1.27,4-1.46C90,151.64,88.41,151.42,87.68,152.4Z"/><path class="cls-12" d="M115.48,149.17c-.66,0-1-.3-1-.92s-.52-1.77.37-2,1.4,1,2.13,1.52C116.58,148.32,115.45,148.11,115.48,149.17Z"/><path class="cls-15" d="M150.66,75.8A3.13,3.13,0,0,0,147.35,74c2.26-1.5,2.88-1.25,4.31,1.75Z"/><path class="cls-14" d="M146,77.58c-.39-.58-.72-1.07.12-1.64s.89.41,1.36.54c-.11,1-.21,2.09-.32,3.14l-.4,0c-.05-.54-.09-1.08-.14-1.62.19-.29,0-.34-.24-.42A2.33,2.33,0,0,1,146,77.58Z"/><path class="cls-14" d="M163.34,187.65c-.09.31-.17.62-.26.93-1-1.09-3.34-1.51-1.84-3.8.37,1,.54,2.22,2.08,2l0,0C162.84,187.1,163.34,187.36,163.34,187.65Z"/><path class="cls-14" d="M149.93,79.36l.54.64A2.76,2.76,0,0,1,148,82.19Z"/><path class="cls-10" d="M159.81,98.39a9.23,9.23,0,0,1,0,6C159.82,102.41,159.81,100.4,159.81,98.39Z"/><path class="cls-14" d="M145,75.36l-.11,1-2.94-.35.85-.69Z"/><path class="cls-9" d="M163.32,186.82c-1.54.18-1.71-1-2.08-2l.63-.82C162.35,184.91,162.83,185.87,163.32,186.82Z"/><path class="cls-14" d="M151.33,124c.56,1.14.18,1.75-1.07,1.87C149.6,124.67,150.74,124.49,151.33,124Z"/><path class="cls-14" d="M143.87,168.34c.6,1-1,1.19-.79,2C142.42,169.34,142.11,168.43,143.87,168.34Z"/><path class="cls-12" d="M118.57,148.67c.65-1.11,1.29-.66,1.93,0l.21.51C120,149.13,119.13,149.47,118.57,148.67Z"/><path class="cls-14" d="M152,120.91c0,.29,0,.63-.5.62s-.46-.37-.47-.67-.07-.68.43-.64S152,120.56,152,120.91Z"/><path class="cls-14" d="M124.68,146.18c.14.5-.21.73-.54,1h0l0-.57Z"/><path class="cls-12" d="M124.12,146.6l0,.57c-.52,0-1-.19-1-.85Z"/><path class="cls-12" d="M192.6,91.59c.13.51.11.94-.52,1.09C192.26,92.32,192.43,92,192.6,91.59Z"/><path class="cls-10" d="M149.71,132.44a2.3,2.3,0,0,1,.12.34s-.11.08-.17.13A.35.35,0,0,1,149.71,132.44Z"/><path class="cls-12" d="M112.47,147.59l-.31.23c0-.12.07-.25.1-.38A.16.16,0,0,1,112.47,147.59Z"/><path class="cls-12" d="M192.65,82.19l.62-.09c-.05.22-.1.43-.14.65Z"/><path class="cls-12" d="M192.76,81.59l-.09.61-.63-.54Z"/><polygon class="cls-14" points="164.34 183.81 164.44 183.91 164.39 184.04 164.21 183.97 164.34 183.81"/><path class="cls-14" d="M144.7,78a.17.17,0,0,1,.28,0l-.25.36Z"/><path class="cls-12" d="M146.42,77.54c.2.08.43.13.24.42A1.76,1.76,0,0,1,146.42,77.54Z"/><path class="cls-12" d="M115.91,207.92l-.39.75A.59.59,0,0,1,115.91,207.92Z"/><path class="cls-5" d="M111.87,211.72l.58.38a.56.56,0,0,1-.44.19l-.32-.4A.16.16,0,0,1,111.87,211.72Z"/><path class="cls-9" d="M117,117.38c-.12,1.84-2.13,2.94-1.93,4.91a24.51,24.51,0,0,0-.27,3.51,6.8,6.8,0,0,1-4.86,7c-.68.18-.9-.15-1.15-.62L107.65,130c-1,.95-.36,2.23-1,3.18-1.33-.42-.43-2.05-1.43-2.67-1,0,.14,2.15-1.48,1.57a16.89,16.89,0,0,0-4.93-7c-.76-3.31-2.35-6-5.54-7.55a16.91,16.91,0,0,1-2.16-3.33A2.83,2.83,0,0,0,88.1,112a.76.76,0,0,0-.16-.43c-.31-1-.61-2-.92-3.07l0,0a8.53,8.53,0,0,0,3.44-.37c.37-.15,1,.8,1.14-.14a.82.82,0,0,0-1.15-.9c-1.74.8-2.77-.27-3.87-1.26-.31-.65.53-.81.56-1.32l-.08,0c1.36-.75,1.23-1.5,0-2.26-.49-.54-.92-1.12.22-1.32a4.15,4.15,0,0,1,4.1,1.13c.66.71,1.12,1.65,2.08,2.06,4.38,2,6.73,6,9.73,9.46C106.93,117.78,111.74,118.61,117,117.38Z"/><path class="cls-11" d="M95.23,134.5c-1.83-.48-3.29-1.22-2.63-3.54l.78-.65.47.85c.25.43.17,1.06.77,1.3l.18.69c.1-.07.28-.18.27-.21a4.87,4.87,0,0,0-.31-.6,1.81,1.81,0,0,0-.47-1.57c-.92-2.34-1-5.06-3.1-6.87a3.38,3.38,0,0,1-.6-2,2,2,0,0,0-1-2.72l0,0c.32-.93-.2-1.72-.4-2.57a1.85,1.85,0,0,0,.46-.08,16.08,16.08,0,0,1,1.93,4.34,3.54,3.54,0,0,0,2.08,2.33c.16,1.33,1,.35,1.52.45l.07.06.46.48,0,0c0,.43-.12.84-.57,1l-.91.19c1,.9-.46,2.8,1.39,3.38.69.22.21,1.13.72,1.5-1,1.26.36,1.38.92,1.89l-.07.62-1,.57-.47.54Z"/><path class="cls-13" d="M87.53,125.84a16.22,16.22,0,0,1-1.12-10.5,27.27,27.27,0,0,1,3.1,8,1.83,1.83,0,0,1-2,2.48Z"/><path class="cls-15" d="M84,96.33V85.73h.94v16.43C83.49,100.4,84.54,98.23,84,96.33Z"/><path class="cls-15" d="M81.36,99.39C80.08,95.79,78.8,92.2,77.28,88c1.67,1.38,1.6,2.94,2.38,4,1,2.32,1.35,4.91,2.69,7.11.34,1.21.69,2.42,1,3.63l-.76-.07a.2.2,0,0,0-.12-.22l-.36-1.06a.64.64,0,0,0-.2-.44l-.46-1.11A.58.58,0,0,0,81.36,99.39Z"/><path class="cls-15" d="M83.34,133.29l-1.88,2.14c.33-3-.83-5.55.78-8h0c.36,1.74,1.46,3.42.41,5.29C82.63,132.76,83.1,133.09,83.34,133.29Z"/><path class="cls-15" d="M84.73,135.27V125.16C85.57,126.4,85.72,132.25,84.73,135.27Z"/><path class="cls-15" d="M88.18,129.35c-.22,1,.17,2-.37,3l-.69-1c-.22-.73-1.24-1.09-.43-2.31a2.76,2.76,0,0,0-.57-3.25c.59-.64,1,.22,1.41,0h0A7.75,7.75,0,0,1,88.18,129.35Z"/><path class="cls-14" d="M86.62,105.87c1.1,1,2.13,2.06,3.87,1.26a.82.82,0,0,1,1.15.9c-.16.94-.77,0-1.14.14a8.53,8.53,0,0,1-3.44.37C86,107.81,86,106.89,86.62,105.87Z"/><path class="cls-15" d="M82.55,114.61l-3,7.06-.63-.26c1.42-2.89,1.58-6.29,4-8.78C82.82,113.29,82.68,114,82.55,114.61Z"/><path class="cls-15" d="M89.18,116.66c.2.85.72,1.64.4,2.57-1.39-2.59-2.76-5.18-3.06-8.17.33.35.66.71,1,1.06A13.68,13.68,0,0,0,89,115.91Z"/><path class="cls-11" d="M85,122.28c.53,1.49.11,2-1.46,1.48l-.26,0,.06-1.08v-3.54l0-1.53.2,0c.78.46.2,1.52.89,2C84.73,120.52,84.13,121.57,85,122.28Z"/><path class="cls-15" d="M93.85,131.16l-.47-.85-.39-.95-.32-.6c-.49-1.62-1-3.24-1.48-4.86,2.08,1.81,2.18,4.53,3.1,6.87Z"/><path class="cls-13" d="M82.25,127.42h0c-.08-1.24-2.3-1-1.81-2.65,1.17.32,1.83-.87,2.85-1l.26,0C82.71,124.84,83.19,126.38,82.25,127.42Z"/><path class="cls-15" d="M85,102.85a1.79,1.79,0,0,1,2,.07c.19.52-.37,1.08.07,1.59l.08,0c-.64-.67-1.18,0-1.75.15-.41.08-.85.8-1.19.15-.17-.32.18-.91.29-1.37l.38-.56Z"/><path class="cls-15" d="M83.51,107.27c-.05.54.14,1.07-.57.9-1.52-.36-.73-2-1.48-2.79-.14-.14,0-.78.43-.71C83.45,105,82.9,106.55,83.51,107.27Z"/><path class="cls-15" d="M85,122.28c-.87-.71-.27-1.76-.6-2.59,0-2.18,0-4.37.09-6.55,0-.12.19-.24.51-.62Z"/><path class="cls-15" d="M91.06,129.33c-.48.66-1,.88-1.42,0,0-1.11-.29-2.31,1-3,0,.71-.33,1.62.88,1.72-.06.24-.12.48-.17.72S91.15,129.15,91.06,129.33Z"/><path class="cls-10" d="M87.52,112.12c-.34-.35-.67-.71-1-1.06v0c0-.64.27-1.44-.78-1.55-.44-1.42.69-.87,1.27-1,.31,1,.61,2,.92,3.07Z"/><path class="cls-15" d="M89.56,119.19a2,2,0,0,1,1,2.72A5.5,5.5,0,0,1,89.56,119.19Z"/><path class="cls-13" d="M82.5,117.69c0-.8,0-1.6.93-2,0,.65,0,1.31.08,2l-.2,0Z"/><path class="cls-11" d="M82.14,101.34l.36,1.06a8.59,8.59,0,0,1-1.1.28C81.14,102,81.61,101.64,82.14,101.34Z"/><path class="cls-11" d="M91.51,128.06c-1.21-.1-.84-1-.88-1.72A2.42,2.42,0,0,1,91.51,128.06Z"/><path class="cls-11" d="M91.06,129.33c.09-.18.18-.37.28-.55a1,1,0,0,1,.74,1.1A1.14,1.14,0,0,1,91.06,129.33Z"/><path class="cls-15" d="M85.75,109.54c1,.11.77.91.78,1.55C85.94,110.74,86,110.08,85.75,109.54Z"/><path class="cls-11" d="M82.62,102.62l.76.07c0,.43-.09.87-.66.82A4,4,0,0,1,82.62,102.62Z"/><path class="cls-11" d="M81.48,99.79l.46,1.11A1,1,0,0,1,81.48,99.79Z"/><path class="cls-11" d="M92.67,128.76l.32.6Z"/><path class="cls-11" d="M84.91,102.92l-.38.56Z"/><path class="cls-7" d="M86,84.12c3.3,0,4.18.7,4.64,3.56-.79,2.07-1.11,4.32-2.47,6.15-1.83-1.09-1.53-2.92-1.62-4.62,1.88-1.38,1.45-2.35-.55-3Z"/><path class="cls-15" d="M93.19,80.13l.66-.39,1.22-1.84c.58-.78,2.12.43,2.33-1.12l.46.75c-.28,2.16-.56,4.33-.84,6.46-1,.2-1.21-.47-1.25-1-.18-2.8-1-2.5-2.38-.6-.09.14-.47.08-.72.11,0-.64,0-1.28,0-1.92h0c.49.14.55-.14.51-.51Z"/><path class="cls-15" d="M85.17,72.54,86,72l.51,1.43c-.72.54-.31,1.2-.22,1.83q.41,2.72.79,5.43c-.37-.14-.87-.18-1.1-.45-1-1.18-1.91-1.45-2.85.06-.09.14-.17.8-.57.28-.16-.21,0-.63-.06-1l1.69-5.5c1.08,1.18-.66,2.73.65,4.49C85,76.19,85.06,74.36,85.17,72.54Z"/><path class="cls-15" d="M92.23,86.74a1,1,0,0,1,.32,1.31L87.94,99.8c-.87-.73-.22-1.37-.3-1.94C89.56,94.31,90.21,90.24,92.23,86.74Z"/><path class="cls-10" d="M85.17,72.54c-.11,1.82-.21,3.65-.34,6-1.31-1.76.43-3.31-.65-4.49l-1.69,5.5-.45-1a18.15,18.15,0,0,1,1.87-6.14Z"/><path class="cls-13" d="M86.53,89.21c.09,1.7-.21,3.53,1.62,4.62.12,1.47-.88,2.63-1.14,4-1.33-.08-1-1.11-1-1.86-.05-2.24,0-4.48,0-6.72l.55,0Z"/><path class="cls-10" d="M87,97.81c.26-1.35,1.26-2.51,1.14-4,1.36-1.83,1.68-4.08,2.47-6.15.31-.33.61-.67.92-1l.69.07c-2,3.5-2.67,7.57-4.59,11.12Z"/><path class="cls-10" d="M87.07,80.66q-.39-2.72-.79-5.43c-.09-.63-.5-1.29.22-1.83A23.34,23.34,0,0,1,88,81.06Z"/><path class="cls-13" d="M86,86.17c2,.69,2.43,1.66.55,3h0c-.06-.73.22-1.54-.55-2.08Z"/><path class="cls-10" d="M92.66,80.59c0,.64,0,1.28,0,1.92a1.28,1.28,0,0,1-.51,1.1c-.35-.18-1.58.58-.82-.81a5.46,5.46,0,0,0,.31-1.7Z"/><path class="cls-3" d="M87.1,104.51c-.44-.51.12-1.07-.07-1.59,0-.23,0-.45.08-.67C88.33,103,88.46,103.76,87.1,104.51Z"/><path class="cls-10" d="M91.69,85.67l.39-.53c.47.06,1-.15,1.32.39a.44.44,0,0,1-.12.42C92.67,86.38,92.2,85.9,91.69,85.67Z"/><path class="cls-7" d="M86,87.13c.77.54.49,1.35.55,2.08l-.55,0Z"/><path class="cls-15" d="M72.65,132.87c-.38,0-1.18.23-1-.2.92-2.65,1.45-5.5,3.35-7.72a1.84,1.84,0,0,1,2-.67c-1.59,2.06-2.06,4.68-3.42,6.86C73.23,131.69,73,132.29,72.65,132.87Z"/><path class="cls-7" d="M82.5,117.69l.81,0,0,1.53c-1.36,1.18-.22,2.36,0,3.54l-.06,1.08c-1,.11-1.68,1.3-2.85,1a1.14,1.14,0,0,1,0-.45c0-.21,0-.41,0-.62C80.23,121.4,81.5,119.59,82.5,117.69Z"/><path class="cls-15" d="M77.89,131.76c1.06,1.47-.27,2.56-.68,3.76-.1.31-.46-.45-.77-.61C75.78,133.33,76.9,132.57,77.89,131.76Z"/><path class="cls-15" d="M76.75,128.34A12.58,12.58,0,0,1,79,122.58,12.65,12.65,0,0,1,76.75,128.34Z"/><path class="cls-15" d="M74.88,133.22a2.3,2.3,0,0,1,.82-2.31C76.11,132,75.28,132.54,74.88,133.22Z"/><path class="cls-15" d="M76.65,128.44c.4.85,0,1.39-.6,1.93C75.63,129.51,76.09,129,76.65,128.44Z"/><path class="cls-13" d="M80.39,123.71c0,.21,0,.41,0,.62C80,124.13,80,123.93,80.39,123.71Z"/><path class="cls-3" d="M87.53,155.82c.08-.51.2-1,.88-.91.27,0,.51.2.39.48-.25.59-.82.36-1.27.42Z"/><path class="cls-15" d="M98.6,209.05c-.51-1.48-.52-2.58.73-3.33.55-.33,1.14-.44,1.59.12s.23,1-.35,1.44A23.87,23.87,0,0,0,98.6,209.05Z"/><path class="cls-15" d="M103.79,214.79c-1.57-1.27-1.1-2.34-.44-3.38.16-.26.69-.42.85-.08C104.75,212.44,103.81,213.36,103.79,214.79Z"/><path class="cls-15" d="M98.49,200c.47.12.82.39.74.87-.13.83-1,.9-1.53,1.13s-.69-.27-.56-.73C97.34,200.61,97.69,200.05,98.49,200Z"/><path class="cls-15" d="M162.78,224.42c-1.19.18-2.35.27-3-1.1,0-.26,0-.53.07-.8C161.73,221.8,162,223.57,162.78,224.42Z"/><path class="cls-10" d="M77.37,79.55l.52.51,1.53,2-.76.07a19.86,19.86,0,0,1-3.4-4l.12-.13C76.47,78,76.48,79.33,77.37,79.55Z"/><path class="cls-10" d="M80,82.58l-.53-.49Z"/><path class="cls-15" d="M129.21,100.88c-.46.57-.68,1.38-1.52,1.56-.57.12-1.24.27-1.65-.22s.2-.85.46-1.24c1.3-1.87,1.8-4.37,4.25-5.32.74.22,1.34.59.38,1.22A4.56,4.56,0,0,0,129.21,100.88Z"/><path class="cls-15" d="M137,96.21c0,.32-.42.88-.8.72a5.5,5.5,0,0,1-2.17-1.56c-.2-.25.49-1,1.18-.91A1.84,1.84,0,0,1,137,96.21Z"/><path class="cls-9" d="M145,75.36h-2.2c-.41-1.57.95-2,1.78-2.72,1-.07,1.66.19,1.66,1.32Z"/><path class="cls-15" d="M143.37,223.93c0-1.44.12-2.8,2.12-2.61h.57c-.24.64.23,1.37-.27,2l-.88.51c-.31.35-.56.91-.92,1C143.48,224.94,143.51,224.29,143.37,223.93Z"/><path class="cls-15" d="M153.16,223.6a29,29,0,0,1,.85,2.8c.13.64-.47.55-.84.48-1.06-.21-1.18-1-1.1-1.89A1.52,1.52,0,0,1,153.16,223.6Z"/><path class="cls-5" d="M144.91,223.81l.88-.51,1.13.1v1C146.3,224.08,145.13,225.42,144.91,223.81Z"/><path class="cls-5" d="M93.32,117.55c3.19,1.53,4.78,4.24,5.54,7.55,0,.32-.11.63-.16,1-2-2.88-3.71-5.94-6.35-8.32Z"/><path class="cls-10" d="M93.32,117.55l-1,.18c-1.23-.71-1.61-2.08-2.71-3.66v2.51a1.85,1.85,0,0,1-.46.08c-.05-.25-.09-.5-.14-.76,0-1.37.42-2.84-.94-3.88a2.83,2.83,0,0,1,3.06,2.2A16.91,16.91,0,0,0,93.32,117.55Z"/><path class="cls-10" d="M97.2,132.9c0-.21,0-.42.07-.62.38,0,.69-.16.54-.58-.75-2.18-1.21-4.49-2.66-6.38.45-.21.52-.62.57-1,1,2.39,2.07,4.76,3,7.17.23.55.86,1.25.07,1.8C98.27,133.63,97.72,133.14,97.2,132.9Z"/><path class="cls-10" d="M95.17,123.7c-.52-.1-1.36.88-1.52-.45C94.2,123.25,94.77,123.17,95.17,123.7Z"/><path class="cls-10" d="M95.7,124.24l-.46-.48Z"/><path class="cls-10" d="M95.77,134l.47-.54Z"/><path class="cls-15" d="M75.26,78.11a19.86,19.86,0,0,0,3.4,4c.23.58.06,1.12-.58.9-2.23-.77-3.66-.4-3.88,2.26,0,.38-.52.27-.84.23.15-2.72-.7-5.33-1-8.62,1.34,1.59,1.22,3.43,2.7,4.89l-1-4.08.23-.24Z"/><path class="cls-15" d="M112,212.29a.56.56,0,0,0,.44-.19c1.72-.36,1.6,1.7,3.25,2-2,1.35-2.73-.12-3.67-.85C112,212.91,112,212.6,112,212.29Z"/><path class="cls-9" d="M163.34,187.65c0-.29-.5-.55-.06-.87l.92.65C164,187.94,163.67,187.77,163.34,187.65Z"/><path class="cls-15" d="M74.14,77.71c-.2-.17-.38-.35-.07-.57,0,0,.19.22.3.33Z"/><path class="cls-12" d="M146.07,221.32h-.58a3.54,3.54,0,0,0,0-.46l0-.49C145.87,220.58,146.33,220.73,146.07,221.32Z"/><path class="cls-10" d="M104.3,133.5l.5.49Z"/><path class="cls-10" d="M93.16,80.08c0,.37,0,.65-.51.51Z"/><path class="cls-12" d="M146.92,223.4l-1.13-.1c.5-.61,0-1.34.27-2C147.28,221.62,147.17,222.48,146.92,223.4Z"/><path class="cls-11" d="M88.1,112c1.36,1,1,2.51.94,3.88a13.5,13.5,0,0,1-1.52-3.78l.42-.53A.76.76,0,0,1,88.1,112Z"/><path class="cls-15" d="M95.15,125.32c1.45,1.89,1.91,4.2,2.66,6.38.15.42-.16.58-.54.58-.56-.51-1.92-.63-.92-1.89-.51-.37,0-1.28-.72-1.5-1.85-.58-.38-2.48-1.39-3.38Z"/><path class="cls-15" d="M94.62,132.46c-.6-.24-.52-.87-.77-1.3l.44-.39a1.81,1.81,0,0,1,.47,1.57Z"/><path class="cls-15" d="M94.76,132.34a4.87,4.87,0,0,1,.31.6s-.17.14-.27.21l-.18-.69Z"/><path class="cls-13" d="M83.34,122.72c-.22-1.18-1.36-2.36,0-3.54Z"/></g></g></svg>